<?xml version="1.0" standalone="no"?>
<!DOCTYPE svg PUBLIC "-//W3C//DTD SVG 1.1//EN" "http://www.w3.org/Graphics/SVG/1.1/DTD/svg11.dtd" >
<svg xmlns="http://www.w3.org/2000/svg" xmlns:xlink="http://www.w3.org/1999/xlink" version="1.1">
<metadata>
Created by FontForge 20161116 at Mon May  8 21:20:44 2017
 By Jimmy Wärting
Oliver Jeschke / ogj type design
</metadata>
<defs>
<font id="SequelSans-BoldHeadline" horiz-adv-x="605" >
  <font-face 
    font-family="Sequel Sans Bold Headline"
    font-weight="375"
    font-stretch="normal"
    units-per-em="1000"
    panose-1="2 11 7 3 5 0 0 2 0 4"
    ascent="800"
    descent="-200"
    x-height="530.14"
    cap-height="714"
    bbox="-81.5 -439 1236.52 1069"
    underline-thickness="50"
    underline-position="-100"
    stemh="139"
    stemv="170"
    unicode-range="U+000D-FB02"
  />
<missing-glyph horiz-adv-x="687" 
d="M637 -439h-587v1508h587v-1508zM125 -373h437v1377h-437v-1377zM292 391l-127 10c9 98 73 142 175 142c97 0 172 -46 172 -136c0 -58 -34 -80 -69 -99c-37 -20 -50 -29 -50 -51v-3h-114v16c0 52 20 72 71 104c19 12 30 23 30 41s-13 32 -41 32c-27 0 -46 -19 -47 -56z
M269 216h135v-123h-135v123z" />
    <glyph glyph-name=".notdef" horiz-adv-x="687" 
d="M637 -439h-587v1508h587v-1508zM125 -373h437v1377h-437v-1377zM292 391l-127 10c9 98 73 142 175 142c97 0 172 -46 172 -136c0 -58 -34 -80 -69 -99c-37 -20 -50 -29 -50 -51v-3h-114v16c0 52 20 72 71 104c19 12 30 23 30 41s-13 32 -41 32c-27 0 -46 -19 -47 -56z
M269 216h135v-123h-135v123z" />
    <glyph glyph-name="A" unicode="A" horiz-adv-x="753" 
d="M514.36 159.92h-278.919l-52.96 -159.92h-179.54l260.21 714h226.85l260.2 -714h-182.15zM472.711 284l-96.75 288.18h-4l-95.4404 -288.18h196.19z" />
    <glyph glyph-name="Aacute" unicode="&#xc1;" horiz-adv-x="753" 
d="M433.07 768.22h-113.54l85.3701 163.59h162.04zM514.36 159.92h-278.919l-52.96 -159.92h-179.54l260.21 714h226.85l260.2 -714h-182.15zM472.711 284l-96.75 288.18h-4l-95.4404 -288.18h196.19z" />
    <glyph glyph-name="Abreve" unicode="&#x102;" horiz-adv-x="753" 
d="M376.57 759.92c-95.6699 0 -181.711 59.4697 -185.551 167.6h104.24c6.54004 -46.1904 41.0205 -70.8008 81.3105 -70.8008c39.7598 0 74.7793 24.6104 81.3193 70.8008h104.24c-3.83008 -108.13 -90.3496 -167.6 -185.56 -167.6zM514.369 159.92h-278.929
l-52.96 -159.92h-179.53l260.2 714h226.85l260.21 -714h-182.15zM472.71 284l-96.75 288.18h-4l-95.4297 -288.18h196.18z" />
    <glyph glyph-name="Acircumflex" unicode="&#xc2;" horiz-adv-x="753" 
d="M309.25 761.92h-142.83l138.3 163.6h143.7l138.3 -163.6h-142.84l-65.3096 88.6904h-4zM514.36 159.92h-278.919l-52.96 -159.92h-179.54l260.21 714h226.85l260.2 -714h-182.15zM472.711 284l-96.75 288.18h-4l-95.4404 -288.18h196.19z" />
    <glyph glyph-name="Adieresis" unicode="&#xc4;" horiz-adv-x="753" 
d="M338.38 778.87h-138.66v120.65h138.66v-120.65zM553.42 778.87h-138.66v120.65h138.66v-120.65zM514.37 159.92h-278.929l-52.96 -159.92h-179.53l260.2 714h226.85l260.21 -714h-182.15zM472.711 284l-96.75 288.18h-4l-95.4297 -288.18h196.18z" />
    <glyph glyph-name="Agrave" unicode="&#xc0;" horiz-adv-x="753" 
d="M319.53 768.22l-133.87 163.59h162.04l85.3701 -163.59h-113.54zM514.36 159.92h-278.919l-52.96 -159.92h-179.54l260.21 714h226.85l260.2 -714h-182.15zM472.711 284l-96.75 288.18h-4l-95.4404 -288.18h196.19z" />
    <glyph glyph-name="Amacron" unicode="&#x100;" horiz-adv-x="753" 
d="M534.31 794.09h-315.48v97.3301h315.48v-97.3301zM514.369 159.92h-278.929l-52.96 -159.92h-179.53l260.2 714h226.85l260.21 -714h-182.15zM472.71 284l-96.75 288.18h-4l-95.4297 -288.18h196.18z" />
    <glyph glyph-name="Aogonek" unicode="&#x104;" horiz-adv-x="753" 
d="M706.53 -142.97c18.8301 0 39.0615 2 55.5215 7.46973v-89.0195c-20.2197 -5.54004 -44.75 -7.54004 -74.9697 -7.54004c-93.6299 0 -146.78 36.1504 -146.78 103.37c0 54.6904 35.3096 101.61 90.5293 128.69h-62.7803l-53.6904 159.92h-278.92l-52.96 -159.92h-179.54
l260.21 714h226.85l260.2 -714c-68 -37.2402 -94.8301 -75.5605 -94.8301 -105.261c0 -25.2402 25.5303 -37.71 51.1602 -37.71zM472.712 284l-96.75 288.18h-4l-95.4297 -288.18h196.18z" />
    <glyph glyph-name="Aring" unicode="&#xc5;" horiz-adv-x="753" 
d="M377.03 750.85c-67.7598 0 -120.52 50.1504 -120.52 116.521s52.7598 116.521 120.52 116.521c66.3701 0 119.59 -50.1504 119.59 -116.521s-53.2197 -116.521 -119.59 -116.521zM377.03 919.899c-28.9199 0 -50.46 -21 -50.46 -52.5303
c0 -31.54 21.54 -52.54 50.46 -52.54c27.54 0 49.54 21 49.54 52.54c0 31.5303 -22 52.5303 -49.54 52.5303zM514.36 159.919h-278.919l-52.96 -159.92h-179.54l260.21 714h226.85l260.2 -714h-182.15zM472.711 283.999l-96.75 288.18h-4l-95.4404 -288.18h196.19z" />
    <glyph glyph-name="Atilde" unicode="&#xc3;" horiz-adv-x="753" 
d="M305.51 825.55c-16 0 -31.5205 -8.91992 -38.0605 -40.7002l-77.6602 9.08984c10.9199 91.9697 61.29 130.56 126.64 130.56c23.8496 0 42.3896 -8.7002 58.8496 -18.6299l31.21 -19.3701c13.6104 -8.53027 26.6104 -16.46 41.1406 -16.46
c16 0 31.54 8.92969 38.0703 40.71l77.6699 -9.09961c-10.9297 -91.96 -61.2998 -130.56 -126.649 -130.56c-24.9199 0 -43.3896 8.70996 -58.8496 18.6299l-31.21 19.3701c-13.6104 8.54004 -27.6807 16.46 -41.1504 16.46zM514.369 159.92h-278.919l-52.96 -159.92
h-179.54l260.21 714h226.85l260.2 -714h-182.15zM472.72 284l-96.75 288.18h-4l-95.4404 -288.18h196.19z" />
    <glyph glyph-name="AE" unicode="&#xc6;" horiz-adv-x="1101" 
d="M711.87 574.89l0.000976562 -143.709h333.39v-133.2h-333.39v-158.95h352.46v-139.03h-515.78v179.98h-266l-94.6104 -179.98h-185l389.93 713.46h671.46v-138.57h-352.46zM548.551 300.291v274.6h-58.4102l-144.34 -274.6h202.75z" />
    <glyph glyph-name="B" unicode="B" horiz-adv-x="696" 
d="M55.2598 714l359.5 -0.000976562c145.3 0 228.74 -76.9297 228.74 -192.319c0 -67.29 -34.5195 -114.07 -91.1494 -140.15v-4c67.5596 -27.5303 114.609 -81.3105 114.609 -166.16c0 -131.52 -86.3701 -211.369 -237.521 -211.369h-374.18v714zM225.26 422.199
l154.17 0.000976562c62.3496 0 94.75 31.0195 94.75 81.9795c0 50.9697 -32.4004 81.9893 -94.75 81.9893h-154.17v-163.97zM225.26 130.9l166.71 0.00976562c67.1299 0 101.92 33.4004 101.92 88.2207c0 54.8096 -34.79 88.2197 -101.92 88.2197h-166.71v-176.45z" />
    <glyph glyph-name="C" unicode="C" horiz-adv-x="749" 
d="M549.7 267.26l171.62 -16.999c-25.54 -141.78 -143.26 -266.261 -333.479 -266.261c-206.52 0 -352.579 137.09 -352.579 373.46c0 235.45 146.06 372.54 352.579 372.54c178.35 0 293.92 -111.83 325.31 -227.46l-169.15 -23.4697
c-21.0898 64.0996 -74.8896 115.04 -156.17 115.04c-97.79 0 -179.5 -69.7002 -179.5 -236.65c0 -167.87 81.71 -237.57 179.5 -237.57c90.54 0 144.63 62.0498 161.87 147.37z" />
    <glyph glyph-name="Cacute" unicode="&#x106;" horiz-adv-x="749" 
d="M444.33 768.22h-113.53l85.3701 163.59h162.03zM549.71 267.26l171.61 -16.999c-25.54 -141.78 -143.26 -266.261 -333.479 -266.261c-206.52 0 -352.569 137.09 -352.569 373.46c0 235.45 146.05 372.54 352.569 372.54c178.35 0 293.93 -111.83 325.319 -227.46
l-169.15 -23.4697c-21.0996 64.0996 -74.8896 115.04 -156.17 115.04c-97.7998 0 -179.5 -69.7002 -179.5 -236.65c0 -167.87 81.7002 -237.57 179.5 -237.57c90.5303 0 144.63 62.0498 161.87 147.37z" />
    <glyph glyph-name="Ccaron" unicode="&#x10c;" horiz-adv-x="749" 
d="M597.98 926.44l-138.3 -163.59h-143.71l-138.29 163.59h142.83l65.3203 -88.6797h4l65.3096 88.6797h142.84zM549.7 267.261l171.61 -16.999c-25.54 -141.78 -143.26 -266.261 -333.479 -266.261c-206.52 0 -352.569 137.09 -352.569 373.46
c0 235.45 146.05 372.54 352.569 372.54c178.35 0 293.93 -111.83 325.319 -227.46l-169.15 -23.4697c-21.0996 64.0996 -74.8896 115.04 -156.17 115.04c-97.7998 0 -179.5 -69.7002 -179.5 -236.65c0 -167.87 81.7002 -237.57 179.5 -237.57
c90.5303 0 144.63 62.0498 161.87 147.37z" />
    <glyph glyph-name="Ccedilla" unicode="&#xc7;" horiz-adv-x="753" 
d="M414.96 -33.3896l0.0205078 -5.01074c63.9404 -6.07031 102.48 -34.1504 102.48 -90.7607c0 -68.6104 -54.1504 -102.9 -150.99 -102.9c-40.96 0 -86.1797 9.15039 -116.87 25.7607l21.2197 65.5898c21.0801 -10.5303 54.9805 -22.75 89.6504 -22.75
c22.29 0 44.0703 11.0703 44.0703 35.3105c0 24.3203 -21.7803 29.3906 -44.0703 29.3906c-14.4697 0 -27.54 -3.53027 -41.6201 -7.53027v64.3701l26.4697 27.9199c-183.76 17.6104 -310.06 151.78 -310.06 371.46c0 235.45 146.06 372.54 352.579 372.54
c178.35 0 293.92 -111.83 325.31 -227.46l-169.15 -23.4697c-21.0898 64.0996 -74.8896 115.04 -156.17 115.04c-97.79 0 -179.5 -69.7002 -179.5 -236.65c0 -167.87 81.71 -237.57 179.5 -237.57c90.54 0 146.63 62.0498 165.87 147.37l171.61 -17
c-25 -130.02 -127.89 -246.119 -292.42 -263.729z" />
    <glyph glyph-name="Ccircumflex" unicode="&#x108;" horiz-adv-x="749" 
d="M389.83 850.61h-4.00098l-65.3096 -88.6904h-142.84l138.3 163.6h143.7l138.3 -163.6h-142.84zM549.699 267.261l171.62 -16.999c-25.54 -141.78 -143.26 -266.261 -333.479 -266.261c-206.52 0 -352.579 137.09 -352.579 373.46c0 235.45 146.06 372.54 352.579 372.54
c178.35 0 293.92 -111.83 325.31 -227.46l-169.15 -23.4697c-21.0898 64.0996 -74.8896 115.04 -156.17 115.04c-97.79 0 -179.5 -69.7002 -179.5 -236.65c0 -167.87 81.71 -237.57 179.5 -237.57c90.54 0 144.63 62.0498 161.87 147.37z" />
    <glyph glyph-name="Cdotaccent" unicode="&#x10a;" horiz-adv-x="749" 
d="M308.44 903.22h158.78v-124.35h-158.78v124.35zM549.701 267.26l171.62 -16.999c-25.54 -141.78 -143.26 -266.261 -333.479 -266.261c-206.52 0 -352.579 137.09 -352.579 373.46c0 235.45 146.06 372.54 352.579 372.54c178.35 0 293.92 -111.83 325.31 -227.46
l-169.15 -23.4697c-21.0898 64.0996 -74.8896 115.04 -156.17 115.04c-97.79 0 -179.5 -69.7002 -179.5 -236.65c0 -167.87 81.71 -237.57 179.5 -237.57c90.54 0 144.63 62.0498 161.87 147.37z" />
    <glyph glyph-name="D" unicode="D" horiz-adv-x="745" 
d="M55.2598 714h289.18c215.82 0 365.24 -110.26 365.24 -357s-149.42 -357 -365.24 -357h-289.18v714zM225.26 132.13l92.8301 -0.00976562c136.89 0 218.52 58.7803 218.52 224.87c0 166.1 -81.6299 224.88 -218.52 224.88h-92.8301v-449.74z" />
    <glyph glyph-name="Eth" unicode="&#xd0;" horiz-adv-x="745" 
d="M55.2598 714l289.18 0.000976562c215.82 0 365.24 -110.26 365.24 -357s-149.42 -357 -365.24 -357h-289.18v301.72h-53.21v111.56h53.21v300.72zM225.26 132.131l92.8301 -0.000976562c136.89 0 218.52 58.7803 218.52 224.87c0 166.1 -81.6299 224.88 -218.52 224.88
h-92.8301v-168.6h145.4v-111.55h-145.4v-169.6z" />
    <glyph glyph-name="Dcaron" unicode="&#x10e;" horiz-adv-x="745" 
d="M549.18 925.9l-138.3 -163.59h-143.7l-138.3 163.59h142.84l65.3096 -88.6797h4l65.3203 88.6797h142.83zM55.25 713.99h289.19c215.81 0 365.239 -110.26 365.239 -357s-149.43 -357 -365.239 -357h-289.19v714zM225.25 132.12l92.8398 -0.00976562
c136.89 0 218.52 58.7803 218.52 224.88c0 166.09 -81.6299 224.87 -218.52 224.87h-92.8398v-449.74z" />
    <glyph glyph-name="Dcroat" unicode="&#x110;" horiz-adv-x="745" 
d="M55.2598 714l289.18 0.000976562c215.82 0 365.24 -110.26 365.24 -357s-149.42 -357 -365.24 -357h-289.18v301.72h-53.21v111.56h53.21v300.72zM225.26 132.131l92.8301 -0.000976562c136.89 0 218.52 58.7803 218.52 224.87c0 166.1 -81.6299 224.88 -218.52 224.88
h-92.8301v-168.6h145.4v-111.55h-145.4v-169.6z" />
    <glyph glyph-name="E" unicode="E" horiz-adv-x="625" 
d="M225.79 429.57h344.22v-127.44h-344.22v-165.93h362.37v-136.2h-532.9v714h532.9v-132.13h-362.37v-152.3z" />
    <glyph glyph-name="Eacute" unicode="&#xc9;" horiz-adv-x="625" 
d="M378.48 768.22h-113.54l85.3701 163.59h162.04zM225.79 429.569h344.22v-127.45h-344.22v-165.92h362.37v-136.21h-532.9v714h532.9v-132.13h-362.37v-152.29z" />
    <glyph glyph-name="Ebreve" unicode="&#x114;" horiz-adv-x="625" 
d="M403.29 927.52h104.249c-3.83008 -108.13 -90.3496 -167.6 -185.56 -167.6c-95.6602 0 -181.72 59.4697 -185.55 167.6h104.24c6.53027 -46.1904 41.0107 -70.8008 81.3105 -70.8008c39.7598 0 74.7793 24.6104 81.3096 70.8008zM225.799 429.569h344.22v-127.44h-344.22
v-165.93h362.37v-136.2h-532.91v714h532.91v-132.13h-362.37v-152.3z" />
    <glyph glyph-name="Ecaron" unicode="&#x11a;" horiz-adv-x="625" 
d="M532.13 926.44l-138.3 -163.59h-143.71l-138.29 163.59h142.83l65.3203 -88.6797h4l65.3096 88.6797h142.84zM225.79 429.57h344.22v-127.44h-344.22v-165.93h362.37v-136.2h-532.9v714h532.9v-132.13h-362.37v-152.3z" />
    <glyph glyph-name="Ecircumflex" unicode="&#xca;" horiz-adv-x="625" 
d="M323.98 850.61h-4.00098l-65.3096 -88.6904h-142.84l138.3 163.6h143.7l138.3 -163.6h-142.84zM225.8 429.57h344.22v-127.44h-344.22v-165.93h362.37v-136.2h-532.91v714h532.91v-132.13h-362.37v-152.3z" />
    <glyph glyph-name="Edieresis" unicode="&#xcb;" horiz-adv-x="625" 
d="M145.13 899.52h138.66v-120.65h-138.66v120.65zM360.16 899.52h138.67v-120.65h-138.67v120.65zM225.79 429.569h344.22v-127.44h-344.22v-165.93h362.37v-136.2h-532.9v714h532.9v-132.13h-362.37v-152.3z" />
    <glyph glyph-name="Edotaccent" unicode="&#x116;" horiz-adv-x="625" 
d="M242.59 903.22h158.78v-124.35h-158.78v124.35zM225.79 429.569h344.22v-127.45h-344.22v-165.92h362.37v-136.21h-532.9v714h532.9v-132.13h-362.37v-152.29z" />
    <glyph glyph-name="Egrave" unicode="&#xc8;" horiz-adv-x="625" 
d="M293.11 931.81l85.3701 -163.59h-113.54l-133.87 163.59h162.04zM225.79 429.569h344.22v-127.45h-344.22v-165.92h362.37v-136.21h-532.9v714h532.9v-132.13h-362.37v-152.29z" />
    <glyph glyph-name="Emacron" unicode="&#x112;" horiz-adv-x="625" 
d="M164.24 794.09v97.3398h315.48v-97.3398h-315.48zM225.79 429.58h344.22v-127.45h-344.22v-165.92h362.37v-136.21h-532.9v714h532.9v-132.13h-362.37v-152.29z" />
    <glyph glyph-name="Eogonek" unicode="&#x118;" horiz-adv-x="625" 
d="M544.5 -142.97c18.8301 0 39.0498 2 55.5195 7.46973v-89.0195c-20.2197 -5.54004 -44.7598 -7.54004 -74.9795 -7.54004c-93.6299 0 -146.78 36.1504 -146.78 103.37c0 54.6904 35.3203 101.61 90.54 128.69h-413.54v714h532.91v-132.13h-362.37v-152.3h344.22v-127.44
h-344.22v-165.93h362.37v-136.2c-68 -37.2402 -94.8398 -75.5605 -94.8398 -105.261c0 -25.2402 25.54 -37.71 51.1699 -37.71z" />
    <glyph glyph-name="F" unicode="F" horiz-adv-x="617" 
d="M225.79 581.87v-170.35h344.22v-127.45h-344.22v-284.07h-170.53v714h532.9v-132.13h-362.37z" />
    <glyph glyph-name="G" unicode="G" horiz-adv-x="777" 
d="M728.22 0l-115.78 -0.00292969v82.7803c-51.5996 -64.6904 -125.819 -98.7803 -220.609 -98.7803c-206.84 0 -356.58 140.72 -356.58 373.46s149.74 372.53 356.58 372.53c169.55 0 288.7 -93.3496 330.87 -225.199l-171.08 -20.5195
c-26.8701 66.5996 -78.6797 109.84 -159.79 109.84c-103.48 0 -183.5 -72.0195 -183.5 -236.649c0 -165.56 80.0195 -237.579 183.5 -237.579c88.5703 0 155.37 50.9697 177.39 138.37h-165.47v123h324.47v-381.25z" />
    <glyph glyph-name="Gbreve" unicode="&#x11e;" horiz-adv-x="777" 
d="M473.14 927.52h104.249c-3.83008 -108.13 -90.3496 -167.6 -185.56 -167.6c-95.6602 0 -181.72 59.4697 -185.55 167.6h104.24c6.53027 -46.1904 41.0107 -70.8008 81.3105 -70.8008c39.7598 0 74.7793 24.6104 81.3096 70.8008zM728.219 -0l-115.779 -0.00292969
v82.7803c-51.5898 -64.6904 -125.81 -98.7803 -220.609 -98.7803c-206.83 0 -356.57 140.72 -356.57 373.46s149.74 372.53 356.57 372.53c169.56 0 288.71 -93.3496 330.87 -225.199l-171.07 -20.5195c-26.8701 66.5996 -78.6904 109.84 -159.801 109.84
c-103.48 0 -183.5 -72.0195 -183.5 -236.649c0 -165.56 80.0195 -237.579 183.5 -237.579c88.5801 0 155.37 50.9697 177.39 138.37h-165.46v123h324.46v-381.25z" />
    <glyph glyph-name="Gcircumflex" unicode="&#x11c;" horiz-adv-x="777" 
d="M393.83 850.61h-4.00098l-65.3096 -88.6797h-142.84l138.3 163.59h143.7l138.3 -163.59h-142.84zM728.219 0l-115.779 -0.00390625v82.7803c-51.5898 -64.6797 -125.81 -98.7793 -220.609 -98.7793c-206.83 0 -356.57 140.72 -356.57 373.46s149.74 372.54 356.57 372.54
c169.56 0 288.71 -93.3496 330.87 -225.199l-171.07 -20.5195c-26.8701 66.5898 -78.6904 109.83 -159.801 109.83c-103.48 0 -183.5 -72.0195 -183.5 -236.649c0 -165.55 80.0195 -237.569 183.5 -237.569c88.5801 0 155.37 50.96 177.39 138.37h-165.46v123h324.46
v-381.26z" />
    <glyph glyph-name="Gcommaaccent" unicode="&#x122;" horiz-adv-x="777" 
d="M728.22 0l-115.78 -0.00292969v82.7803c-51.5996 -64.6904 -125.819 -98.7803 -220.609 -98.7803c-206.84 0 -356.58 140.72 -356.58 373.46s149.74 372.53 356.58 372.53c169.55 0 288.7 -93.3496 330.87 -225.199l-171.08 -20.5195
c-26.8701 66.5996 -78.6797 109.84 -159.79 109.84c-103.48 0 -183.5 -72.0195 -183.5 -236.649c0 -165.56 80.0195 -237.579 183.5 -237.579c88.5703 0 155.37 50.9697 177.39 138.37h-165.47v123h324.47v-381.25zM463.55 -58.8525v-79.4805
c0 -111.93 -44.4404 -171.979 -143.91 -177.279v68.5596c33.6699 2.07031 54.1299 25.6807 54.1299 63.8506h-54.1299v124.35h143.91z" />
    <glyph glyph-name="Gdotaccent" unicode="&#x120;" horiz-adv-x="777" 
d="M312.44 903.22h158.78v-124.35h-158.78v124.35zM728.221 -0l-115.779 -0.00390625v82.7803c-51.5898 -64.6797 -125.81 -98.7793 -220.609 -98.7793c-206.83 0 -356.57 140.72 -356.57 373.46s149.74 372.54 356.57 372.54c169.56 0 288.71 -93.3496 330.87 -225.199
l-171.07 -20.5195c-26.8701 66.5898 -78.6904 109.83 -159.801 109.83c-103.48 0 -183.5 -72.0195 -183.5 -236.649c0 -165.55 80.0195 -237.569 183.5 -237.569c88.5801 0 155.37 50.96 177.39 138.37h-165.46v123h324.46v-381.26z" />
    <glyph glyph-name="H" unicode="H" horiz-adv-x="743" 
d="M687.59 714v-714h-170v292.44h-292.33v-292.44h-170v714h170v-282.98h292.33v282.98h170z" />
    <glyph glyph-name="Hbar" unicode="&#x126;" horiz-adv-x="742" 
d="M731.14 504.87h-43.5498v-504.87h-170v292.44h-292.34v-292.44h-170v504.87h-44.4805v104.26h44.4805v104.87h170v-104.87h292.34v104.87h170v-104.87h43.5498v-104.26zM517.59 504.87h-292.34v-73.8496h292.34v73.8496z" />
    <glyph glyph-name="Hcircumflex" unicode="&#x124;" horiz-adv-x="743" 
d="M375.35 850.61h-4.00098l-65.3096 -88.6904h-142.84l138.3 163.6h143.7l138.3 -163.6h-142.84zM687.589 714v-714h-170v292.44h-292.33v-292.44h-170v714h170v-282.98h292.33v282.98h170z" />
    <glyph glyph-name="I" unicode="I" horiz-adv-x="283" 
d="M56.6504 0v714h170v-714h-170z" />
    <glyph glyph-name="IJ" unicode="&#x132;" horiz-adv-x="920" 
d="M56.6504 0v714h170v-714h-170zM865.181 714v-476.55c0 -182.98 -121.2 -253.461 -283.63 -253.461c-156.2 0 -264.65 80.0195 -282.721 249c-1.54004 15.6904 -2.07031 28.4502 -1.07031 38.5205l164.61 14.8398c-0.469727 -10 -1 -24.3701 0.530273 -37.6699
c9.78027 -88.7002 48.9102 -127.87 118.65 -127.87c72.4502 0 110.41 39.1699 110.41 127.87v465.32h173.22z" />
    <glyph glyph-name="Iacute" unicode="&#xcd;" horiz-adv-x="283" 
d="M198.15 768.22h-113.54l85.3701 163.59h162.04zM56.6504 -0v714h170v-714h-170z" />
    <glyph glyph-name="Ibreve" unicode="&#x12c;" horiz-adv-x="283" 
d="M222.96 927.52h104.249c-3.83008 -108.13 -90.3496 -167.6 -185.56 -167.6c-95.6602 0 -181.72 59.4697 -185.55 167.6h104.24c6.53027 -46.1904 41.0107 -70.8008 81.3105 -70.8008c39.7598 0 74.7793 24.6104 81.3096 70.8008zM56.6494 -0v714h170v-714h-170z" />
    <glyph glyph-name="Icircumflex" unicode="&#xce;" horiz-adv-x="283" 
d="M143.65 850.61h-4.00098l-65.3096 -88.6904h-142.84l138.3 163.6h143.7l138.3 -163.6h-142.84zM56.6494 0v714h170v-714h-170z" />
    <glyph glyph-name="Idieresis" unicode="&#xcf;" horiz-adv-x="283" 
d="M-35.21 899.52h138.67v-120.65h-138.67v120.65zM179.83 899.52h138.66v-120.65h-138.66v120.65zM56.6406 -0v714h170v-714h-170z" />
    <glyph glyph-name="Idotaccent" unicode="&#x130;" horiz-adv-x="283" 
d="M62.2598 903.22h158.78v-124.35h-158.78v124.35zM56.6504 -0v714h170v-714h-170z" />
    <glyph glyph-name="Igrave" unicode="&#xcc;" horiz-adv-x="283" 
d="M112.78 931.81l85.3701 -163.59h-113.54l-133.87 163.59h162.04zM56.6504 -0v714h170v-714h-170z" />
    <glyph glyph-name="Imacron" unicode="&#x12a;" horiz-adv-x="283" 
d="M-16.0898 794.09v97.3398h315.48v-97.3398h-315.48zM56.6504 -0v714h170v-714h-170z" />
    <glyph glyph-name="Iogonek" unicode="&#x12e;" horiz-adv-x="283" 
d="M226.65 714v-714c-68 -37.2402 -94.8398 -75.5605 -94.8398 -105.261c0 -25.2402 25.54 -37.71 51.1699 -37.71c18.8301 0 39.0498 2 55.5195 7.46973v-89.0195c-20.2197 -5.54004 -44.7598 -7.54004 -74.9795 -7.54004c-93.6299 0 -146.78 36.1504 -146.78 103.37
c0 54.6904 35.3203 101.61 90.54 128.69h-50.6299v714h170z" />
    <glyph glyph-name="Itilde" unicode="&#x128;" horiz-adv-x="283" 
d="M328.44 901.65l-77.6699 9.08984c-6.54004 -31.7803 -22.0703 -40.7002 -38.0703 -40.7002c-14.54 0 -27.54 7.91992 -41.1504 16.46l-31.2002 19.3701c-16.4697 9.91992 -35 18.6299 -58.8496 18.6299c-65.3496 0 -115.72 -38.5996 -126.649 -130.56l77.6699 -9.09961
c6.53027 31.7803 22.0703 40.71 38.0703 40.71c13.46 0 27.54 -7.92969 41.1504 -16.46l31.2002 -19.3701c15.4697 -9.92969 33.9297 -18.6299 58.8594 -18.6299c65.3496 0 115.72 38.5898 126.64 130.56zM56.6406 0v714h170v-714h-170z" />
    <glyph glyph-name="J" unicode="J" horiz-adv-x="637" 
d="M581.89 714v-476.55c0 -182.98 -121.21 -253.461 -283.63 -253.461c-156.21 0 -264.65 80.0195 -282.73 249c-1.53027 15.6904 -2.07031 28.4502 -1.07031 38.5205l164.61 14.8398c-0.459961 -10 -1 -24.3701 0.540039 -37.6699
c9.78027 -88.7002 48.9102 -127.87 118.65 -127.87c72.4404 0 110.41 39.1699 110.41 127.87v465.32h173.22z" />
    <glyph glyph-name="Jcircumflex" unicode="&#x134;" horiz-adv-x="637" 
d="M497.28 850.61h-4.00098l-65.3096 -88.6904h-142.84l138.3 163.6h143.7l138.3 -163.6h-142.84zM581.89 714v-476.55c0 -182.98 -121.2 -253.461 -283.63 -253.461c-156.2 0 -264.65 80.0195 -282.721 249c-1.54004 15.6904 -2.07031 28.4502 -1.07031 38.5205
l164.61 14.8398c-0.469727 -10 -1 -24.3701 0.530273 -37.6699c9.78027 -88.7002 48.9102 -127.87 118.65 -127.87c72.4502 0 110.41 39.1699 110.41 127.87v465.32h173.22z" />
    <glyph glyph-name="K" unicode="K" horiz-adv-x="697" 
d="M295.83 319.05l-75.8311 -81.8994v-237.15h-170v714h170v-281.19l249.3 281.19h194.61l-250.02 -272.61l287.57 -441.39h-202.05z" />
    <glyph glyph-name="Kcommaaccent" unicode="&#x136;" horiz-adv-x="697" 
d="M295.83 319.05l-75.8311 -81.8994v-237.15h-170v714h170v-281.19l249.3 281.19h194.61l-250.02 -272.61l287.57 -441.39h-202.05zM431.429 -58.8496v-79.4805c0 -111.93 -44.4404 -171.979 -143.91 -177.279v68.5596c33.6699 2.07031 54.1299 25.6807 54.1299 63.8506
h-54.1299v124.35h143.91z" />
    <glyph glyph-name="L" unicode="L" horiz-adv-x="611" 
d="M55.2598 0v714h170.53v-572.43h368.52v-141.57h-539.05z" />
    <glyph glyph-name="Lacute" unicode="&#x139;" horiz-adv-x="611" 
d="M197.29 768.22h-113.53l85.3701 163.59h162.03zM55.2598 -0v714h170.53v-572.43h368.52v-141.57h-539.05z" />
    <glyph glyph-name="Lcaron" unicode="&#x13d;" horiz-adv-x="611" 
d="M350.94 926.44l-138.3 -163.59h-143.7l-138.3 163.59h142.84l65.3096 -88.6797h4l65.3203 88.6797h142.83zM55.251 0.000976562v714h170.54v-572.43h368.52v-141.57h-539.06z" />
    <glyph glyph-name="Lcommaaccent" unicode="&#x13b;" horiz-adv-x="611" 
d="M55.2598 0v714h170.53v-572.43h368.52v-141.57h-539.05zM396.779 -58.8496v-79.4805c0 -111.93 -44.4404 -171.979 -143.91 -177.279v68.5596c33.6699 2.07031 54.1299 25.6807 54.1299 63.8506h-54.1299v124.35h143.91z" />
    <glyph glyph-name="Ldot" unicode="&#x13f;" horiz-adv-x="611" 
d="M55.2598 0v714h170.53v-572.43h368.52v-141.57h-539.05zM430.819 301.41c-54.5498 0 -98.4795 43.4297 -98.4795 97.9795c0 54.1104 43.9297 98.4805 98.4795 98.4805c54.0498 0 97.9795 -44.3701 97.9795 -98.4805c0 -54.5498 -43.9297 -97.9795 -97.9795 -97.9795z" />
    <glyph glyph-name="Lslash" unicode="&#x141;" horiz-adv-x="611" 
d="M594.31 141.57v-141.57h-539.05v219.32l-44.4805 -25.9004v118.19l44.4805 26.0898v376.3h170.53v-277.62l156.45 90.5303v-117.19l-156.45 -91.0898v-177.06h368.52z" />
    <glyph glyph-name="M" unicode="M" horiz-adv-x="879" 
d="M823.55 714l0.000976562 -714h-159.56v514.18h-4l-161.48 -514.18h-122.22l-161.48 514.18h-4v-514.18h-155.55v714h249.46l133.22 -461.47h4l133.22 461.47h248.39z" />
    <glyph glyph-name="N" unicode="N" horiz-adv-x="747" 
d="M691.98 0h-189.28l-287.89 488.33h-4v-488.33h-155.55v714h193.74l283.42 -478.72h4v478.72h155.56v-714z" />
    <glyph glyph-name="Nacute" unicode="&#x143;" horiz-adv-x="747" 
d="M430.39 767.68h-113.54l85.3701 163.6h162.04zM691.979 -0h-189.271l-287.89 488.33h-4v-488.33h-155.56v714h193.74l283.43 -478.72h4v478.72h155.55v-714z" />
    <glyph glyph-name="Ncaron" unicode="&#x147;" horiz-adv-x="747" 
d="M584.03 925.9l-138.3 -163.59h-143.7l-138.3 163.59h142.84l65.3096 -88.6797h4l65.3203 88.6797h142.83zM691.971 -0.00976562h-189.271l-287.89 488.34h-4v-488.34h-155.56v714h193.74l283.43 -478.72h4v478.72h155.55v-714z" />
    <glyph glyph-name="Ncommaaccent" unicode="&#x145;" horiz-adv-x="747" 
d="M691.98 0h-189.28l-287.89 488.33h-4v-488.33h-155.55v714h193.74l283.42 -478.72h4v478.72h155.56v-714zM445.61 -58.8496l0.00976562 -79.4805c0 -111.93 -44.4502 -171.979 -143.91 -177.279v68.5596c33.6602 2.07031 54.1299 25.6807 54.1299 63.8506h-54.1299
v124.35h143.9z" />
    <glyph glyph-name="Eng" unicode="&#x14a;" horiz-adv-x="747" 
d="M691.98 714l-0.00976562 -733.93c0 -124.74 -101.59 -177.15 -232.72 -177.15c-125.56 0 -219.689 65.7197 -223.84 177.3l150.97 0.459961c2.38965 -34.3301 26.3496 -62.1299 75.0195 -62.1299c51.3701 0 73.6299 31.04 73.6299 66.9805v14.4697l-320.22 488.33h-4
v-488.33h-155.56v714h184.84l292.33 -445.93h4v445.93h155.56z" />
    <glyph glyph-name="Ntilde" unicode="&#xd1;" horiz-adv-x="747" 
d="M560.68 901.11l-77.6699 9.08984c-6.54004 -31.7803 -22.0703 -40.7002 -38.0703 -40.7002c-14.54 0 -27.54 7.91992 -41.1504 16.46l-31.2002 19.3701c-16.4697 9.91992 -35 18.6299 -58.8496 18.6299c-65.3496 0 -115.72 -38.5996 -126.649 -130.56l77.6699 -9.09961
c6.53027 31.7803 22.0703 40.71 38.0703 40.71c13.46 0 27.54 -7.92969 41.1504 -16.46l31.2002 -19.3701c15.4697 -9.92969 33.9297 -18.6299 58.8594 -18.6299c65.3496 0 115.72 38.5898 126.64 130.56zM691.97 0h-189.271l-287.89 488.33h-4v-488.33h-155.56v714h193.74
l283.43 -478.72h4v478.72h155.55v-714z" />
    <glyph glyph-name="O" unicode="O" horiz-adv-x="785" 
d="M392.52 730c208.37 0 357.26 -136.56 357.26 -373c0 -236.45 -148.89 -373 -357.26 -373s-357.26 136.55 -357.26 373c0 236.44 148.89 373 357.26 373zM392.52 119.89c103.09 0 184.189 69.7002 184.189 237.11c0 167.4 -81.0996 237.11 -184.189 237.11
c-103.1 0 -184.189 -69.71 -184.189 -237.11c0 -167.41 81.0898 -237.11 184.189 -237.11z" />
    <glyph glyph-name="Oacute" unicode="&#xd3;" horiz-adv-x="785" 
d="M449.02 768.22h-113.54l85.3701 163.59h162.04zM392.52 730c208.37 0 357.26 -136.56 357.26 -373c0 -236.45 -148.89 -373 -357.26 -373s-357.26 136.55 -357.26 373c0 236.44 148.89 373 357.26 373zM392.52 119.89c103.09 0 184.189 69.7002 184.189 237.11
c0 167.4 -81.0996 237.11 -184.189 237.11c-103.1 0 -184.189 -69.71 -184.189 -237.11c0 -167.41 81.0898 -237.11 184.189 -237.11z" />
    <glyph glyph-name="Obreve" unicode="&#x14e;" horiz-adv-x="785" 
d="M473.83 927.52h104.249c-3.83008 -108.13 -90.3496 -167.6 -185.56 -167.6c-95.6602 0 -181.72 59.4697 -185.55 167.6h104.24c6.53027 -46.1904 41.0107 -70.8008 81.3105 -70.8008c39.7598 0 74.7793 24.6104 81.3096 70.8008zM392.52 730
c208.37 0 357.26 -136.56 357.26 -373c0 -236.45 -148.89 -373 -357.26 -373s-357.26 136.55 -357.26 373c0 236.44 148.89 373 357.26 373zM392.52 119.89c103.1 0 184.189 69.7002 184.189 237.11c0 167.4 -81.0898 237.11 -184.189 237.11
c-103.09 0 -184.189 -69.71 -184.189 -237.11c0 -167.41 81.0996 -237.11 184.189 -237.11z" />
    <glyph glyph-name="Ocircumflex" unicode="&#xd4;" horiz-adv-x="785" 
d="M394.52 850.61h-4.00098l-65.3096 -88.6904h-142.84l138.3 163.6h143.7l138.3 -163.6h-142.84zM392.519 730c208.37 0 357.26 -136.56 357.26 -373c0 -236.45 -148.89 -373 -357.26 -373s-357.26 136.55 -357.26 373c0 236.44 148.89 373 357.26 373zM392.519 119.89
c103.1 0 184.189 69.7002 184.189 237.11c0 167.4 -81.0898 237.11 -184.189 237.11c-103.09 0 -184.189 -69.71 -184.189 -237.11c0 -167.41 81.0996 -237.11 184.189 -237.11z" />
    <glyph glyph-name="Odieresis" unicode="&#xd6;" horiz-adv-x="785" 
d="M215.66 899.52h138.67v-120.65h-138.67v120.65zM430.7 899.52h138.66v-120.65h-138.66v120.65zM392.511 730c208.37 0 357.26 -136.56 357.26 -373c0 -236.45 -148.89 -373 -357.26 -373s-357.26 136.55 -357.26 373c0 236.44 148.89 373 357.26 373zM392.511 119.89
c103.1 0 184.189 69.7002 184.189 237.11c0 167.4 -81.0898 237.11 -184.189 237.11c-103.09 0 -184.189 -69.71 -184.189 -237.11c0 -167.41 81.0996 -237.11 184.189 -237.11z" />
    <glyph glyph-name="Ograve" unicode="&#xd2;" horiz-adv-x="785" 
d="M363.65 931.81l85.3701 -163.59h-113.54l-133.87 163.59h162.04zM392.521 730c208.37 0 357.26 -136.56 357.26 -373c0 -236.45 -148.89 -373 -357.26 -373s-357.26 136.55 -357.26 373c0 236.44 148.89 373 357.26 373zM392.521 119.89
c103.09 0 184.189 69.7002 184.189 237.11c0 167.4 -81.0996 237.11 -184.189 237.11c-103.1 0 -184.189 -69.71 -184.189 -237.11c0 -167.41 81.0898 -237.11 184.189 -237.11z" />
    <glyph glyph-name="Ohungarumlaut" unicode="&#x150;" horiz-adv-x="785" 
d="M349.68 768.22h-100.851l57.6104 163.59h138.37zM536.199 768.22h-100.851l58.1504 163.59h137.83zM392.509 730c208.37 0 357.26 -136.56 357.26 -373c0 -236.45 -148.89 -373 -357.26 -373s-357.26 136.55 -357.26 373c0 236.44 148.89 373 357.26 373zM392.509 119.89
c103.1 0 184.189 69.7002 184.189 237.11c0 167.4 -81.0898 237.11 -184.189 237.11c-103.09 0 -184.189 -69.71 -184.189 -237.11c0 -167.41 81.0996 -237.11 184.189 -237.11z" />
    <glyph glyph-name="Omacron" unicode="&#x14c;" horiz-adv-x="785" 
d="M234.78 794.09v97.3398h315.48v-97.3398h-315.48zM392.521 730c208.37 0 357.26 -136.55 357.26 -373c0 -236.44 -148.89 -373 -357.26 -373s-357.26 136.56 -357.26 373c0 236.45 148.89 373 357.26 373zM392.521 119.89c103.09 0 184.189 69.71 184.189 237.11
c0 167.41 -81.0996 237.11 -184.189 237.11c-103.1 0 -184.189 -69.7002 -184.189 -237.11c0 -167.4 81.0898 -237.11 184.189 -237.11z" />
    <glyph glyph-name="Oslash" unicode="&#xd8;" horiz-adv-x="797" 
d="M753.83 692.63l-78.4502 -90.3379c47.2803 -61.6699 74.3906 -144.38 74.3906 -245.28c0 -236.45 -148.89 -373 -357.26 -373c-78.4502 0 -148.47 19.3496 -205.279 56.1094l-69.5703 -80.1201l-62.3701 57.8398l67.5195 77.8496
c-55.3701 63.0596 -87.5498 151.39 -87.5498 261.31c0 236.45 148.89 373 357.26 373c86.21 0 162.25 -23.3799 221.76 -67.54l77.1797 89zM208.33 357.012c0 -55.1602 8.79883 -99.7197 24.2988 -134.67l282.01 325.22c-32.3096 31.9404 -74.9092 46.5605 -122.119 46.5605
c-103.1 0 -184.189 -69.71 -184.189 -237.11zM576.699 357.002c0 44.4404 -5.71875 81.9893 -16.0391 113.18l-275.16 -316.88c30 -22.8203 66.8301 -33.4102 107.01 -33.4102c103.09 0 184.189 69.71 184.189 237.11z" />
    <glyph glyph-name="Oslashacute" unicode="&#x1fe;" horiz-adv-x="797" 
d="M449.02 768.22h-113.54l85.3701 163.59h162.04zM753.829 692.63l-78.4502 -90.3379c47.2803 -61.6699 74.3906 -144.38 74.3906 -245.28c0 -236.45 -148.89 -373 -357.26 -373c-78.4502 0 -148.47 19.3496 -205.279 56.1094l-69.5703 -80.1201l-62.3701 57.8398
l67.5195 77.8496c-55.3701 63.0596 -87.5498 151.39 -87.5498 261.31c0 236.45 148.89 373 357.26 373c86.21 0 162.25 -23.3799 221.76 -67.54l77.1797 89zM208.329 357.012c0 -55.1602 8.79883 -99.7197 24.2988 -134.67l282.01 325.22
c-32.3096 31.9404 -74.9092 46.5605 -122.119 46.5605c-103.1 0 -184.189 -69.71 -184.189 -237.11zM576.698 357.002c0 44.4404 -5.71875 81.9893 -16.0391 113.18l-275.16 -316.88c30 -22.8203 66.8301 -33.4102 107.01 -33.4102c103.09 0 184.189 69.71 184.189 237.11z
" />
    <glyph glyph-name="Otilde" unicode="&#xd5;" horiz-adv-x="785" 
d="M579.31 901.65l-77.6699 9.08984c-6.54004 -31.7803 -22.0703 -40.7002 -38.0703 -40.7002c-14.54 0 -27.54 7.91992 -41.1504 16.46l-31.2002 19.3701c-16.4697 9.91992 -35 18.6299 -58.8496 18.6299c-65.3496 0 -115.72 -38.5996 -126.649 -130.56l77.6699 -9.09961
c6.53027 31.7803 22.0703 40.71 38.0703 40.71c13.46 0 27.54 -7.92969 41.1504 -16.46l31.2002 -19.3701c15.4697 -9.92969 33.9297 -18.6299 58.8594 -18.6299c65.3496 0 115.72 38.5898 126.64 130.56zM392.51 730c208.37 0 357.26 -136.55 357.26 -373
c0 -236.44 -148.89 -373 -357.26 -373s-357.26 136.56 -357.26 373c0 236.45 148.89 373 357.26 373zM392.51 119.89c103.09 0 184.189 69.71 184.189 237.11c0 167.41 -81.0996 237.11 -184.189 237.11c-103.1 0 -184.189 -69.7002 -184.189 -237.11
c0 -167.4 81.0898 -237.11 184.189 -237.11z" />
    <glyph glyph-name="OE" unicode="&#x152;" horiz-adv-x="1117" 
d="M745.92 574.89v-143.709h315.43v-133.2h-315.43v-158.95h334.5v-139.03h-497.81v77.79h-4c-44.4805 -56.7197 -116.261 -93.79 -219.73 -93.79c-189.24 0 -323.63 136.55 -323.63 373c0 236.44 134.39 373 323.63 373c103.47 0 175.25 -37.0801 219.73 -93.7998h4
v77.2598h497.81v-138.57h-334.5zM395.74 119.891c104.7 0 186.87 69.7002 186.87 237.11c0 167.4 -82.1699 237.11 -186.87 237.11c-105.24 0 -187.41 -69.71 -187.41 -237.11c0 -167.41 82.1699 -237.11 187.41 -237.11z" />
    <glyph glyph-name="P" unicode="P" horiz-adv-x="685" 
d="M55.2598 714h341.61c167.52 0 263.649 -88.54 263.649 -235.43s-96.1299 -235.42 -263.649 -235.42h-171.61v-243.15h-170v714zM225.26 375.28h142.18c78.7402 0 120 38.9502 120 103.3s-41.2598 103.29 -120 103.29h-142.18v-206.59z" />
    <glyph glyph-name="Thorn" unicode="&#xde;" horiz-adv-x="685" 
d="M225.26 594.74l171.61 -0.000976562c167.52 0 263.649 -88.54 263.649 -235.43s-96.1299 -235.42 -263.649 -235.42h-171.61v-123.89h-170v714h170v-119.26zM225.26 256.02h142.18c78.7402 0 120 38.9502 120 103.3s-41.2598 103.29 -120 103.29h-142.18v-206.59z" />
    <glyph glyph-name="Q" unicode="Q" horiz-adv-x="785" 
d="M617.2 -32.9102l-45.0205 64.4092c-49.2402 -31.8701 -110.79 -47.5 -179.66 -47.5c-208.37 0 -357.26 136.55 -357.26 373c0 236.44 148.89 373 357.26 373s357.26 -136.56 357.26 -373c0 -91.8496 -22.4697 -169.17 -64.4697 -226.02l122.74 -163.89h-190.85z
M392.52 119.889c103.09 0 184.189 69.7002 184.189 237.11c0 167.4 -81.0996 237.11 -184.189 237.11c-103.1 0 -184.189 -69.71 -184.189 -237.11c0 -167.41 81.0898 -237.11 184.189 -237.11z" />
    <glyph glyph-name="R" unicode="R" horiz-adv-x="706" 
d="M497.53 0l-143.62 251.001h-128.65v-251h-170v714h357.24c167.52 0 264.649 -87.0801 264.649 -231.5c0 -105.94 -52.2598 -181.021 -146.229 -213.511l164.21 -268.99h-197.6zM225.26 383.131h159.81c78.7402 0 119 37.4805 119 99.3701s-40.2598 99.3701 -119 99.3701
h-159.81v-198.74z" />
    <glyph glyph-name="Racute" unicode="&#x154;" horiz-adv-x="706" 
d="M397.94 767.68h-113.53l85.3701 163.6h162.03zM497.54 -0l-143.63 251.001h-128.65v-251h-170v714h357.24c167.52 0 264.649 -87.0801 264.649 -231.5c0 -105.94 -52.2598 -181.021 -146.22 -213.511l164.2 -268.99h-197.59zM225.26 383.131h159.82
c78.7402 0 119 37.4805 119 99.3701s-40.2598 99.3701 -119 99.3701h-159.82v-198.74z" />
    <glyph glyph-name="Rcaron" unicode="&#x158;" horiz-adv-x="706" 
d="M269.59 762.31l-138.3 163.6h142.83l65.3203 -88.6904h4l65.3096 88.6904h142.84l-138.3 -163.6h-143.7zM497.53 -0.000976562l-143.63 251.001h-128.65v-251h-170v714h357.24c167.52 0 264.649 -87.0801 264.649 -231.5c0 -105.94 -52.2598 -181.021 -146.22 -213.511
l164.2 -268.99h-197.59zM225.25 383.13h159.82c78.7402 0 119 37.4805 119 99.3701s-40.2598 99.3701 -119 99.3701h-159.82v-198.74z" />
    <glyph glyph-name="Rcommaaccent" unicode="&#x156;" horiz-adv-x="706" 
d="M695.13 0l-197.6 0.000976562l-143.62 251h-128.65v-251h-170v714h357.24c167.52 0 264.649 -87.0801 264.649 -231.5c0 -105.94 -52.2598 -181.021 -146.229 -213.511zM225.25 383.131h159.82c78.7402 0 119 37.4805 119 99.3701s-40.2598 99.3701 -119 99.3701h-159.82
v-198.74zM289.48 -58.8496h143.91v-79.4805c0 -111.93 -44.4502 -171.979 -143.91 -177.279v68.5596c33.6602 2.07031 54.1299 25.6807 54.1299 63.8506h-54.1299v124.35z" />
    <glyph glyph-name="S" unicode="S" horiz-adv-x="677" 
d="M623.78 511.09l-164.091 -11.1611c-10.9404 67.5195 -58.2207 105.149 -136.94 105.149c-69.5996 0 -113.779 -33.6504 -113.779 -79.3906c0 -44.3496 39.3301 -59.5195 92.5898 -72.3691l115.02 -28c111.15 -28.0703 228.5 -57.6807 228.5 -223.28
c0 -151.81 -137.89 -218.05 -301.09 -218.05c-175.08 0 -307.021 81.9199 -325.04 237.61l167.92 16.9004c9.09961 -92.1504 77.2295 -127.46 159.119 -127.46c72.3701 0 126.021 30.5703 126.021 84.7803c0 54.5898 -41.5 69.3701 -112.21 87.3701l-109.59 28.2402
c-100.52 26.2197 -208.949 60 -208.949 204.28c0 139.58 124.82 214.28 287.32 214.28c159.61 0 268.79 -76.9199 295.2 -218.9z" />
    <glyph glyph-name="Sacute" unicode="&#x15a;" horiz-adv-x="677" 
d="M385.07 768.22h-113.53l85.3701 163.59h162.03zM623.78 511.09l-164.091 -11.1611c-10.9404 67.5195 -58.2207 105.149 -136.94 105.149c-69.5996 0 -113.779 -33.6504 -113.779 -79.3906c0 -44.3496 39.3301 -59.5195 92.5898 -72.3691l115.02 -28
c111.15 -28.0703 228.5 -57.6807 228.5 -223.28c0 -151.81 -137.89 -218.05 -301.09 -218.05c-175.08 0 -307.021 81.9199 -325.04 237.61l167.92 16.9004c9.09961 -92.1504 77.2295 -127.46 159.119 -127.46c72.3701 0 126.021 30.5703 126.021 84.7803
c0 54.5898 -41.5 69.3701 -112.21 87.3701l-109.59 28.2402c-100.52 26.2197 -208.949 60 -208.949 204.28c0 139.58 124.82 214.28 287.32 214.28c159.61 0 268.79 -76.9199 295.2 -218.9z" />
    <glyph glyph-name="Scaron" unicode="&#x160;" horiz-adv-x="677" 
d="M538.72 926.44l-138.3 -163.59h-143.7l-138.3 163.59h142.84l65.3096 -88.6797h4l65.3203 88.6797h142.83zM623.77 511.091l-164.09 -11.1611c-10.9404 67.5195 -58.2207 105.149 -136.94 105.149c-69.5898 0 -113.78 -33.6504 -113.78 -79.3906
c0 -44.3496 39.3398 -59.5195 92.5996 -72.3691l115.02 -28c111.15 -28.0703 228.5 -57.6807 228.5 -223.28c0 -151.81 -137.89 -218.05 -301.1 -218.05c-175.07 0 -307.021 81.9199 -325.04 237.61l167.93 16.9004c9.08984 -92.1504 77.2197 -127.46 159.109 -127.46
c72.3701 0 126.021 30.5703 126.021 84.7803c0 54.5898 -41.5 69.3701 -112.2 87.3701l-109.6 28.2402c-100.52 26.2197 -208.939 60 -208.939 204.28c0 139.58 124.81 214.28 287.31 214.28c159.61 0 268.801 -76.9199 295.201 -218.9z" />
    <glyph glyph-name="Scedilla" unicode="&#x15e;" horiz-adv-x="677" 
d="M368.65 -33.3896l0.0078125 -5.03125c63.9502 -6.07031 102.48 -34.1504 102.48 -90.7607c0 -68.6104 -54.1504 -102.9 -150.98 -102.9c-40.9697 0 -86.1895 9.15039 -116.869 25.7607l21.2197 65.5898c21.0703 -10.5303 54.9805 -22.75 89.6406 -22.75
c22.2998 0 44.0801 11.0703 44.0801 35.3105c0 24.3203 -21.7803 29.3906 -44.0801 29.3906c-14.46 0 -27.54 -3.53027 -41.6104 -7.53027v64.3701l26 27.46c-156.37 13.0801 -263.04 94 -279.59 236.08l167.92 16.9004c9.09961 -92.1504 77.2295 -127.46 160.189 -127.46
c71.2998 0 124.95 30.5703 124.95 84.7803c0 54.5898 -41.5 69.3701 -112.21 87.3701l-109.59 28.2402c-100.52 26.2197 -208.949 60 -208.949 204.28c0 139.58 124.82 214.28 287.32 214.28c164.98 0 268.79 -76.9199 295.2 -218.9l-164.1 -11.1504
c-10.9404 67.5195 -58.2207 105.149 -136.94 105.149c-69.5996 0 -113.779 -33.6504 -113.779 -79.3906c0 -44.3496 39.3301 -59.5195 92.5898 -72.3691l115.02 -28c111.15 -27.1504 228.5 -57.6807 228.5 -223.28c0 -139.13 -115.05 -205.979 -259.5 -216.51z" />
    <glyph glyph-name="Scircumflex" unicode="&#x15c;" horiz-adv-x="677" 
d="M330.57 850.61h-3.98926l-65.3203 -88.6904h-142.83l138.29 163.6h143.71l138.29 -163.6h-142.83zM623.781 511.091l-164.091 -11.1582c-10.9404 67.5195 -58.2207 105.149 -136.94 105.149c-69.5996 0 -113.779 -33.6504 -113.779 -79.3906
c0 -44.3496 39.3301 -59.5098 92.5898 -72.3594l115.02 -28c111.15 -28.0801 228.5 -57.6904 228.5 -223.28c0 -151.82 -137.89 -218.061 -301.09 -218.061c-175.08 0 -307.021 81.9297 -325.04 237.609l167.92 16.9102c9.09961 -92.1504 77.2295 -127.471 159.119 -127.471
c72.3701 0 126.021 30.5801 126.021 84.7803c0 54.5996 -41.5 69.3799 -112.21 87.3799l-109.59 28.2402c-100.52 26.2197 -208.949 60 -208.949 204.28c0 139.57 124.82 214.28 287.32 214.28c159.61 0 268.79 -76.9297 295.2 -218.91z" />
    <glyph glyph-name="Scommaaccent" unicode="&#x218;" horiz-adv-x="677" 
d="M623.78 511.09l-164.091 -11.1611c-10.9404 67.5195 -58.2207 105.149 -136.94 105.149c-69.5996 0 -113.779 -33.6504 -113.779 -79.3906c0 -44.3496 39.3301 -59.5195 92.5898 -72.3691l115.02 -28c111.15 -28.0703 228.5 -57.6807 228.5 -223.28
c0 -151.81 -137.89 -218.05 -301.09 -218.05c-175.08 0 -307.021 81.9199 -325.04 237.61l167.92 16.9004c9.09961 -92.1504 77.2295 -127.46 159.119 -127.46c72.3701 0 126.021 30.5703 126.021 84.7803c0 54.5898 -41.5 69.3701 -112.21 87.3701l-109.59 28.2402
c-100.52 26.2197 -208.949 60 -208.949 204.28c0 139.58 124.82 214.28 287.32 214.28c159.61 0 268.79 -76.9199 295.2 -218.9zM415.709 -58.8711v-79.4805c0 -111.92 -44.4404 -171.979 -143.91 -177.27v68.5498c33.6699 2.08008 54.1299 25.6904 54.1299 63.8506
h-54.1299v124.35h143.91z" />
    <glyph glyph-name="T" unicode="T" horiz-adv-x="671" 
d="M647 572.42h-226.649v-572.42h-170v572.42h-226.65v141.58h623.3v-141.58z" />
    <glyph glyph-name="Tbar" unicode="&#x166;" horiz-adv-x="691" 
d="M430.35 572.42l0.000976562 -183.09h98.5596v-103.72h-98.5596v-285.61h-170v285.61h-98.5498v103.72h98.5498v183.09h-236.65v141.58h643.3v-141.58h-236.65z" />
    <glyph glyph-name="Tcaron" unicode="&#x164;" horiz-adv-x="671" 
d="M545.5 926.44l-138.3 -163.59h-143.71l-138.29 163.59h142.83l65.3203 -88.6797h4l65.3096 88.6797h142.84zM646.99 572.421h-226.64v-572.42h-170v572.42h-226.65v141.58h623.29v-141.58z" />
    <glyph glyph-name="Tcedilla" unicode="&#x162;" horiz-adv-x="691" 
d="M367.09 -33.3896l0.0205078 -5.00977c63.9404 -6.08008 102.48 -34.1504 102.48 -90.7607c0 -68.6104 -54.1504 -102.91 -150.99 -102.91c-40.96 0 -86.1797 9.15039 -116.87 25.7607l21.2197 65.5996c21.0801 -10.54 54.9805 -22.7598 89.6504 -22.7598
c22.29 0 44.0703 11.0801 44.0703 35.3203c0 24.3096 -21.7803 29.3896 -44.0703 29.3896c-14.4697 0 -27.54 -3.54004 -41.6201 -7.54004v64.3701l39.4697 41.9297h-50.0996v572.42h-236.65v141.58h643.3v-141.58h-236.65v-572.42h-32.8701z" />
    <glyph glyph-name="uni021A" unicode="&#x21a;" horiz-adv-x="671" 
d="M647 572.42h-226.649v-572.42h-170v572.42h-226.65v141.58h623.3v-141.58zM407.07 -58.8604l0.00976562 -79.4805c0 -111.92 -44.4502 -171.979 -143.91 -177.27v68.5498c33.6602 2.08008 54.1299 25.6904 54.1299 63.8506h-54.1299v124.35h143.9z" />
    <glyph glyph-name="U" unicode="U" horiz-adv-x="737" 
d="M681.59 714v-451c0 -188.84 -135.2 -279 -313.17 -279c-177.96 0 -313.17 90.1602 -313.17 279v451h170v-435.17c0 -109.85 50.5801 -158.01 143.17 -158.01c92.5996 0 143.17 48.1602 143.17 158.01v435.17h170z" />
    <glyph glyph-name="Uacute" unicode="&#xda;" horiz-adv-x="737" 
d="M424.92 767.68h-113.53l85.3701 163.6h162.03zM681.59 714v-451c0 -188.84 -135.2 -279 -313.17 -279c-177.96 0 -313.17 90.1602 -313.17 279v451h170v-435.17c0 -109.85 50.5801 -158.01 143.17 -158.01c92.5996 0 143.17 48.1602 143.17 158.01v435.17h170z" />
    <glyph glyph-name="Ubreve" unicode="&#x16c;" horiz-adv-x="737" 
d="M449.74 926.98h104.239c-3.83008 -108.13 -90.3496 -167.6 -185.55 -167.6c-95.6699 0 -181.72 59.4697 -185.56 167.6h104.24c6.54004 -46.1904 41.0205 -70.8008 81.3105 -70.8008c39.7598 0 74.7793 24.6104 81.3193 70.8008zM681.59 714v-451
c0 -188.84 -135.2 -279 -313.17 -279c-177.96 0 -313.17 90.1602 -313.17 279v451h170v-435.17c0 -109.85 50.5801 -158.01 143.17 -158.01c92.5996 0 143.17 48.1602 143.17 158.01v435.17h170z" />
    <glyph glyph-name="Ucircumflex" unicode="&#xdb;" horiz-adv-x="737" 
d="M370.42 850.07h-3.98926l-65.3203 -88.6797h-142.83l138.29 163.59h143.71l138.29 -163.59h-142.83zM681.591 714v-451c0 -188.84 -135.2 -279 -313.17 -279c-177.96 0 -313.17 90.1602 -313.17 279v451h170v-435.17c0 -109.85 50.5801 -158.01 143.17 -158.01
c92.5996 0 143.17 48.1602 143.17 158.01v435.17h170z" />
    <glyph glyph-name="Udieresis" unicode="&#xdc;" horiz-adv-x="737" 
d="M191.57 898.98h138.67v-120.65h-138.67v120.65zM406.61 898.98h138.66v-120.65h-138.66v120.65zM681.591 714v-451c0 -188.84 -135.21 -279 -313.17 -279c-177.97 0 -313.17 90.1602 -313.17 279v451h170v-435.17c0 -109.85 50.5703 -158.01 143.17 -158.01
c92.5898 0 143.17 48.1602 143.17 158.01v435.17h170z" />
    <glyph glyph-name="Ugrave" unicode="&#xd9;" horiz-adv-x="737" 
d="M339.55 931.28l85.3701 -163.6h-113.53l-133.87 163.6h162.03zM681.59 714.001v-451c0 -188.84 -135.21 -279 -313.17 -279c-177.97 0 -313.17 90.1602 -313.17 279v451h170v-435.17c0 -109.85 50.5703 -158.01 143.17 -158.01c92.5898 0 143.17 48.1602 143.17 158.01
v435.17h170z" />
    <glyph glyph-name="Uhungarumlaut" unicode="&#x170;" horiz-adv-x="737" 
d="M325.59 767.68h-100.851l57.6104 163.6h138.37zM512.109 767.68h-100.851l58.1504 163.6h137.83zM681.589 714v-451c0 -188.84 -135.21 -279 -313.17 -279c-177.97 0 -313.17 90.1602 -313.17 279v451h170v-435.17c0 -109.85 50.5703 -158.01 143.17 -158.01
c92.5898 0 143.17 48.1602 143.17 158.01v435.17h170z" />
    <glyph glyph-name="Umacron" unicode="&#x16a;" horiz-adv-x="737" 
d="M210.68 793.55v97.3398h315.48v-97.3398h-315.48zM681.59 714v-451c0 -188.84 -135.21 -279 -313.17 -279c-177.97 0 -313.17 90.1602 -313.17 279v451h170v-435.17c0 -109.85 50.5703 -158.01 143.17 -158.01c92.5898 0 143.17 48.1602 143.17 158.01v435.17h170z" />
    <glyph glyph-name="Uogonek" unicode="&#x172;" horiz-adv-x="737" 
d="M681.59 714l-0.0185547 -451.002c0 -125.93 -59.54 -207.779 -152.15 -248.779c-79.1797 -34.5195 -128.66 -78.8291 -128.66 -119.479c0 -25.2402 25.5303 -37.71 51.1602 -37.71c18.8398 0 39.0596 2 55.5195 7.46973v-89.0195
c-20.2197 -5.54004 -44.75 -7.54004 -74.9697 -7.54004c-93.6299 0 -146.78 36.1504 -146.78 103.37c0 45.6904 24.3896 85.6904 64.54 113.221c-169.37 5.83984 -294.98 96 -294.98 278.47v451h170v-435.17c0 -109.85 50.5703 -158.01 143.17 -158.01
c92.5898 0 143.17 48.1602 143.17 158.01v435.17h170z" />
    <glyph glyph-name="Uring" unicode="&#x16e;" horiz-adv-x="737" 
d="M368.89 750.31c-67.7598 0 -120.52 50.1504 -120.52 116.521s52.7598 116.521 120.52 116.521c66.3701 0 119.59 -50.1504 119.59 -116.521s-53.2197 -116.521 -119.59 -116.521zM368.89 814.29c27.5303 0 49.5303 21 49.5303 52.54
c0 31.5303 -22 52.5303 -49.5303 52.5303c-28.9297 0 -50.46 -21 -50.46 -52.5303c0 -31.54 21.5303 -52.54 50.46 -52.54zM681.59 714v-451c0 -188.84 -135.2 -279 -313.17 -279c-177.96 0 -313.17 90.1602 -313.17 279v451h170v-435.17
c0 -109.85 50.5801 -158.01 143.17 -158.01c92.5996 0 143.17 48.1602 143.17 158.01v435.17h170z" />
    <glyph glyph-name="Utilde" unicode="&#x168;" horiz-adv-x="737" 
d="M555.22 901.11l-77.6699 9.08984c-6.54004 -31.7803 -22.0703 -40.7002 -38.0703 -40.7002c-14.54 0 -27.54 7.91992 -41.1504 16.46l-31.2002 19.3701c-16.4697 9.91992 -35 18.6299 -58.8496 18.6299c-65.3496 0 -115.72 -38.5996 -126.649 -130.56l77.6699 -9.09961
c6.53027 31.7803 22.0703 40.71 38.0703 40.71c13.46 0 27.54 -7.92969 41.1504 -16.46l31.2002 -19.3701c15.4697 -9.92969 33.9297 -18.6299 58.8594 -18.6299c65.3496 0 115.72 38.5898 126.64 130.56zM681.58 714v-451c0 -188.84 -135.2 -279 -313.17 -279
c-177.96 0 -313.17 90.1602 -313.17 279v451h170v-435.17c0 -109.85 50.5801 -158.01 143.17 -158.01c92.5996 0 143.17 48.1602 143.17 158.01v435.17h170z" />
    <glyph glyph-name="V" unicode="V" horiz-adv-x="721" 
d="M716.05 714l-254.88 -714h-203.1l-253.28 714h181.08l173.63 -537.67h4l173.55 537.67h179z" />
    <glyph glyph-name="W" unicode="W" horiz-adv-x="967" 
d="M580.29 0l-95.2607 499.29h-4l-93.2598 -499.29h-210.63l-165.35 714h173.54l101.53 -517.6h4l95.8701 517.6h190.6l95.8701 -517.6h4l102 517.6h176.15l-166.28 -714h-208.78z" />
    <glyph glyph-name="Wacute" unicode="&#x1e82;" horiz-adv-x="967" 
d="M538.54 768.22h-113.54l85.3701 163.59h162.04zM580.3 -0l-95.2617 499.29h-4l-93.2598 -499.29h-210.63l-165.35 714h173.53l101.54 -517.6h4l95.8701 517.6h190.59l95.8701 -517.6h4l102 517.6h176.15l-166.28 -714h-208.77z" />
    <glyph glyph-name="Wcircumflex" unicode="&#x174;" horiz-adv-x="967" 
d="M484.04 850.61h-4.00098l-65.3096 -88.6904h-142.84l138.3 163.6h143.7l138.3 -163.6h-142.84zM580.299 0l-95.2607 499.29h-4l-93.2598 -499.29h-210.63l-165.35 714h173.54l101.53 -517.6h4l95.8701 517.6h190.6l95.8701 -517.6h4l102 517.6h176.15l-166.28 -714
h-208.78z" />
    <glyph glyph-name="Wdieresis" unicode="&#x1e84;" horiz-adv-x="967" 
d="M305.18 899.52h138.67v-120.65h-138.67v120.65zM520.22 899.52h138.66v-120.65h-138.66v120.65zM580.29 -0l-95.2617 499.29h-4l-93.2598 -499.29h-210.63l-165.35 714h173.53l101.54 -517.6h4l95.8701 517.6h190.59l95.8701 -517.6h4l102 517.6h176.15l-166.28 -714
h-208.77z" />
    <glyph glyph-name="Wgrave" unicode="&#x1e80;" horiz-adv-x="967" 
d="M453.16 931.81l85.3701 -163.59h-113.53l-133.87 163.59h162.03zM580.29 -0l-95.2607 499.29h-4l-93.2598 -499.29h-210.63l-165.35 714h173.54l101.53 -517.6h4l95.8701 517.6h190.6l95.8701 -517.6h4l102 517.6h176.15l-166.28 -714h-208.78z" />
    <glyph glyph-name="X" unicode="X" horiz-adv-x="684" 
d="M482.59 0l-143.471 246.4l-143.02 -246.4h-186.84l235.02 370.61l-217.02 343.39h191.91l125.02 -218.65l126.4 218.65h186.37l-217.94 -342l235.94 -372h-192.37z" />
    <glyph glyph-name="Y" unicode="Y" horiz-adv-x="697" 
d="M689.57 714l-256.31 -444.21v-269.79h-170v269.33l-256.32 444.67h186.37l156.48 -297.04l157.02 297.04h182.76z" />
    <glyph glyph-name="Yacute" unicode="&#xdd;" horiz-adv-x="697" 
d="M406.83 768.22h-113.53l85.3701 163.59h162.03zM689.569 714l-256.31 -444.21v-269.79h-170v269.33l-256.32 444.67h186.37l156.48 -297.04l157.02 297.04h182.76z" />
    <glyph glyph-name="Ycircumflex" unicode="&#x176;" horiz-adv-x="697" 
d="M352.33 850.61h-3.98926l-65.3203 -88.6904h-142.83l138.29 163.6h143.71l138.29 -163.6h-142.83zM689.581 714l-256.32 -444.21v-269.79h-170v269.33l-256.31 444.67h186.37l156.48 -297.04l157.02 297.04h182.76z" />
    <glyph glyph-name="Ydieresis" unicode="&#x178;" horiz-adv-x="697" 
d="M173.48 899.52h138.66v-120.65h-138.66v120.65zM388.511 899.52h138.67v-120.65h-138.67v120.65zM689.57 714l-256.32 -444.21v-269.79h-170v269.33l-256.31 444.67h186.37l156.48 -297.04l157.02 297.04h182.76z" />
    <glyph glyph-name="Ygrave" unicode="&#x1ef2;" horiz-adv-x="697" 
d="M321.46 931.81l85.3701 -163.59h-113.53l-133.87 163.59h162.03zM689.57 714l-256.31 -444.21v-269.79h-170v269.33l-256.32 444.67h186.37l156.48 -297.04l157.02 297.04h182.76z" />
    <glyph glyph-name="Z" unicode="Z" horiz-adv-x="644" 
d="M251.02 141.57h361.57v-141.57h-583.81v141.57l363.5 430.85h-341.65v141.58h562.96v-141.58z" />
    <glyph glyph-name="Zacute" unicode="&#x179;" horiz-adv-x="644" 
d="M388.61 768.22h-113.54l85.3701 163.59h162.04zM251.021 141.569h361.57v-141.58h-583.81v141.58l363.5 430.85h-341.65v141.57h562.96v-141.57z" />
    <glyph glyph-name="Zcaron" unicode="&#x17d;" horiz-adv-x="644" 
d="M542.26 926.44l-138.3 -163.59h-143.71l-138.29 163.59h142.83l65.3203 -88.6797h4l65.3096 88.6797h142.84zM251.01 141.57h361.581v-141.57h-583.82v141.57l363.5 430.85h-341.65v141.58h562.97v-141.58z" />
    <glyph glyph-name="Zdotaccent" unicode="&#x17b;" horiz-adv-x="644" 
d="M252.72 903.22h158.78v-124.35h-158.78v124.35zM251.02 141.569h361.581v-141.58h-583.82v141.58l363.5 430.85h-341.65v141.57h562.97v-141.57z" />
    <glyph glyph-name="a" unicode="a" horiz-adv-x="578" 
d="M546.79 0l-157.381 0.00878906c-9.61035 11.1504 -14.9307 38.7607 -14.9307 75.3711c-28.5498 -56.3896 -97.8896 -87.9092 -173.779 -87.9092c-91.7803 0 -177.15 57.8496 -177.15 156.39c0 113.46 79.2402 156.54 216.95 173.76
c106.44 13.7598 133.521 28 133.521 58.8496c0 36.3301 -28.3896 58.1299 -83.1494 58.1299c-45.9502 0 -83.9102 -24.8496 -99.1504 -73.5l-147.63 18.2402c23.5303 103.13 119.05 163.35 250.24 163.35c162.59 0 238.46 -69.2402 238.46 -176.58v-263.31
c0 -53.0996 1 -82.5596 14 -102.8zM374.02 204.789l-0.000976562 50.6494c-17 -12.0898 -55.9102 -18.4102 -103.17 -25.9404c-49.0898 -8.08008 -85.4395 -31.3896 -85.4395 -75.4297c0 -39.2598 27.5498 -62.5693 70.2002 -62.5693
c49.6699 0 118.41 31.4805 118.41 113.29z" />
    <glyph glyph-name="aacute" unicode="&#xe1;" horiz-adv-x="578" 
d="M350.83 589h-113.54l85.3701 163.6h162.04zM546.79 0l-157.381 0.00878906c-9.61035 11.1504 -14.9307 38.7607 -14.9307 75.3711c-28.5498 -56.3896 -97.8896 -87.9092 -173.779 -87.9092c-91.7803 0 -177.15 57.8496 -177.15 156.39
c0 113.46 79.2402 156.54 216.95 173.76c106.44 13.7598 133.521 28 133.521 58.8496c0 36.3301 -28.3896 58.1299 -83.1494 58.1299c-45.9502 0 -83.9102 -24.8496 -99.1504 -73.5l-147.63 18.2402c23.5303 103.13 119.05 163.35 250.24 163.35
c162.59 0 238.46 -69.2402 238.46 -176.58v-263.31c0 -53.0996 1 -82.5596 14 -102.8zM374.02 204.789l-0.000976562 50.6494c-17 -12.0898 -55.9102 -18.4102 -103.17 -25.9404c-49.0898 -8.08008 -85.4395 -31.3896 -85.4395 -75.4297
c0 -39.2598 27.5498 -62.5693 70.2002 -62.5693c49.6699 0 118.41 31.4805 118.41 113.29z" />
    <glyph glyph-name="abreve" unicode="&#x103;" horiz-adv-x="578" 
d="M375.64 753.67h104.249c-3.83008 -108.13 -90.3496 -167.6 -185.56 -167.6c-95.6602 0 -181.72 59.4697 -185.55 167.6h104.24c6.53027 -46.1904 41.0107 -70.8008 81.3105 -70.8008c39.7598 0 74.7793 24.6104 81.3096 70.8008zM546.799 -0l-157.391 0.00878906
c-9.61035 11.1504 -14.9199 38.7607 -14.9199 75.3711c-28.5596 -56.3896 -97.8896 -87.9092 -173.779 -87.9092c-91.7803 0 -177.15 57.8496 -177.15 156.39c0 113.46 79.2402 156.54 216.94 173.76c106.45 13.7598 133.521 28 133.521 58.8496
c0 36.3301 -28.3896 58.1299 -83.1494 58.1299c-45.9404 0 -83.9102 -24.8496 -99.1504 -73.5l-147.63 18.2402c23.54 103.13 119.06 163.35 250.239 163.35c162.6 0 238.47 -69.2402 238.47 -176.58v-263.31c0 -53.0996 1 -82.5596 14 -102.8zM374.019 204.789
l-0.000976562 50.6494c-17 -12.0898 -55.9004 -18.4102 -103.16 -25.9404c-49.0996 -8.08008 -85.4492 -31.3896 -85.4492 -75.4297c0 -39.2598 27.5596 -62.5693 70.21 -62.5693c49.6602 0 118.4 31.4805 118.4 113.29z" />
    <glyph glyph-name="acircumflex" unicode="&#xe2;" horiz-adv-x="578" 
d="M296.33 677.69h-4.00098l-65.3096 -88.6904h-142.84l138.3 163.6h143.7l138.3 -163.6h-142.84zM546.799 0l-157.391 0.00878906c-9.61035 11.1504 -14.9199 38.7607 -14.9199 75.3711c-28.5596 -56.3896 -97.8896 -87.9092 -173.779 -87.9092
c-91.7803 0 -177.15 57.8496 -177.15 156.39c0 113.46 79.2402 156.54 216.94 173.76c106.45 13.7598 133.521 28 133.521 58.8496c0 36.3301 -28.3896 58.1299 -83.1494 58.1299c-45.9404 0 -83.9102 -24.8496 -99.1504 -73.5l-147.63 18.2402
c23.54 103.13 119.06 163.35 250.239 163.35c162.6 0 238.47 -69.2402 238.47 -176.58v-263.31c0 -53.0996 1 -82.5596 14 -102.8zM374.019 204.789l-0.000976562 50.6494c-17 -12.0898 -55.9004 -18.4102 -103.16 -25.9404
c-49.0996 -8.08008 -85.4492 -31.3896 -85.4492 -75.4297c0 -39.2598 27.5596 -62.5693 70.21 -62.5693c49.6602 0 118.4 31.4805 118.4 113.29z" />
    <glyph glyph-name="adieresis" unicode="&#xe4;" horiz-adv-x="578" 
d="M117.48 720.3h138.66v-120.65h-138.66v120.65zM332.511 720.3h138.67v-120.65h-138.67v120.65zM546.791 -0l-157.391 0.00878906c-9.61035 11.1504 -14.9199 38.7607 -14.9199 75.3711c-28.5596 -56.3896 -97.8896 -87.9092 -173.779 -87.9092
c-91.7803 0 -177.15 57.8496 -177.15 156.39c0 113.46 79.2402 156.54 216.94 173.76c106.45 13.7598 133.521 28 133.521 58.8496c0 36.3301 -28.3896 58.1299 -83.1494 58.1299c-45.9404 0 -83.9102 -24.8496 -99.1504 -73.5l-147.63 18.2402
c23.54 103.13 119.06 163.35 250.239 163.35c162.6 0 238.47 -69.2402 238.47 -176.58v-263.31c0 -53.0996 1 -82.5596 14 -102.8zM374.011 204.789l-0.000976562 50.6494c-17 -12.0898 -55.9004 -18.4102 -103.16 -25.9404
c-49.0996 -8.08008 -85.4492 -31.3896 -85.4492 -75.4297c0 -39.2598 27.5596 -62.5693 70.21 -62.5693c49.6602 0 118.4 31.4805 118.4 113.29z" />
    <glyph glyph-name="agrave" unicode="&#xe0;" horiz-adv-x="578" 
d="M265.46 752.59l85.3701 -163.59h-113.54l-133.87 163.59h162.04zM546.79 -0.00976562l-157.381 0.0195312c-9.61035 11.1504 -14.9307 38.7607 -14.9307 75.3711c-28.5498 -56.3896 -97.8896 -87.9092 -173.779 -87.9092c-91.7803 0 -177.15 57.8496 -177.15 156.38
c0 113.47 79.2402 156.54 216.95 173.76c106.44 13.7598 133.521 28 133.521 58.8496c0 36.3398 -28.3896 58.1299 -83.1494 58.1299c-45.9502 0 -83.9102 -24.8496 -99.1504 -73.5l-147.63 18.2402c23.5303 103.13 119.05 163.35 250.24 163.35
c162.59 0 238.46 -69.2402 238.46 -176.57v-263.32c0 -53.0898 1 -82.5596 14 -102.8zM374.02 204.79l-0.000976562 50.6396c-17 -12.0898 -55.9102 -18.3994 -103.17 -25.9395c-49.0898 -8.07031 -85.4395 -31.3906 -85.4395 -75.4209
c0 -39.2598 27.5498 -62.5801 70.2002 -62.5801c49.6699 0 118.41 31.4805 118.41 113.301z" />
    <glyph glyph-name="amacron" unicode="&#x101;" horiz-adv-x="578" 
d="M136.59 625.61v97.3398h315.48v-97.3398h-315.48zM546.79 0l-157.381 0.0195312c-9.61035 11.1504 -14.9307 38.7607 -14.9307 75.3711c-28.5498 -56.3896 -97.8896 -87.9092 -173.779 -87.9092c-91.7803 0 -177.15 57.8496 -177.15 156.38
c0 113.47 79.2402 156.54 216.95 173.76c106.44 13.7598 133.521 28 133.521 58.8496c0 36.3398 -28.3896 58.1299 -83.1494 58.1299c-45.9502 0 -83.9102 -24.8496 -99.1504 -73.5l-147.63 18.2402c23.5303 103.13 119.05 163.35 250.24 163.35
c162.59 0 238.46 -69.2402 238.46 -176.57v-263.32c0 -53.0898 1 -82.5596 14 -102.8zM374.02 204.8l-0.000976562 50.6396c-17 -12.0898 -55.9102 -18.3994 -103.17 -25.9395c-49.0898 -8.07031 -85.4395 -31.3906 -85.4395 -75.4209
c0 -39.2598 27.5498 -62.5801 70.2002 -62.5801c49.6699 0 118.41 31.4805 118.41 113.301z" />
    <glyph glyph-name="aogonek" unicode="&#x105;" horiz-adv-x="578" 
d="M503.59 -142.97c18.8301 0.00976562 39.0605 2.01953 55.5205 7.47949v-89.0195c-20.2197 -5.53027 -44.75 -7.53027 -74.9697 -7.53027c-93.6299 0 -146.78 36.1504 -146.78 103.37c0 54.6797 35.3096 101.609 90.5293 128.68h-38.4805
c-9.61035 11.1504 -14.9199 38.7607 -14.9199 75.3711c-28.5596 -56.3896 -97.8896 -87.9092 -173.779 -87.9092c-91.7803 0 -177.15 57.8496 -177.15 156.39c0 113.46 79.2402 156.54 216.94 173.76c106.45 13.7598 133.521 28 133.521 58.8496
c0 36.3301 -28.3896 58.1299 -83.1494 58.1299c-45.9404 0 -83.9102 -24.8496 -99.1504 -73.5l-147.63 18.2402c23.54 103.13 119.06 163.35 250.239 163.35c162.6 0 238.47 -69.2402 238.47 -176.58v-263.31c0 -53.0996 1 -82.5596 14 -102.8
c-67.54 -37.2402 -94.3701 -75.5605 -94.3701 -105.261c0 -25.2402 25.5303 -37.71 51.1602 -37.71zM374.021 204.79l-0.000976562 50.6494c-17 -12.0996 -55.9004 -18.4092 -103.16 -25.9492c-49.0996 -8.07031 -85.4492 -31.3906 -85.4492 -75.4209
c0 -39.2598 27.5596 -62.5801 70.21 -62.5801c49.6602 0 118.4 31.4805 118.4 113.301z" />
    <glyph glyph-name="aring" unicode="&#xe5;" horiz-adv-x="578" 
d="M294.79 587c-67.7598 0 -120.52 50.1504 -120.52 116.521s52.7598 116.521 120.52 116.521c66.3701 0 119.59 -50.1504 119.59 -116.521s-53.2197 -116.521 -119.59 -116.521zM294.79 650.98c27.54 0 49.54 21 49.54 52.54c0 31.5303 -22 52.5303 -49.54 52.5303
c-28.9199 0 -50.46 -21 -50.46 -52.5303c0 -31.54 21.54 -52.54 50.46 -52.54zM546.79 0l-157.381 0.00878906c-9.61035 11.1504 -14.9307 38.7607 -14.9307 75.3711c-28.5498 -56.3896 -97.8896 -87.9092 -173.779 -87.9092c-91.7803 0 -177.15 57.8496 -177.15 156.39
c0 113.46 79.2402 156.54 216.95 173.76c106.44 13.7598 133.521 28 133.521 58.8496c0 36.3301 -28.3896 58.1299 -83.1494 58.1299c-45.9502 0 -83.9102 -24.8496 -99.1504 -73.5l-147.63 18.2402c23.5303 103.13 119.05 163.35 250.24 163.35
c162.59 0 238.46 -69.2402 238.46 -176.58v-263.31c0 -53.0996 1 -82.5596 14 -102.8zM374.02 204.789l-0.000976562 50.6494c-17 -12.0898 -55.9102 -18.4102 -103.17 -25.9404c-49.0898 -8.08008 -85.4395 -31.3896 -85.4395 -75.4297
c0 -39.2598 27.5498 -62.5693 70.2002 -62.5693c49.6699 0 118.41 31.4805 118.41 113.29z" />
    <glyph glyph-name="atilde" unicode="&#xe3;" horiz-adv-x="578" 
d="M481.13 737.8l-77.6797 9.08984c-6.53027 -31.7803 -22.0703 -40.7002 -38.0703 -40.7002c-14.5303 0 -27.5303 7.91992 -41.1406 16.46l-31.21 19.3701c-16.46 9.91992 -35 18.6299 -58.8496 18.6299c-65.3496 0 -115.72 -38.5996 -126.64 -130.56l77.6602 -9.09961
c6.54004 31.7803 22.0703 40.71 38.0703 40.71c13.4697 0 27.54 -7.92969 41.1504 -16.46l31.21 -19.3701c15.46 -9.92969 33.9297 -18.6299 58.8496 -18.6299c65.3496 0 115.72 38.5898 126.649 130.56zM546.79 -0l-157.391 0.0195312
c-9.61035 11.1504 -14.9199 38.7607 -14.9199 75.3711c-28.5596 -56.3896 -97.8896 -87.9092 -173.779 -87.9092c-91.7803 0 -177.15 57.8496 -177.15 156.38c0 113.47 79.2402 156.54 216.94 173.76c106.45 13.7598 133.521 28 133.521 58.8496
c0 36.3398 -28.3896 58.1299 -83.1494 58.1299c-45.9404 0 -83.9102 -24.8496 -99.1504 -73.5l-147.63 18.2402c23.54 103.13 119.06 163.35 250.239 163.35c162.6 0 238.47 -69.2402 238.47 -176.57v-263.32c0 -53.0898 1 -82.5596 14 -102.8zM374.01 204.8
l-0.000976562 50.6396c-17 -12.0898 -55.9004 -18.3994 -103.16 -25.9395c-49.0996 -8.07031 -85.4492 -31.3906 -85.4492 -75.4209c0 -39.2598 27.5596 -62.5801 70.21 -62.5801c49.6602 0 118.4 31.4805 118.4 113.301z" />
    <glyph glyph-name="ae" unicode="&#xe6;" horiz-adv-x="948" 
d="M647.26 542.68c172.26 0 285.089 -107.161 272.159 -310.121h-382.94c1.38965 -83.7197 44.6494 -138 111.239 -138c68.9805 0 95.3906 41.8896 104.091 75.1299l162.47 -10.8496c-19.1699 -74.3896 -92.8301 -171.37 -266.55 -171.37
c-89.1504 0 -158.23 37.2402 -200.841 101.48c-37.3096 -67.2598 -119.869 -101.479 -219.679 -101.479c-118.28 0 -203.65 57.8496 -203.65 156.38c0 113.47 79.2402 156.54 216.94 173.76c106.45 13.7598 133.521 28 133.521 58.8496
c0 36.3398 -28.3896 58.1299 -83.1494 58.1299c-45.9404 0 -83.9102 -24.8496 -99.1504 -73.5l-147.63 18.2402c23.54 103.13 119.06 163.35 250.239 163.35c89.4805 0 151.24 -22.0195 189.3 -58.5693c40.5303 37.9404 95.8506 58.5703 163.631 58.5703zM537.939 328.738
h219.02c-3.70996 61.7998 -42.2598 109.54 -109.71 109.54c-67.0498 0 -105.609 -47.7402 -109.31 -109.54zM374.009 204.778l-0.000976562 50.6494c-17 -12.0996 -55.9004 -18.4092 -103.16 -25.9492c-49.0996 -8.07031 -85.4492 -31.3906 -85.4492 -75.4209
c0 -39.2598 27.5596 -62.5801 70.21 -62.5801c49.6602 0 118.4 31.4805 118.4 113.301z" />
    <glyph glyph-name="b" unicode="b" horiz-adv-x="624" 
d="M371.11 542.68c128.18 0 225.49 -106.249 225.49 -278.149c0 -171.37 -97.3203 -277.08 -229.261 -277.08c-66.4102 0 -128.021 22.9502 -161.921 82.7598h-4v-70.2197h-152.17v724h158.78v-256.53h4c30.6904 46.7598 83.9307 75.2197 159.081 75.2197zM317.12 106.361
c71.5195 0 117.63 50.9805 117.63 158.16c0 107.72 -46.1104 158.7 -117.63 158.7c-70.5195 0 -117.17 -50.9805 -117.17 -158.7c0 -107.18 46.6504 -158.16 117.17 -158.16z" />
    <glyph glyph-name="c" unicode="c" horiz-adv-x="585" 
d="M299.96 103.15c66.0703 0 93.8525 47.9004 105.393 97.4199l161.39 -16.5303c-23.2197 -95.4805 -95.2002 -196.58 -266.78 -196.58c-170.33 0 -272.55 105.71 -272.55 277.08c0 171.9 102.22 278.141 272.55 278.141c171.72 0 239.319 -102.85 260.079 -175.699
l-156.61 -29.3096c-12.0801 41.7402 -39.3203 88.79 -103.471 88.79c-67.0498 0 -110.7 -50.9805 -110.7 -161.921c0 -110.95 43.6504 -161.391 110.7 -161.391z" />
    <glyph glyph-name="cacute" unicode="&#x107;" horiz-adv-x="585" 
d="M356.46 588.99h-113.54l85.3701 163.6h162.04zM299.96 103.141c66.0703 0 93.8525 47.9111 105.393 97.4307l161.39 -16.54c-23.2197 -95.4805 -95.2002 -196.57 -266.78 -196.57c-170.33 0 -272.55 105.7 -272.55 277.07c0 171.91 102.22 278.15 272.55 278.15
c171.72 0 239.319 -102.85 260.079 -175.699l-156.61 -29.3203c-12.0801 41.7402 -39.3203 88.7998 -103.471 88.7998c-67.0498 0 -110.7 -50.9805 -110.7 -161.931c0 -110.94 43.6504 -161.391 110.7 -161.391z" />
    <glyph glyph-name="ccaron" unicode="&#x10d;" horiz-adv-x="585" 
d="M510.11 752.59l-138.3 -163.6h-143.71l-138.29 163.6h142.83l65.3203 -88.6904h4l65.3096 88.6904h142.84zM299.961 103.141c66.0801 0 93.8525 47.9111 105.383 97.4307l161.39 -16.54c-23.2197 -95.4805 -95.2002 -196.57 -266.771 -196.57
c-170.34 0 -272.56 105.7 -272.56 277.07c0 171.91 102.22 278.15 272.56 278.15c171.72 0 239.31 -102.85 260.069 -175.699l-156.61 -29.3203c-12.0703 41.7402 -39.3105 88.7998 -103.461 88.7998c-67.0596 0 -110.71 -50.9805 -110.71 -161.931
c0 -110.94 43.6504 -161.391 110.71 -161.391z" />
    <glyph glyph-name="ccedilla" unicode="&#xe7;" horiz-adv-x="585" 
d="M329.09 -33.3896l0.0117188 -5.01074c63.9502 -6.07031 102.48 -34.1504 102.48 -90.7607c0 -68.6104 -54.1504 -102.9 -150.98 -102.9c-40.9697 0 -86.1895 9.15039 -116.869 25.7607l21.2197 65.5898c21.0703 -10.5303 54.9805 -22.75 89.6406 -22.75
c22.2998 0 44.0801 11.0703 44.0801 35.3105c0 24.3203 -21.7803 29.3906 -44.0801 29.3906c-14.46 0 -27.54 -3.53027 -41.6104 -7.53027v64.3701l29.46 30.9199c-147.96 14.54 -235.04 116.78 -235.04 275.54c0 171.9 102.22 278.141 272.56 278.141
c171.72 0 239.31 -102.85 260.069 -175.699l-156.61 -29.3096c-12.0703 41.7402 -39.3105 88.79 -103.461 88.79c-67.0596 0 -110.71 -50.9805 -110.71 -161.921c0 -110.95 43.6504 -161.391 110.71 -161.391c66.0703 0 93.8506 47.9004 105.391 97.4199l161.39 -16.5303
c-20.6904 -85.2598 -80.5205 -175.58 -215.801 -193.58z" />
    <glyph glyph-name="ccircumflex" unicode="&#x109;" horiz-adv-x="585" 
d="M301.96 677.68h-4.00098l-65.3096 -88.6797h-142.84l138.3 163.59h143.7l138.3 -163.59h-142.84zM299.959 103.149c66.0703 0 93.8525 47.9004 105.393 97.4199l161.39 -16.5303c-23.2197 -95.4805 -95.2002 -196.58 -266.78 -196.58
c-170.33 0 -272.55 105.71 -272.55 277.08c0 171.9 102.22 278.141 272.55 278.141c171.72 0 239.319 -102.85 260.079 -175.699l-156.61 -29.3096c-12.0801 41.7402 -39.3203 88.79 -103.471 88.79c-67.0498 0 -110.7 -50.9805 -110.7 -161.921
c0 -110.95 43.6504 -161.391 110.7 -161.391z" />
    <glyph glyph-name="cdotaccent" unicode="&#x10b;" horiz-adv-x="585" 
d="M220.57 724h158.78v-124.35h-158.78v124.35zM299.961 103.15c66.0703 0 93.8525 47.9004 105.393 97.4199l161.39 -16.5303c-23.2197 -95.4805 -95.2002 -196.58 -266.78 -196.58c-170.33 0 -272.55 105.71 -272.55 277.08c0 171.9 102.22 278.141 272.55 278.141
c171.72 0 239.319 -102.85 260.079 -175.699l-156.61 -29.3096c-12.0801 41.7402 -39.3203 88.79 -103.471 88.79c-67.0498 0 -110.7 -50.9805 -110.7 -161.921c0 -110.95 43.6504 -161.391 110.7 -161.391z" />
    <glyph glyph-name="d" unicode="d" horiz-adv-x="620" 
d="M252.9 542.68c75.1396 0 128.381 -28.4512 159.071 -75.2109h4v256.53h158.78v-724h-152.17v70.2197h-4c-33.9004 -59.8096 -95.5107 -82.7598 -161.921 -82.7598c-131.94 0 -229.261 105.71 -229.261 277.08c0 171.9 97.3203 278.141 225.5 278.141zM306.882 106.379
c70.5195 0 117.17 50.9805 117.17 158.16c0 107.72 -46.6504 158.7 -117.17 158.7c-71.5195 0 -117.63 -50.9805 -117.63 -158.7c0 -107.18 46.1104 -158.16 117.63 -158.16z" />
    <glyph glyph-name="eth" unicode="&#xf0;" horiz-adv-x="623" 
d="M521.59 734.59l-101.921 -65.8584c138.58 -96.9902 175.67 -240.82 175.67 -393.23c0 -187.55 -107.3 -287.03 -284 -287.03c-175.63 0 -283.93 99.4805 -283.93 249.07c0 156.43 112.6 251.54 259.229 251.54c36.8604 0 81.79 -10.6602 120.45 -42.8203
c-20.2305 56.8799 -57.3604 105.07 -110.61 142.891l-111.33 -71.6504l-66.7402 67.2803l83.7803 54.0303c-36.5596 14.0596 -77.46 25.0195 -122.6 32.6191l50.7402 102.46c77.3203 -12.4404 142.391 -30.9209 197.001 -54.3809l127.52 82.3604zM311.339 99.3213
c73.2803 0 121.07 53.3496 121.07 138.22c0 85.8701 -47.79 140.15 -121.07 140.15c-73.21 0 -122 -54.2803 -122 -140.15c0 -84.8701 48.79 -138.22 122 -138.22z" />
    <glyph glyph-name="dcaron" unicode="&#x10f;" horiz-adv-x="782" 
d="M252.9 542.68c75.1396 0 128.381 -28.4512 159.071 -75.2109h4v256.53h158.78v-724h-152.17v70.2197h-4c-33.9004 -59.8096 -95.5107 -82.7598 -161.921 -82.7598c-131.94 0 -229.261 105.71 -229.261 277.08c0 171.9 97.3203 278.141 225.5 278.141zM775.751 724.009
v-79.4805c0 -111.93 -44.4404 -171.979 -143.91 -177.279v68.5596c33.6699 2.07031 54.1299 25.6807 54.1299 63.8506h-54.1299v124.35h143.91zM306.881 106.378c70.5195 0 117.17 50.9805 117.17 158.16c0 107.72 -46.6504 158.7 -117.17 158.7
c-71.5195 0 -117.63 -50.9805 -117.63 -158.7c0 -107.18 46.1104 -158.16 117.63 -158.16z" />
    <glyph glyph-name="dcroat" unicode="&#x111;" horiz-adv-x="624" 
d="M621.02 670.29l-0.00976562 -87.0205h-46.2598v-583.26h-152.16v70.2197h-4c-33.9102 -59.8203 -95.5205 -82.7607 -161.921 -82.7607c-131.95 0 -229.26 105.7 -229.26 277.07c0 171.91 97.3096 278.15 225.5 278.15c75.1396 0 128.38 -28.4697 159.07 -75.2295h4v115.8
h-92.2598v87.0303h92.2598v53.71h158.78v-53.71h46.2598zM306.88 106.38c70.5195 0 117.17 50.9805 117.17 158.16c0 107.72 -46.6504 158.7 -117.17 158.7c-71.5195 0 -117.63 -50.9805 -117.63 -158.7c0 -107.18 46.1104 -158.16 117.63 -158.16z" />
    <glyph glyph-name="e" unicode="e" horiz-adv-x="601" 
d="M405.2 169.68l162.46 -10.8506c-19.1699 -74.3896 -92.8301 -171.37 -266.55 -171.37c-169.95 0 -273.71 106.17 -273.71 276.61c0 171.91 101.37 278.61 273.24 278.61c172.26 0 285.1 -107.16 272.17 -310.13h-382.94c1.38965 -83.7197 44.6494 -138 111.239 -138
c68.9805 0 95.3906 41.8896 104.091 75.1299zM300.641 438.279c-67.0596 0 -105.609 -47.7402 -109.319 -109.54h219.02c-3.7002 61.7998 -42.2598 109.54 -109.7 109.54z" />
    <glyph glyph-name="eacute" unicode="&#xe9;" horiz-adv-x="601" 
d="M357.15 589h-113.54l85.3701 163.59h162.04zM405.2 169.68l162.46 -10.8506c-19.1699 -74.3896 -92.8301 -171.37 -266.55 -171.37c-169.95 0 -273.71 106.17 -273.71 276.61c0 171.91 101.37 278.61 273.24 278.61c172.26 0 285.1 -107.16 272.17 -310.13h-382.94
c1.38965 -83.7197 44.6494 -138 111.239 -138c68.9805 0 95.3906 41.8896 104.091 75.1299zM300.641 438.279c-67.0596 0 -105.609 -47.7402 -109.319 -109.54h219.02c-3.7002 61.7998 -42.2598 109.54 -109.7 109.54z" />
    <glyph glyph-name="ebreve" unicode="&#x115;" horiz-adv-x="601" 
d="M381.96 753.66h104.249c-3.83008 -108.13 -90.3496 -167.59 -185.56 -167.59c-95.6602 0 -181.72 59.46 -185.55 167.59h104.24c6.53027 -46.1797 41.0107 -70.79 81.3105 -70.79c39.7598 0 74.7793 24.6104 81.3096 70.79zM405.209 169.68l162.45 -10.8506
c-19.1602 -74.3896 -92.8301 -171.37 -266.55 -171.37c-169.94 0 -273.7 106.17 -273.7 276.61c0 171.91 101.37 278.61 273.24 278.61c172.26 0 285.09 -107.16 272.17 -310.13h-382.95c1.38965 -83.7197 44.6494 -138 111.249 -138
c68.9805 0 95.3809 41.8896 104.091 75.1299zM300.64 438.279c-67.0498 0 -105.609 -47.7402 -109.31 -109.54h219.02c-3.70996 61.7998 -42.2598 109.54 -109.71 109.54z" />
    <glyph glyph-name="ecaron" unicode="&#x11b;" horiz-adv-x="601" 
d="M510.8 752.59l-138.3 -163.6h-143.71l-138.29 163.6h142.83l65.3203 -88.6904h4l65.3096 88.6904h142.84zM405.2 169.681l162.45 -10.8506c-19.1602 -74.3896 -92.8301 -171.37 -266.55 -171.37c-169.94 0 -273.7 106.16 -273.7 276.61
c0 171.9 101.37 278.61 273.24 278.61c172.26 0 285.09 -107.17 272.17 -310.13h-382.95c1.38965 -83.7197 44.6494 -138 111.249 -138c68.9805 0 95.3809 41.8896 104.091 75.1299zM300.631 438.271c-67.0498 0 -105.609 -47.7402 -109.31 -109.53h219.02
c-3.70996 61.79 -42.2598 109.53 -109.71 109.53z" />
    <glyph glyph-name="ecircumflex" unicode="&#xea;" horiz-adv-x="601" 
d="M302.65 677.68h-4.00098l-65.3096 -88.6797h-142.84l138.3 163.59h143.7l138.3 -163.59h-142.84zM405.209 169.68l162.45 -10.8506c-19.1602 -74.3896 -92.8301 -171.37 -266.55 -171.37c-169.94 0 -273.7 106.17 -273.7 276.61c0 171.91 101.37 278.61 273.24 278.61
c172.26 0 285.09 -107.16 272.17 -310.13h-382.95c1.38965 -83.7197 44.6494 -138 111.249 -138c68.9805 0 95.3809 41.8896 104.091 75.1299zM300.64 438.279c-67.0498 0 -105.609 -47.7402 -109.31 -109.54h219.02c-3.70996 61.7998 -42.2598 109.54 -109.71 109.54z" />
    <glyph glyph-name="edieresis" unicode="&#xeb;" horiz-adv-x="601" 
d="M123.8 720.29h138.66v-120.65h-138.66v120.65zM338.83 720.29h138.67v-120.65h-138.67v120.65zM405.2 169.68l162.45 -10.8506c-19.1602 -74.3896 -92.8301 -171.37 -266.55 -171.37c-169.94 0 -273.7 106.17 -273.7 276.61c0 171.91 101.37 278.61 273.24 278.61
c172.26 0 285.09 -107.16 272.17 -310.13h-382.95c1.38965 -83.7197 44.6494 -138 111.249 -138c68.9805 0 95.3809 41.8896 104.091 75.1299zM300.631 438.279c-67.0498 0 -105.609 -47.7402 -109.31 -109.54h219.02c-3.70996 61.7998 -42.2598 109.54 -109.71 109.54z" />
    <glyph glyph-name="edotaccent" unicode="&#x117;" horiz-adv-x="601" 
d="M221.26 724h158.78v-124.35h-158.78v124.35zM405.2 169.68l162.46 -10.8506c-19.1699 -74.3896 -92.8301 -171.37 -266.55 -171.37c-169.95 0 -273.71 106.17 -273.71 276.61c0 171.91 101.37 278.61 273.24 278.61c172.26 0 285.1 -107.16 272.17 -310.13h-382.94
c1.38965 -83.7197 44.6494 -138 111.239 -138c68.9805 0 95.3906 41.8896 104.091 75.1299zM300.641 438.279c-67.0596 0 -105.609 -47.7402 -109.319 -109.54h219.02c-3.7002 61.7998 -42.2598 109.54 -109.7 109.54z" />
    <glyph glyph-name="egrave" unicode="&#xe8;" horiz-adv-x="601" 
d="M271.78 752.59l85.3701 -163.6h-113.54l-133.87 163.6h162.04zM405.2 169.681l162.46 -10.8506c-19.1699 -74.3896 -92.8301 -171.37 -266.55 -171.37c-169.95 0 -273.71 106.16 -273.71 276.61c0 171.9 101.37 278.61 273.24 278.61
c172.26 0 285.1 -107.17 272.17 -310.13h-382.94c1.38965 -83.7197 44.6494 -138 111.239 -138c68.9805 0 95.3906 41.8896 104.091 75.1299zM300.641 438.271c-67.0596 0 -105.609 -47.7402 -109.319 -109.53h219.02c-3.7002 61.79 -42.2598 109.53 -109.7 109.53z" />
    <glyph glyph-name="emacron" unicode="&#x113;" horiz-adv-x="601" 
d="M142.91 625.61v97.3301h315.48v-97.3301h-315.48zM405.2 169.681l162.46 -10.8506c-19.1699 -74.3896 -92.8301 -171.37 -266.55 -171.37c-169.95 0 -273.71 106.17 -273.71 276.61c0 171.91 101.37 278.61 273.24 278.61c172.26 0 285.1 -107.16 272.17 -310.13h-382.94
c1.38965 -83.7197 44.6494 -138 111.239 -138c68.9805 0 95.3906 41.8896 104.091 75.1299zM300.641 438.28c-67.0596 0 -105.609 -47.7402 -109.319 -109.54h219.02c-3.7002 61.7998 -42.2598 109.54 -109.7 109.54z" />
    <glyph glyph-name="eogonek" unicode="&#x119;" horiz-adv-x="602" 
d="M300.65 542.68c172.26 0 285.081 -107.16 272.151 -310.12h-382.94c1.38965 -83.7197 44.6494 -138 111.239 -138c68.9805 0 95.3906 41.8896 104.091 75.1299l162.47 -10.8496c-11.3203 -43.3203 -40.3203 -93.3203 -95.9307 -127.931
c-70.9004 -43.8301 -138.271 -85.2197 -138.271 -136.17c0 -25.2402 25.5303 -37.7002 51.1602 -37.7002c18.8398 0 39.0596 2 55.5195 7.45996v-89.0195c-20.2197 -5.53027 -44.75 -7.53027 -74.9697 -7.53027c-93.6299 0 -146.78 36.1504 -146.78 103.37
c0 47.6797 26.3896 89.1494 69 116.68c-162.13 5.37012 -259.979 109.54 -259.979 276.07c0 171.91 101.37 278.61 273.24 278.61zM191.322 328.739h219.02c-3.70996 61.7998 -42.2598 109.54 -109.71 109.54c-67.0498 0 -105.609 -47.7402 -109.31 -109.54z" />
    <glyph glyph-name="f" unicode="f" horiz-adv-x="386" 
d="M315.72 621.61c-39.5898 0 -63.7607 -12.9102 -63.7607 -55.1699v-36.29h108.02v-102.71h-108.02v-427.44h-158.78v427.44h-82.7002v102.71h82.7002v55.4199c0 121.41 80.9502 150.96 192.58 150.96c28.7002 0 68.6104 -4 88.9004 -6.45996v-111.39
c-16 1.45996 -40.0898 2.92969 -58.9395 2.92969z" />
    <glyph glyph-name="g" unicode="g" horiz-adv-x="616" 
d="M571.2 530.15l0.00976562 -488.851c0 -178.13 -119.67 -237.83 -271.7 -237.83c-130.19 0 -235.391 49.5303 -268.391 176.05l158 14.5596c16.2402 -53.3701 52.2705 -76.0801 110.381 -76.0801c66.9102 0 112.93 34.2598 112.93 126.689v51h-4
c-31.2197 -44.3701 -82.54 -68.2197 -156.76 -68.2197c-126.79 0 -223.18 98.2402 -223.18 258.141c0 158.91 96.3896 257.07 226.939 257.07c65.4805 0 125.7 -20.0195 159.61 -77.3691h4v64.8398h152.16zM305.65 144.91c69.1299 0 114.85 53.8203 114.85 140.71
c0 85.3496 -45.7197 138.159 -114.85 138.159c-70.1299 0 -115.31 -52.8096 -115.31 -138.159c0 -86.8896 45.1797 -140.71 115.31 -140.71z" />
    <glyph glyph-name="gbreve" unicode="&#x11f;" horiz-adv-x="616" 
d="M381.42 753.66h104.249c-3.83008 -108.13 -90.3496 -167.59 -185.56 -167.59c-95.6602 0 -181.72 59.46 -185.55 167.59h104.24c6.53027 -46.1797 41.0107 -70.79 81.3105 -70.79c39.7598 0 74.7793 24.6104 81.3096 70.79zM571.199 530.141l0.00976562 -488.841
c0 -178.13 -119.67 -237.84 -271.7 -237.84c-130.19 0 -235.391 49.54 -268.391 176.06l158 14.5498c16.2402 -53.3701 52.2705 -76.0703 110.381 -76.0703c66.9102 0 112.93 34.2598 112.93 126.68v51h-4c-31.2197 -44.3701 -82.54 -68.2197 -156.76 -68.2197
c-126.79 0 -223.18 98.2402 -223.18 258.15c0 158.9 96.3896 257.07 226.939 257.07c65.4805 0 125.7 -20.0195 159.61 -77.3691h4v64.8301h152.16zM305.649 144.91c69.1299 0 114.85 53.8096 114.85 140.699c0 85.3496 -45.7197 138.17 -114.85 138.17
c-70.1299 0 -115.31 -52.8203 -115.31 -138.17c0 -86.8896 45.1797 -140.699 115.31 -140.699z" />
    <glyph glyph-name="gcircumflex" unicode="&#x11d;" horiz-adv-x="616" 
d="M302.11 677.68h-4.00098l-65.3096 -88.6797h-142.84l138.3 163.59h143.7l138.3 -163.59h-142.84zM571.209 530.149l-0.00195312 -488.851c0 -178.13 -119.66 -237.83 -271.7 -237.83c-130.18 0 -235.39 49.5303 -268.39 176.05l158 14.5596
c16.2402 -53.3701 52.2803 -76.0801 110.391 -76.0801c66.9004 0 112.92 34.2598 112.92 126.689v51h-4c-31.2197 -44.3701 -82.5293 -68.2197 -156.749 -68.2197c-126.8 0 -223.189 98.2402 -223.189 258.141c0 158.91 96.3896 257.07 226.949 257.07
c65.4805 0 125.7 -20.0195 159.601 -77.3691h4v64.8398h152.17zM305.657 144.909c69.1299 0 114.85 53.8203 114.85 140.71c0 85.3496 -45.7197 138.159 -114.85 138.159c-70.1299 0 -115.32 -52.8096 -115.32 -138.159c0 -86.8896 45.1904 -140.71 115.32 -140.71z" />
    <glyph glyph-name="gcommaaccent" unicode="&#x123;" horiz-adv-x="616" 
d="M228.39 589l-0.00976562 79.4805c0 111.92 44.4502 171.979 143.91 177.27v-68.5498c-33.6602 -2.08008 -54.1299 -25.6904 -54.1299 -63.8506h54.1299v-124.35h-143.9zM571.2 530.141l-0.00195312 -488.841c0 -178.13 -119.66 -237.84 -271.7 -237.84
c-130.18 0 -235.39 49.54 -268.39 176.06l158 14.5498c16.2402 -53.3701 52.2803 -76.0703 110.391 -76.0703c66.9004 0 112.92 34.2598 112.92 126.68v51h-4c-31.2197 -44.3701 -82.5293 -68.2197 -156.749 -68.2197c-126.8 0 -223.189 98.2402 -223.189 258.15
c0 158.9 96.3896 257.07 226.949 257.07c65.4805 0 125.7 -20.0195 159.601 -77.3691h4v64.8301h152.17zM305.648 144.91c69.1299 0 114.85 53.8096 114.85 140.699c0 85.3496 -45.7197 138.17 -114.85 138.17c-70.1299 0 -115.32 -52.8203 -115.32 -138.17
c0 -86.8896 45.1904 -140.699 115.32 -140.699z" />
    <glyph glyph-name="gdotaccent" unicode="&#x121;" horiz-adv-x="616" 
d="M220.72 724h158.78v-124.35h-158.78v124.35zM571.2 530.15l0.00976562 -488.851c0 -178.13 -119.67 -237.83 -271.7 -237.83c-130.19 0 -235.391 49.5303 -268.391 176.05l158 14.5596c16.2402 -53.3701 52.2705 -76.0801 110.381 -76.0801
c66.9102 0 112.93 34.2598 112.93 126.689v51h-4c-31.2197 -44.3701 -82.54 -68.2197 -156.76 -68.2197c-126.79 0 -223.18 98.2402 -223.18 258.141c0 158.91 96.3896 257.07 226.939 257.07c65.4805 0 125.7 -20.0195 159.61 -77.3691h4v64.8398h152.16zM305.65 144.91
c69.1299 0 114.85 53.8203 114.85 140.71c0 85.3496 -45.7197 138.159 -114.85 138.159c-70.1299 0 -115.31 -52.8096 -115.31 -138.159c0 -86.8896 45.1797 -140.71 115.31 -140.71z" />
    <glyph glyph-name="h" unicode="h" 
d="M208.03 459l4 -0.0107422c34.4805 47.1904 87.1104 83.6904 165.761 83.6904c101.13 0 182.39 -60.2998 182.39 -194.83v-347.85h-158.78v309.33c0 78.0596 -32.4004 106.609 -90.2207 106.609c-53.2598 0 -103.149 -45.5898 -103.149 -133.26v-282.68h-158.78v724
h158.78v-265z" />
    <glyph glyph-name="hbar" unicode="&#x127;" 
d="M377.79 542.68c101.13 0 182.39 -60.2998 182.39 -194.83v-347.85h-158.78v309.33c0 78.0596 -32.4004 106.609 -90.2207 106.609c-53.2598 0 -103.149 -45.5898 -103.149 -133.26v-282.68h-158.78v583.26h-46.2598v87.0303h46.2598v53.71h158.78v-53.71h92.2598
v-87.0303h-92.2598v-124.26h4c34.4805 47.1797 87.1104 83.6797 165.761 83.6797z" />
    <glyph glyph-name="hcircumflex" unicode="&#x125;" 
d="M306.72 860.61h-4.00098l-65.3096 -88.6904h-142.84l138.3 163.6h143.7l138.3 -163.6h-142.84zM208.039 459l3.99902 -0.0107422c34.4805 47.1904 87.1104 83.6904 165.761 83.6904c101.13 0 182.39 -60.2998 182.39 -194.83v-347.85h-158.78v309.33
c0 78.0596 -32.4102 106.609 -90.2197 106.609c-53.2598 0 -103.149 -45.5898 -103.149 -133.26v-282.68h-158.78v724h158.78v-265z" />
    <glyph glyph-name="i" unicode="i" horiz-adv-x="257" 
d="M49.2598 724h158.78v-124.35h-158.78v124.35zM49.2598 530.15h158.78v-530.15h-158.78v530.15z" />
    <glyph glyph-name="dotlessi" unicode="&#x131;" horiz-adv-x="257" 
d="M49.2598 530.15h158.78v-530.15h-158.78v530.15z" />
    <glyph glyph-name="iacute" unicode="&#xed;" horiz-adv-x="257" 
d="M185.15 589h-113.54l85.3701 163.59h162.04zM49.2607 530.15h158.78v-530.15h-158.78v530.15z" />
    <glyph glyph-name="ibreve" unicode="&#x12d;" horiz-adv-x="257" 
d="M209.96 753.66h104.239c-3.83008 -108.13 -90.3496 -167.59 -185.55 -167.59c-95.6699 0 -181.72 59.46 -185.56 167.59h104.24c6.54004 -46.1797 41.0205 -70.79 81.3105 -70.79c39.7598 0 74.7793 24.6104 81.3193 70.79zM49.2588 530.141h158.78v-530.15h-158.78
v530.15z" />
    <glyph glyph-name="icircumflex" unicode="&#xee;" horiz-adv-x="257" 
d="M130.65 677.68h-4.00098l-65.3096 -88.6797h-142.84l138.3 163.59h143.7l138.3 -163.59h-142.84zM49.2598 530.149h158.78v-530.15h-158.78v530.15z" />
    <glyph glyph-name="idieresis" unicode="&#xef;" horiz-adv-x="257" 
d="M-48.21 720.29h138.67v-120.65h-138.67v120.65zM166.83 720.29h138.66v-120.65h-138.66v120.65zM49.25 530.14h158.78v-530.15h-158.78v530.15z" />
    <glyph glyph-name="i.loclTRK" horiz-adv-x="257" 
d="M49.2598 724h158.78v-124.35h-158.78v124.35zM49.2598 530.15h158.78v-530.15h-158.78v530.15z" />
    <glyph glyph-name="igrave" unicode="&#xec;" horiz-adv-x="257" 
d="M99.7695 752.59l85.3701 -163.6h-113.53l-133.87 163.6h162.03zM49.25 530.141h158.78v-530.15h-158.78v530.15z" />
    <glyph glyph-name="ij" unicode="&#x133;" horiz-adv-x="515" 
d="M49.2598 724h158.78v-124.35h-158.78v124.35zM306.55 724h158.78v-124.35h-158.78v124.35zM49.2598 530.15h158.78v-530.15h-158.78v530.15zM260.94 -69.4795c27.6797 0 45.6094 5.00098 45.6094 40.7812v558.85h158.78v-587.06
c0 -115.48 -48.2998 -139.631 -146.17 -139.631c-34.5898 0 -77.7197 0.469727 -92.4795 2v125.52c11.7803 -0.459961 23.7998 -0.459961 34.2598 -0.459961z" />
    <glyph glyph-name="imacron" unicode="&#x12b;" horiz-adv-x="257" 
d="M-29.0898 625.61v97.3301h315.48v-97.3301h-315.48zM49.2598 530.15h158.78v-530.15h-158.78v530.15z" />
    <glyph glyph-name="iogonek" unicode="&#x12f;" horiz-adv-x="257" 
d="M208.03 599.65h-158.78v124.35h158.78v-124.35zM219.88 -135.5v-89.0195c-20.2197 -5.54004 -44.7598 -7.54004 -74.9795 -7.54004c-93.6299 0 -146.78 36.1504 -146.78 103.37c0 54.6904 35.3203 101.61 90.54 128.69h-39.4102v530.15h158.78v-530.15
c-68 -37.2402 -94.8301 -75.5605 -94.8301 -105.261c0 -25.2402 25.5303 -37.71 51.1602 -37.71c18.8398 0 39.0596 2 55.5195 7.46973z" />
    <glyph glyph-name="itilde" unicode="&#x129;" horiz-adv-x="257" 
d="M315.44 737.79l-77.6699 9.09961c-6.54004 -31.7803 -22.0703 -40.71 -38.0703 -40.71c-14.54 0 -27.54 7.92969 -41.1504 16.46l-31.2002 19.3701c-16.4697 9.92969 -35 18.6299 -58.8496 18.6299c-65.3496 0 -115.72 -38.5898 -126.649 -130.56l77.6699 -9.08984
c6.53027 31.7803 22.0703 40.7002 38.0703 40.7002c13.46 0 27.54 -7.91992 41.1504 -16.46l31.2002 -19.3701c15.4697 -9.91992 33.9297 -18.6299 58.8594 -18.6299c65.3496 0 115.72 38.5996 126.64 130.56zM49.251 530.149h158.78v-530.15h-158.78v530.15z" />
    <glyph glyph-name="j" unicode="j" horiz-adv-x="257" 
d="M49.2598 724h158.78v-124.35h-158.78v124.35zM3.65039 -69.4805c27.6904 0 45.5996 5.00098 45.5996 40.7812v558.85h158.78v-587.06c0 -115.48 -48.29 -139.631 -146.16 -139.631c-34.5996 0 -77.7295 0.469727 -92.4893 2v125.52
c11.7803 -0.459961 23.7998 -0.459961 34.2695 -0.459961z" />
    <glyph glyph-name="dotlessj" unicode="&#x237;" horiz-adv-x="257" 
d="M3.65039 -69.4805c27.6904 0 45.5996 5.00098 45.5996 40.7812v558.85h158.78v-587.06c0 -115.48 -48.29 -139.631 -146.16 -139.631c-34.5996 0 -77.7295 0.469727 -92.4893 2v125.52c11.7803 -0.459961 23.7998 -0.459961 34.2695 -0.459961z" />
    <glyph glyph-name="jcircumflex" unicode="&#x135;" horiz-adv-x="257" 
d="M130.64 677.68h-3.98926l-65.3203 -88.6797h-142.83l138.29 163.59h143.71l138.29 -163.59h-142.83zM3.65039 -69.4805c27.6904 0 45.5996 5.00098 45.5996 40.7812v558.85h158.78v-587.06c0 -115.48 -48.29 -139.631 -146.16 -139.631
c-34.5996 0 -77.7295 0.469727 -92.4893 2v125.52c11.7803 -0.459961 23.7998 -0.459961 34.2695 -0.459961z" />
    <glyph glyph-name="k" unicode="k" horiz-adv-x="582" 
d="M208.03 158.87v-158.869h-158.78v724h158.78v-395.65l180.24 201.8h177.8l-193.65 -204.15l215.57 -326h-182.53l-139.87 219.87z" />
    <glyph glyph-name="kcommaaccent" unicode="&#x137;" horiz-adv-x="582" 
d="M208.03 158.87v-158.869h-158.78v724h158.78v-395.65l180.24 201.8h177.8l-193.65 -204.15l215.57 -326h-182.53l-139.87 219.87zM378.74 -58.8486v-79.4805c0 -111.92 -44.4404 -171.979 -143.91 -177.27v68.5498c33.6699 2.08008 54.1299 25.6904 54.1299 63.8506
h-54.1299v124.35h143.91z" />
    <glyph glyph-name="kgreenlandic" unicode="&#x138;" horiz-adv-x="582" 
d="M208.03 158.87v-158.87h-158.78v530.15h158.78v-201.8l180.24 201.8h177.8l-193.65 -204.15l215.57 -326h-182.53l-139.87 219.87z" />
    <glyph glyph-name="l" unicode="l" horiz-adv-x="260" 
d="M50.6504 724h158.78v-724h-158.78v724z" />
    <glyph glyph-name="lacute" unicode="&#x13a;" horiz-adv-x="260" 
d="M186.53 778.22h-113.53l85.3701 163.59h162.03zM50.6504 724h158.78v-724h-158.78v724z" />
    <glyph glyph-name="lcaron" unicode="&#x13e;" horiz-adv-x="260" 
d="M340.18 946.44l-138.3 -163.59h-143.7l-138.3 163.59h142.84l65.3096 -88.6797h4l65.3203 88.6797h142.83zM50.6396 724.001h158.78v-724h-158.78v724z" />
    <glyph glyph-name="lcommaaccent" unicode="&#x13c;" horiz-adv-x="260" 
d="M50.6504 724h158.78v-724h-158.78v724zM201.761 -58.8496l0.00976562 -79.4805c0 -111.93 -44.4502 -171.979 -143.91 -177.279v68.5596c33.6602 2.07031 54.1299 25.6807 54.1299 63.8506h-54.1299v124.35h143.9z" />
    <glyph glyph-name="ldot" unicode="&#x140;" horiz-adv-x="470" 
d="M50.6504 724h158.78v-724h-158.78v724zM358.461 267.22c-53.3496 0 -97.0898 43.2002 -97.0898 96.5498c0 53.4297 43.7402 97.0898 97.0898 97.0898s97.0898 -43.6602 97.0898 -97.0898c0 -53.3496 -43.7402 -96.5498 -97.0898 -96.5498z" />
    <glyph glyph-name="lslash" unicode="&#x142;" horiz-adv-x="276" 
d="M271.74 500.11v-117.189l-54.4805 -31.5498v-351.37h-158.78v259.09l-54.4805 -31.6699v118.19l54.4805 32.0898v346.3h158.78v-255.16z" />
    <glyph glyph-name="m" unicode="m" horiz-adv-x="926" 
d="M703.39 542.68c99.2803 0 177.551 -60.2979 177.551 -194.838v-347.85h-158.78v309.34c0 78.0498 -30.9502 106.609 -83.3701 106.609c-50.2598 0 -94.2998 -40.9697 -94.2998 -128.63v-287.32h-158.78v309.34c0 78.0498 -30.4004 106.609 -82.8301 106.609
c-50.2598 0 -94.8301 -40.9697 -94.8301 -128.63v-287.32h-158.78v530.15h152.16v-71.6104h4c33.4805 47.1904 83.6504 84.1504 161.521 84.1504c68.0498 0 125.29 -28.1504 155.14 -88.6807c40.4805 46.79 91.4102 88.6797 181.3 88.6797z" />
    <glyph glyph-name="n" unicode="n" 
d="M201.42 459l4.01074 -0.0107422c33.4805 47.1904 87.1104 83.6904 168.83 83.6904c104.67 0 185.93 -60.2998 185.93 -194.83v-347.85h-158.78v309.33c0 78.0596 -32.4102 106.609 -90.2197 106.609c-54.1904 0 -103.15 -40.96 -103.15 -128.63v-287.31h-158.78v530.15
h152.16v-71.1504z" />
    <glyph glyph-name="nacute" unicode="&#x144;" 
d="M361.22 589h-113.53l85.3701 163.59h162.03zM201.43 459l4.01074 -0.0107422c33.4805 47.1904 87.1104 83.6904 168.83 83.6904c104.66 0 185.92 -60.2998 185.92 -194.83v-347.85h-158.78v309.33c0 78.0596 -32.4004 106.609 -90.2207 106.609
c-54.1797 0 -103.149 -40.96 -103.149 -128.63v-287.31h-158.78v530.15h152.17v-71.1504z" />
    <glyph glyph-name="napostrophe" unicode="&#x149;" horiz-adv-x="727" 
d="M150.35 724v-79.4805c0 -111.93 -44.4404 -171.979 -143.91 -177.279v68.5596c33.6699 2.07031 54.1299 25.6807 54.1299 63.8506h-54.1299v124.35h143.91zM322.52 459l4.01074 -0.00976562c33.4805 47.1904 87.1104 83.6904 168.83 83.6904
c104.66 0 185.92 -60.2998 185.92 -194.83v-347.85h-158.78v310.26c0 78.0498 -32.4004 106.609 -90.2207 106.609c-54.1797 0 -103.149 -40.9697 -103.149 -128.63v-288.24h-158.78v530.15h152.17v-71.1504z" />
    <glyph glyph-name="ncaron" unicode="&#x148;" 
d="M514.87 752.59l-138.3 -163.59h-143.71l-138.29 163.59h142.83l65.3203 -88.6797h4l65.3096 88.6797h142.84zM201.42 459l4.01074 -0.0107422c33.4805 47.1904 87.1104 83.6904 168.83 83.6904c104.66 0 185.92 -60.2998 185.92 -194.83v-347.85h-158.78v309.33
c0 78.0596 -32.4004 106.609 -90.2207 106.609c-54.1797 0 -103.149 -40.96 -103.149 -128.63v-287.31h-158.78v530.15h152.17v-71.1504z" />
    <glyph glyph-name="ncommaaccent" unicode="&#x146;" 
d="M201.42 459l4.01074 -0.0107422c33.4805 47.1904 87.1104 83.6904 168.83 83.6904c104.67 0 185.93 -60.2998 185.93 -194.83v-347.85h-158.78v309.33c0 78.0596 -32.4102 106.609 -90.2197 106.609c-54.1904 0 -103.15 -40.96 -103.15 -128.63v-287.31h-158.78v530.15
h152.16v-71.1504zM376.45 -58.8604l0.00976562 -79.4805c0 -111.92 -44.4502 -171.979 -143.91 -177.27v68.5498c33.6602 2.08008 54.1299 25.6904 54.1299 63.8506h-54.1299v124.35h143.9z" />
    <glyph glyph-name="eng" unicode="&#x14b;" 
d="M374.26 542.68c104.66 0 185.93 -60.2891 185.93 -194.829v-404.76c0 -115.48 -48.29 -139.631 -146.16 -139.631c-34.5996 0 -77.7295 0.469727 -92.4893 2v125.52c11.2402 -0.459961 24.8701 -0.459961 34.2598 -0.459961c27.6904 0 45.6104 5 45.6104 40.7803v338.03
c0 78.0596 -32.4004 106.609 -90.2207 106.609c-54.1797 0 -103.149 -40.96 -103.149 -128.63v-287.31h-158.78v530.15h152.17v-71.1504h4c33.4805 47.1797 87.1104 83.6797 168.83 83.6797z" />
    <glyph glyph-name="ntilde" unicode="&#xf1;" 
d="M491.52 737.79l-77.6797 9.09961c-6.53027 -31.7803 -22.0703 -40.71 -38.0703 -40.71c-14.5303 0 -27.5303 7.92969 -41.1406 16.46l-31.21 19.3701c-16.46 9.92969 -35 18.6299 -58.8496 18.6299c-65.3496 0 -115.72 -38.5898 -126.64 -130.56l77.6602 -9.08984
c6.54004 31.7803 22.0703 40.7002 38.0703 40.7002c13.4697 0 27.54 -7.91992 41.1504 -16.46l31.21 -19.3701c15.46 -9.91992 33.9297 -18.6299 58.8496 -18.6299c65.3496 0 115.72 38.5996 126.649 130.56zM201.42 459l4.01074 -0.0107422
c33.4805 47.1904 87.1104 83.6904 168.83 83.6904c104.66 0 185.92 -60.2998 185.92 -194.83v-347.85h-158.78v309.33c0 78.0596 -32.4004 106.609 -90.2207 106.609c-54.1797 0 -103.149 -40.96 -103.149 -128.63v-287.31h-158.78v530.15h152.17v-71.1504z" />
    <glyph glyph-name="o" unicode="o" horiz-adv-x="610" 
d="M305.35 542.68c173.26 0 277.479 -106.24 277.479 -278.141c0 -171.37 -104.22 -277.08 -277.479 -277.08c-174.26 0 -277.95 105.71 -277.95 277.08c0 171.9 103.69 278.141 277.95 278.141zM305.35 103.68c70.5195 0 115.63 49.9102 115.63 160.851
c0 110.95 -45.1104 161.931 -115.63 161.931c-70.9805 0 -116.091 -50.9805 -116.091 -161.931c0 -110.94 45.1104 -160.851 116.091 -160.851z" />
    <glyph glyph-name="oacute" unicode="&#xf3;" horiz-adv-x="610" 
d="M361.85 589h-113.54l85.3701 163.59h162.04zM305.35 542.68c173.26 0 277.479 -106.24 277.479 -278.141c0 -171.37 -104.22 -277.08 -277.479 -277.08c-174.26 0 -277.95 105.71 -277.95 277.08c0 171.9 103.69 278.141 277.95 278.141zM305.35 103.68
c70.5195 0 115.63 49.9102 115.63 160.851c0 110.95 -45.1104 161.931 -115.63 161.931c-70.9805 0 -116.091 -50.9805 -116.091 -161.931c0 -110.94 45.1104 -160.851 116.091 -160.851z" />
    <glyph glyph-name="obreve" unicode="&#x14f;" horiz-adv-x="610" 
d="M386.66 753.66h104.249c-3.83008 -108.13 -90.3496 -167.59 -185.56 -167.59c-95.6602 0 -181.72 59.46 -185.55 167.59h104.24c6.53027 -46.1797 41.0107 -70.79 81.3105 -70.79c39.7598 0 74.7793 24.6104 81.3096 70.79zM305.35 542.68
c173.26 0 277.479 -106.24 277.479 -278.141c0 -171.37 -104.22 -277.08 -277.479 -277.08c-174.26 0 -277.939 105.71 -277.939 277.08c0 171.9 103.68 278.141 277.939 278.141zM305.35 103.68c70.5195 0 115.63 49.9102 115.63 160.851
c0 110.95 -45.1104 161.931 -115.63 161.931c-70.9805 0 -116.091 -50.9805 -116.091 -161.931c0 -110.94 45.1104 -160.851 116.091 -160.851z" />
    <glyph glyph-name="ocircumflex" unicode="&#xf4;" horiz-adv-x="610" 
d="M307.35 677.68h-4.00098l-65.3096 -88.6797h-142.84l138.3 163.59h143.7l138.3 -163.59h-142.84zM305.349 542.68c173.26 0 277.479 -106.24 277.479 -278.141c0 -171.37 -104.22 -277.08 -277.479 -277.08c-174.26 0 -277.939 105.71 -277.939 277.08
c0 171.9 103.68 278.141 277.939 278.141zM305.349 103.68c70.5195 0 115.63 49.9102 115.63 160.851c0 110.95 -45.1104 161.931 -115.63 161.931c-70.9805 0 -116.091 -50.9805 -116.091 -161.931c0 -110.94 45.1104 -160.851 116.091 -160.851z" />
    <glyph glyph-name="odieresis" unicode="&#xf6;" horiz-adv-x="610" 
d="M128.5 720.29h138.66v-120.65h-138.66v120.65zM343.53 720.29h138.67v-120.65h-138.67v120.65zM305.351 542.68c173.26 0 277.479 -106.24 277.479 -278.141c0 -171.37 -104.22 -277.08 -277.479 -277.08c-174.26 0 -277.95 105.71 -277.95 277.08
c0 171.9 103.69 278.141 277.95 278.141zM305.351 103.68c70.5195 0 115.63 49.9102 115.63 160.851c0 110.95 -45.1104 161.931 -115.63 161.931c-70.9805 0 -116.091 -50.9805 -116.091 -161.931c0 -110.94 45.1104 -160.851 116.091 -160.851z" />
    <glyph glyph-name="ograve" unicode="&#xf2;" horiz-adv-x="610" 
d="M276.48 752.59l85.3701 -163.6h-113.54l-133.87 163.6h162.04zM305.351 542.681c173.26 0 277.479 -106.24 277.479 -278.15c0 -171.37 -104.22 -277.07 -277.479 -277.07c-174.26 0 -277.95 105.7 -277.95 277.07c0 171.91 103.69 278.15 277.95 278.15z
M305.351 103.681c70.5195 0 115.63 49.9004 115.63 160.851c0 110.94 -45.1104 161.921 -115.63 161.921c-70.9805 0 -116.091 -50.9805 -116.091 -161.921c0 -110.95 45.1104 -160.851 116.091 -160.851z" />
    <glyph glyph-name="ohungarumlaut" unicode="&#x151;" horiz-adv-x="610" 
d="M262.52 589h-100.851l57.6104 163.59h138.37zM449.039 589h-100.86l58.1504 163.59h137.84zM305.349 542.68c173.26 0 277.479 -106.24 277.479 -278.141c0 -171.37 -104.22 -277.08 -277.479 -277.08c-174.26 0 -277.95 105.71 -277.95 277.08
c0 171.9 103.69 278.141 277.95 278.141zM305.349 103.68c70.5195 0 115.63 49.9102 115.63 160.851c0 110.95 -45.1104 161.931 -115.63 161.931c-70.9805 0 -116.091 -50.9805 -116.091 -161.931c0 -110.94 45.1104 -160.851 116.091 -160.851z" />
    <glyph glyph-name="omacron" unicode="&#x14d;" horiz-adv-x="610" 
d="M147.61 625.61v97.3301h315.48v-97.3301h-315.48zM305.351 542.681c173.26 0 277.479 -106.24 277.479 -278.141c0 -171.37 -104.22 -277.08 -277.479 -277.08c-174.26 0 -277.95 105.71 -277.95 277.08c0 171.9 103.69 278.141 277.95 278.141zM305.351 103.681
c70.5195 0 115.63 49.9102 115.63 160.851c0 110.95 -45.1104 161.931 -115.63 161.931c-70.9805 0 -116.091 -50.9805 -116.091 -161.931c0 -110.94 45.1104 -160.851 116.091 -160.851z" />
    <glyph glyph-name="oslash" unicode="&#xf8;" horiz-adv-x="612" 
d="M524.39 452.66l-0.160156 -0.169922c38.7197 -47.0195 59.6699 -110.89 59.6699 -187.96c0 -171.37 -104.22 -277.07 -277.479 -277.07c-63.1104 0 -116.96 13.8604 -159.99 39.6904l-51.79 -58.2998l-46.8301 42.29l49.1201 55.9502
c-44.4004 47.5996 -68.4502 114.909 -68.4502 197.439c0 171.91 103.68 278.15 277.939 278.15c68.0703 0 125.48 -16.4004 170.101 -46.7305l41.29 46.6602l47.2998 -43.2998zM306.42 426.46c-70.9805 0 -116.09 -50.9785 -116.09 -161.929
c0 -31.4902 3.62988 -58.1104 10.46 -80.0908l184.85 208.84c-19.7695 22.4102 -46.8096 33.1797 -79.2197 33.1797zM306.421 103.142c70.5195 0 115.63 50.4502 115.63 161.391c0 24.8203 -2.25977 46.6299 -6.5498 65.5498l-179.98 -202.63
c18.79 -16.4102 42.8203 -24.3105 70.9004 -24.3105z" />
    <glyph glyph-name="oslashacute" unicode="&#x1ff;" horiz-adv-x="612" 
d="M362.92 589h-113.53l85.3701 163.59h162.03zM524.39 452.66l-0.160156 -0.169922c38.7197 -47.0195 59.6699 -110.89 59.6699 -187.96c0 -171.37 -104.22 -277.07 -277.479 -277.07c-63.1104 0 -116.96 13.8604 -159.99 39.6904l-51.79 -58.2998l-46.8301 42.29
l49.1201 55.9502c-44.4004 47.5996 -68.4502 114.909 -68.4502 197.439c0 171.91 103.68 278.15 277.939 278.15c68.0703 0 125.48 -16.4004 170.101 -46.7305l41.29 46.6602l47.2998 -43.2998zM306.42 426.46c-70.9805 0 -116.09 -50.9785 -116.09 -161.929
c0 -31.4902 3.62988 -58.1104 10.46 -80.0908l184.85 208.84c-19.7695 22.4102 -46.8096 33.1797 -79.2197 33.1797zM306.421 103.142c70.5195 0 115.63 50.4502 115.63 161.391c0 24.8203 -2.25977 46.6299 -6.5498 65.5498l-179.98 -202.63
c18.79 -16.4102 42.8203 -24.3105 70.9004 -24.3105z" />
    <glyph glyph-name="otilde" unicode="&#xf5;" horiz-adv-x="610" 
d="M492.15 737.79l-77.6797 9.09961c-6.53027 -31.7803 -22.0703 -40.71 -38.0703 -40.71c-14.5303 0 -27.5303 7.92969 -41.1406 16.46l-31.21 19.3701c-16.46 9.92969 -35 18.6299 -58.8496 18.6299c-65.3496 0 -115.72 -38.5898 -126.64 -130.56l77.6602 -9.08984
c6.54004 31.7803 22.0703 40.7002 38.0703 40.7002c13.4697 0 27.54 -7.91992 41.1504 -16.46l31.21 -19.3701c15.46 -9.91992 33.9297 -18.6299 58.8496 -18.6299c65.3496 0 115.72 38.5996 126.649 130.56zM305.341 542.68c173.26 0 277.479 -106.24 277.479 -278.141
c0 -171.37 -104.22 -277.08 -277.479 -277.08c-174.26 0 -277.939 105.71 -277.939 277.08c0 171.9 103.68 278.141 277.939 278.141zM305.341 103.68c70.5195 0 115.63 49.9102 115.63 160.851c0 110.95 -45.1104 161.931 -115.63 161.931
c-70.9805 0 -116.091 -50.9805 -116.091 -161.931c0 -110.94 45.1104 -160.851 116.091 -160.851z" />
    <glyph glyph-name="oe" unicode="&#x153;" horiz-adv-x="993" 
d="M796.63 169.68l162.45 -10.8506c-19.1699 -74.3896 -92.8301 -171.37 -266.55 -171.37c-87.8496 0 -151.63 29.7998 -191.71 83.2998c-40.5303 -53.5 -105.7 -83.2998 -195.48 -83.2998c-174.26 0 -277.939 105.71 -277.939 277.08
c0 171.9 103.68 278.141 277.939 278.141c89.7803 0 154.49 -30.3301 195.021 -82.8301c40.0801 52.5 102.86 82.8301 191.71 82.8301c172.26 0 285.09 -107.16 272.17 -310.13h-382.95c1.38965 -83.7197 44.6494 -138 111.249 -138
c68.9805 0 95.3809 41.8896 104.091 75.1299zM582.74 328.739h219.02c-3.7002 61.7998 -42.2598 109.54 -109.7 109.54c-67.0596 0 -105.609 -47.7402 -109.319 -109.54zM305.34 103.149c70.5195 0 115.63 50.4404 115.63 161.391
c0 110.94 -45.1104 161.921 -115.63 161.921c-70.9805 0 -116.091 -50.9805 -116.091 -161.921c0 -110.95 45.1104 -161.391 116.091 -161.391z" />
    <glyph glyph-name="p" unicode="p" horiz-adv-x="624" 
d="M371.11 -12.54c-75.1504 0 -127.392 26.46 -159.071 75.2197h-4v-246.69h-158.78v714.15h152.16v-70.2197h4c34.3701 61.2803 95.5205 82.7607 161.931 82.7607c131.94 0 229.261 -105.7 229.261 -277.07c0 -171.91 -97.3203 -278.15 -225.5 -278.15zM317.129 423.23
c-70.5195 0 -117.17 -50.9805 -117.17 -158.16c0 -107.72 46.6504 -158.7 117.17 -158.7c71.5195 0 117.63 50.9805 117.63 158.7c0 107.18 -46.1104 158.16 -117.63 158.16z" />
    <glyph glyph-name="thorn" unicode="&#xfe;" horiz-adv-x="624" 
d="M371.11 542.68c128.19 0 225.489 -105.71 225.489 -277.08c0 -171.9 -97.3096 -278.141 -225.5 -278.141c-75.1504 0 -127.391 26.46 -159.07 75.2197h-4v-246.68h-158.78v908h158.78v-256.54h4c31.1504 47.6904 83.9307 75.2207 159.081 75.2207zM317.119 106.359
c71.5195 0 117.63 50.9805 117.63 159.24c0 106.65 -46.1104 157.631 -117.63 157.631c-70.5195 0 -117.17 -50.9805 -117.17 -157.631c0 -108.26 46.6504 -159.24 117.17 -159.24z" />
    <glyph glyph-name="q" unicode="q" horiz-adv-x="620" 
d="M252.9 -12.54c-128.19 0 -225.489 106.25 -225.489 278.16c0 171.37 97.3096 277.07 229.26 277.07c66.4004 0 127.551 -21.4805 161.921 -82.7607h4v70.2197h152.17v-714.15h-158.78v246.69h-4c-31.6904 -48.7598 -83.9307 -75.2295 -159.081 -75.2295zM306.892 423.25
c-71.5195 0 -117.63 -50.9805 -117.63 -158.16c0 -107.72 46.1104 -158.7 117.63 -158.7c70.5195 0 117.17 50.9805 117.17 158.7c0 107.18 -46.6504 158.16 -117.17 158.16z" />
    <glyph glyph-name="r" unicode="r" horiz-adv-x="411" 
d="M201.42 530.15l0.00976562 -82.2217h4c29.2197 56.9805 81.54 94.7607 160.83 94.7607c11.71 0 23.7998 -1.46973 31.9697 -3.92969v-147.26c-12.3896 1.45996 -35.7598 4 -56.8398 4c-76.3301 0 -133.35 -31.8701 -133.35 -135.45v-260.05h-158.78v530.15h152.16z" />
    <glyph glyph-name="racute" unicode="&#x155;" horiz-adv-x="411" 
d="M280.24 589h-113.54l85.3701 163.59h162.04zM201.42 530.15l0.00976562 -82.2217h4c29.2197 56.9805 81.54 94.7607 160.83 94.7607c11.71 0 23.7998 -1.46973 31.9697 -3.92969v-147.26c-12.3896 1.45996 -35.7598 4 -56.8398 4
c-76.3301 0 -133.35 -31.8701 -133.35 -135.45v-260.05h-158.78v530.15h152.16z" />
    <glyph glyph-name="rcaron" unicode="&#x159;" horiz-adv-x="411" 
d="M433.89 752.59l-138.3 -163.6h-143.71l-138.29 163.6h142.83l65.3203 -88.6904h4l65.3096 88.6904h142.84zM201.42 530.141l0.00976562 -82.2217h4c29.2197 56.9805 81.54 94.7607 160.83 94.7607c11.71 0 23.7998 -1.45996 31.9697 -3.92969v-147.26
c-12.3896 1.46973 -35.7598 4 -56.8398 4c-76.3301 0 -133.35 -31.8701 -133.35 -135.44v-260.06h-158.78v530.15h152.16z" />
    <glyph glyph-name="rcommaaccent" unicode="&#x157;" horiz-adv-x="411" 
d="M201.42 530.15l0.00976562 -82.2217h4c29.2197 56.9805 81.54 94.7607 160.83 94.7607c11.71 0 23.7998 -1.46973 31.9697 -3.92969v-147.26c-12.3896 1.45996 -35.7598 4 -56.8398 4c-76.3301 0 -133.35 -31.8701 -133.35 -135.45v-260.05h-158.78v530.15h152.16z
M200.38 -58.8516v-79.4805c0 -111.93 -44.4404 -171.979 -143.91 -177.279v68.5596c33.6699 2.07031 54.1299 25.6807 54.1299 63.8506h-54.1299v124.35h143.91z" />
    <glyph glyph-name="s" unicode="s" horiz-adv-x="547" 
d="M507.89 385.7l-146.553 -16.7783c-9.08984 46.96 -46.0596 73.2803 -94.54 73.2803c-45.4199 0 -78.3701 -19.4805 -78.3701 -55.5908c0 -34.1904 34.7197 -44.6504 88.04 -53.5801l55.2197 -8.53027c96.9004 -16 192.03 -44.54 192.03 -165.59
c0 -119.21 -109.35 -171.45 -253 -171.45c-140.37 0 -241.55 60.4102 -259.55 167.15l149.24 17.8496c10.5498 -56.7402 50.6602 -84.4502 111.771 -84.4502c54.5801 0 89.6904 24.0195 89.6904 63.5996c0 32.5 -36.3398 47.5 -93.8896 56.8896l-60.5195 9.53027
c-86.2998 13.4697 -177.67 44.6895 -177.67 160.06c0 106.65 111.24 164.591 235.851 164.591c127.28 0 224.49 -58.1104 242.25 -156.98z" />
    <glyph glyph-name="sacute" unicode="&#x15b;" horiz-adv-x="547" 
d="M322.14 589h-113.53l85.3701 163.59h162.03zM507.89 385.7l-146.553 -16.7783c-9.08984 46.96 -46.0596 73.2803 -94.54 73.2803c-45.4199 0 -78.3701 -19.4805 -78.3701 -55.5908c0 -34.1904 34.7197 -44.6504 88.04 -53.5801l55.2197 -8.53027
c96.9004 -16 192.03 -44.54 192.03 -165.59c0 -119.21 -109.35 -171.45 -253 -171.45c-140.37 0 -241.55 60.4102 -259.55 167.15l149.24 17.8496c10.5498 -56.7402 50.6602 -84.4502 111.771 -84.4502c54.5801 0 89.6904 24.0195 89.6904 63.5996
c0 32.5 -36.3398 47.5 -93.8896 56.8896l-60.5195 9.53027c-86.2998 13.4697 -177.67 44.6895 -177.67 160.06c0 106.65 111.24 164.591 235.851 164.591c127.28 0 224.49 -58.1104 242.25 -156.98z" />
    <glyph glyph-name="scaron" unicode="&#x161;" horiz-adv-x="547" 
d="M475.79 752.59l-138.3 -163.59h-143.7l-138.3 163.59h142.84l65.3096 -88.6797h4l65.3203 88.6797h142.83zM507.88 385.7l-146.541 -16.7783c-9.09961 46.96 -46.0596 73.2803 -94.54 73.2803c-45.4297 0 -78.3701 -19.4805 -78.3701 -55.5908
c0 -34.1904 34.7197 -44.6504 88.0293 -53.5801l55.2197 -8.53027c96.9102 -16 192.04 -44.54 192.04 -165.59c0 -119.21 -109.35 -171.45 -253 -171.45c-140.37 0 -241.561 60.4102 -259.561 167.15l149.24 17.8496c10.5596 -56.7402 50.6699 -84.4502 111.78 -84.4502
c54.5703 0 89.6807 24.0195 89.6807 63.5996c0 32.5 -36.3301 47.5 -93.8896 56.8896l-60.5195 9.53027c-86.29 13.4697 -177.66 44.6895 -177.66 160.06c0 106.65 111.24 164.591 235.851 164.591c127.28 0 224.48 -58.1104 242.24 -156.98z" />
    <glyph glyph-name="scedilla" unicode="&#x15f;" horiz-adv-x="547" 
d="M293.85 -33.3896l0.0166016 -5.01758c63.9502 -6.08008 102.48 -34.1504 102.48 -90.7607c0 -68.6104 -54.1504 -102.91 -150.98 -102.91c-40.9697 0 -86.1895 9.15039 -116.869 25.7607l21.2197 65.5996c21.0703 -10.54 54.9805 -22.7598 89.6406 -22.7598
c22.2998 0 44.0801 11.0801 44.0801 35.3203c0 24.3096 -21.7803 29.3896 -44.0801 29.3896c-14.46 0 -27.54 -3.54004 -41.6104 -7.54004v64.3701l29.46 31.3896c-117.76 11 -200.04 70.0996 -216.04 165.149l149.24 17.8496
c10.5596 -56.7402 50.6699 -84.4404 111.78 -84.4404c54.5703 0 89.6807 24.0195 89.6807 63.5898c0 32.5 -36.3301 47.5 -93.8896 56.8896l-60.5195 9.54004c-86.29 13.46 -177.66 44.6797 -177.66 160.05c0 106.65 111.24 164.601 235.851 164.601
c127.28 0 224.48 -58.1104 242.24 -156.98l-146.55 -16.7803c-9.09961 46.96 -46.0596 73.2803 -94.54 73.2803c-45.4297 0 -78.3701 -19.4805 -78.3701 -55.5908c0 -34.1904 34.7197 -44.6504 88.0293 -53.5801l55.2197 -8.53027c96.9102 -16 192.04 -44.54 192.04 -165.59
c0 -106.6 -87.5996 -159.449 -209.02 -169.449z" />
    <glyph glyph-name="scircumflex" unicode="&#x15d;" horiz-adv-x="547" 
d="M267.64 677.68h-3.98926l-65.3203 -88.6797h-142.83l138.29 163.59h143.71l138.29 -163.59h-142.83zM507.891 385.699l-146.553 -16.7783c-9.08984 46.96 -46.0596 73.2803 -94.54 73.2803c-45.4199 0 -78.3701 -19.4805 -78.3701 -55.5908
c0 -34.1904 34.7197 -44.6504 88.04 -53.5801l55.2197 -8.53027c96.9004 -16 192.03 -44.54 192.03 -165.59c0 -119.21 -109.35 -171.45 -253 -171.45c-140.37 0 -241.55 60.4102 -259.55 167.15l149.24 17.8496c10.5498 -56.7402 50.6602 -84.4502 111.771 -84.4502
c54.5801 0 89.6904 24.0195 89.6904 63.5996c0 32.5 -36.3398 47.5 -93.8896 56.8896l-60.5195 9.53027c-86.2998 13.4697 -177.67 44.6895 -177.67 160.06c0 106.65 111.24 164.591 235.851 164.591c127.28 0 224.49 -58.1104 242.25 -156.98z" />
    <glyph glyph-name="scommaaccent" unicode="&#x219;" horiz-adv-x="547" 
d="M507.89 385.7l-146.553 -16.7783c-9.08984 46.96 -46.0596 73.2803 -94.54 73.2803c-45.4199 0 -78.3701 -19.4805 -78.3701 -55.5908c0 -34.1904 34.7197 -44.6504 88.04 -53.5801l55.2197 -8.53027c96.9004 -16 192.03 -44.54 192.03 -165.59
c0 -119.21 -109.35 -171.45 -253 -171.45c-140.37 0 -241.55 60.4102 -259.55 167.15l149.24 17.8496c10.5498 -56.7402 50.6602 -84.4502 111.771 -84.4502c54.5801 0 89.6904 24.0195 89.6904 63.5996c0 32.5 -36.3398 47.5 -93.8896 56.8896l-60.5195 9.53027
c-86.2998 13.4697 -177.67 44.6895 -177.67 160.06c0 106.65 111.24 164.591 235.851 164.591c127.28 0 224.49 -58.1104 242.25 -156.98zM342.447 -58.8584l0.00976562 -79.4805c0 -111.92 -44.4502 -171.979 -143.91 -177.27v68.5498
c33.6602 2.08008 54.1299 25.6904 54.1299 63.8506h-54.1299v124.35h143.9z" />
    <glyph glyph-name="germandbls" unicode="&#xdf;" horiz-adv-x="663" 
d="M450.44 321.44l80.0713 -42.2324c55.9502 -30.0195 105.54 -58.1699 105.54 -142.689c0 -104.67 -83.9805 -149.06 -207.921 -149.06c-108.21 0 -170.67 44.1699 -189.6 124.979l127.3 15.3203c9.78027 -29.3398 31.04 -46.1895 62.2998 -46.1895
c37.1104 0 53.9004 17.2402 53.9004 43.6504c0 25.5498 -23.9199 39.9395 -57.0703 57.4092l-56.7598 30.4199c-69.9805 36.0801 -90.4307 68.2305 -90.4307 111.211c0 124.24 152.37 92.5303 152.37 207.16c0 46.4697 -37.9199 85.1201 -99.5 85.1201
c-62.1104 0 -121.53 -35.3398 -121.53 -130.3l-0.540039 -486.24h-159.31v498.46c0 181.98 156 238.61 283.37 238.61c167.87 0 257.37 -98.8301 257.37 -204.5c0 -143.79 -171.8 -142.31 -171.8 -183.18c0 -8.32031 12.8496 -17.5605 32.2393 -27.9502z" />
    <glyph glyph-name="t" unicode="t" horiz-adv-x="378" 
d="M315.26 119.68c15.8398 0 30.1582 0.000976562 41.9385 0.470703v-120.15c-14.7598 -1.54004 -61.2793 -2 -100.169 -2c-115.55 0 -163.85 24.1504 -163.85 134.261v295.18h-82.7002v102.71h82.7002v146.85h158.78v-146.85h108.02v-102.71h-108.02v-256.44
c0 -46.3203 17.9297 -51.3203 63.2998 -51.3203z" />
    <glyph glyph-name="tbar" unicode="&#x167;" horiz-adv-x="378" 
d="M251.96 427.44l-0.00195312 -66.5703h108.02v-87.04h-108.02v-102.83c0 -46.3203 17.9199 -51.3203 63.29 -51.3203c15.8398 0 30.1699 0 41.9502 0.469727v-120.15c-14.7598 -1.54004 -61.2793 -2 -100.169 -2c-115.55 0 -163.85 24.1504 -163.85 134.261v141.57
h-82.7002v87.04h82.7002v66.5703h-82.7002v102.71h82.7002v146.85h158.78v-146.85h108.02v-102.71h-108.02z" />
    <glyph glyph-name="tcaron" unicode="&#x165;" horiz-adv-x="550" 
d="M543.89 724v-79.4805c0 -111.93 -44.4404 -171.979 -143.91 -177.279v68.5596c33.6699 2.07031 54.1299 25.6807 54.1299 63.8506h-54.1299v124.35h143.91zM315.26 119.68c15.8301 0 30.168 0.000976562 41.9482 0.470703v-120.15
c-14.7598 -1.54004 -61.2793 -2 -100.169 -2c-115.56 0 -163.85 24.1504 -163.85 134.261v295.18h-82.71v102.71h82.71v146.85h158.78v-146.85h108.02v-102.71h-108.02v-256.44c0 -46.3203 17.9199 -51.3203 63.29 -51.3203z" />
    <glyph glyph-name="tcedilla" unicode="&#x163;" horiz-adv-x="378" 
d="M10.4805 427.44l-0.00195312 102.702h82.71v146.85h158.78v-146.85h108.02v-102.71h-108.02v-256.44c0 -46.3203 17.9199 -51.3203 63.29 -51.3203c15.8398 0 30.1699 0 41.9502 0.469727v-120.15c-11.2197 -1.54004 -39.6602 -1.54004 -70.2598 -2l-28.3896 -31.3896v-5
c63.9502 -6.08008 102.48 -34.1504 102.48 -90.7607c0 -68.6104 -54.1504 -102.91 -150.98 -102.91c-40.9697 0 -86.1895 9.15039 -116.869 25.7607l21.2197 65.5996c21.0703 -10.54 54.9805 -22.7598 89.6406 -22.7598c22.2998 0 44.0801 11.0801 44.0801 35.3203
c0 24.3096 -21.7803 29.3896 -44.0801 29.3896c-14.46 0 -27.54 -3.54004 -41.6104 -7.54004v64.3701l40 42.4697c-76.04 8.53027 -109.26 40.75 -109.26 131.72v295.18h-82.7002z" />
    <glyph glyph-name="uni021B" unicode="&#x21b;" horiz-adv-x="378" 
d="M315.26 119.68c15.8398 0 30.1582 0.000976562 41.9385 0.470703v-120.15c-14.7598 -1.54004 -61.2793 -2 -100.169 -2c-115.55 0 -163.85 24.1504 -163.85 134.261v295.18h-82.7002v102.71h82.7002v146.85h158.78v-146.85h108.02v-102.71h-108.02v-256.44
c0 -46.3203 17.9297 -51.3203 63.2998 -51.3203zM297.138 -58.8496l0.00976562 -79.4805c0 -111.93 -44.4502 -171.979 -143.91 -177.279v68.5596c33.6602 2.07031 54.1299 25.6807 54.1299 63.8506h-54.1299v124.35h143.9z" />
    <glyph glyph-name="u" unicode="u" 
d="M408.02 71.1504l-4.01074 -0.000976562c-33.4805 -47.1797 -87.1104 -83.6797 -168.83 -83.6797c-104.67 0 -185.93 60.29 -185.93 194.83v347.85h158.78v-309.34c0 -78.0498 32.4102 -106.609 90.2197 -106.609c54.1904 0 103.15 40.9697 103.15 128.63v287.32h158.78
v-530.15h-152.16v71.1504z" />
    <glyph glyph-name="uacute" unicode="&#xfa;" 
d="M361.22 589h-113.53l85.3701 163.59h162.03zM408.02 71.1504l-4.01074 -0.000976562c-33.4805 -47.1797 -87.1104 -83.6797 -168.83 -83.6797c-104.66 0 -185.92 60.29 -185.92 194.83v347.85h158.78v-309.34c0 -78.0498 32.4004 -106.609 90.2207 -106.609
c54.1797 0 103.149 40.9697 103.149 128.63v287.32h158.78v-530.15h-152.17v71.1504z" />
    <glyph glyph-name="ubreve" unicode="&#x16d;" 
d="M386.03 753.66h104.249c-3.83008 -108.13 -90.3496 -167.59 -185.56 -167.59c-95.6602 0 -181.72 59.46 -185.55 167.59h104.24c6.53027 -46.1797 41.0107 -70.79 81.3105 -70.79c39.7598 0 74.7793 24.6104 81.3096 70.79zM408.02 71.1406l-4.01074 0.0107422
c-33.4805 -47.1904 -87.1104 -83.6904 -168.83 -83.6904c-104.67 0 -185.93 60.2998 -185.93 194.83v347.85h158.78v-309.33c0 -78.0596 32.4102 -106.609 90.2197 -106.609c54.1904 0 103.15 40.96 103.15 128.63v287.31h158.78v-530.15h-152.16v71.1504z" />
    <glyph glyph-name="ucircumflex" unicode="&#xfb;" 
d="M306.72 677.68h-3.98926l-65.3203 -88.6797h-142.83l138.29 163.59h143.71l138.29 -163.59h-142.83zM408.021 71.1494l-4.01074 -0.000976562c-33.4805 -47.1797 -87.1104 -83.6797 -168.83 -83.6797c-104.66 0 -185.92 60.29 -185.92 194.83v347.85h158.78v-309.34
c0 -78.0498 32.4004 -106.609 90.2207 -106.609c54.1797 0 103.149 40.9697 103.149 128.63v287.32h158.78v-530.15h-152.17v71.1504z" />
    <glyph glyph-name="udieresis" unicode="&#xfc;" 
d="M127.87 720.29h138.66v-120.65h-138.66v120.65zM342.9 720.29h138.67v-120.65h-138.67v120.65zM408.011 71.1396l-4.01074 0.0107422c-33.4805 -47.1904 -87.1104 -83.6904 -168.83 -83.6904c-104.66 0 -185.92 60.2998 -185.92 194.83v347.85h158.78v-309.33
c0 -78.0596 32.4004 -106.609 90.2207 -106.609c54.1797 0 103.149 40.96 103.149 128.63v287.31h158.78v-530.15h-152.17v71.1504z" />
    <glyph glyph-name="ugrave" unicode="&#xf9;" 
d="M275.85 752.59l85.3701 -163.6h-113.54l-133.87 163.6h162.04zM408.01 71.1406l-4.01074 0.0107422c-33.4805 -47.1904 -87.1104 -83.6904 -168.83 -83.6904c-104.66 0 -185.92 60.2998 -185.92 194.83v347.85h158.78v-309.33
c0 -78.0596 32.4004 -106.609 90.2207 -106.609c54.1797 0 103.149 40.96 103.149 128.63v287.31h158.78v-530.15h-152.17v71.1504z" />
    <glyph glyph-name="uhungarumlaut" unicode="&#x171;" 
d="M261.89 589h-100.851l57.6104 163.59h138.37zM448.409 589h-100.86l58.1504 163.59h137.84zM408.009 71.1504l-4.01074 -0.000976562c-33.4805 -47.1797 -87.1104 -83.6797 -168.83 -83.6797c-104.66 0 -185.92 60.29 -185.92 194.83v347.85h158.78v-309.34
c0 -78.0498 32.4004 -106.609 90.2207 -106.609c54.1797 0 103.149 40.9697 103.149 128.63v287.32h158.78v-530.15h-152.17v71.1504z" />
    <glyph glyph-name="umacron" unicode="&#x16b;" 
d="M146.98 625.61v97.3301h315.48v-97.3301h-315.48zM408.011 71.1504l-4.01074 -0.000976562c-33.4805 -47.1797 -87.1104 -83.6797 -168.83 -83.6797c-104.66 0 -185.92 60.29 -185.92 194.83v347.85h158.78v-309.34c0 -78.0498 32.4004 -106.609 90.2207 -106.609
c54.1797 0 103.149 40.9697 103.149 128.63v287.32h158.78v-530.15h-152.17v71.1504z" />
    <glyph glyph-name="uogonek" unicode="&#x173;" 
d="M560.18 530.15l-0.00976562 -530.151c-68 -37.2402 -94.8301 -75.5498 -94.8301 -105.26c0 -25.2402 25.5303 -37.7002 51.1602 -37.7002c18.8398 0 39.0596 2 55.5195 7.45996v-89.0195c-20.2197 -5.53027 -44.75 -7.53027 -74.9697 -7.53027
c-93.6299 0 -146.78 36.1504 -146.78 103.37c0 54.6797 35.3096 101.609 90.5293 128.68h-32.79v71.1504h-4c-33.4805 -47.1797 -87.1104 -83.6797 -168.83 -83.6797c-104.67 0 -185.93 60.29 -185.93 194.83v347.85h158.78v-309.34
c0 -78.0498 32.4102 -106.609 90.2197 -106.609c54.1904 0 103.15 40.9697 103.15 128.63v287.32h158.78z" />
    <glyph glyph-name="uring" unicode="&#x16f;" 
d="M305.18 587c-67.7598 0 -120.52 50.1504 -120.52 116.521s52.7598 116.521 120.52 116.521c66.3701 0 119.59 -50.1504 119.59 -116.521s-53.2197 -116.521 -119.59 -116.521zM305.18 650.98c27.54 0 49.54 21 49.54 52.5303c0 31.54 -22 52.54 -49.54 52.54
c-28.9199 0 -50.46 -21 -50.46 -52.54c0 -31.5303 21.54 -52.5303 50.46 -52.5303zM408.02 71.1406l-4.01074 0.0107422c-33.4805 -47.1904 -87.1104 -83.6904 -168.83 -83.6904c-104.67 0 -185.93 60.2998 -185.93 194.83v347.85h158.78v-309.33
c0 -78.0596 32.4102 -106.609 90.2197 -106.609c54.1904 0 103.15 40.96 103.15 128.63v287.31h158.78v-530.15h-152.16v71.1504z" />
    <glyph glyph-name="utilde" unicode="&#x169;" 
d="M491.52 737.79l-77.6797 9.09961c-6.53027 -31.7803 -22.0703 -40.71 -38.0703 -40.71c-14.5303 0 -27.5303 7.92969 -41.1406 16.46l-31.21 19.3701c-16.46 9.92969 -35 18.6299 -58.8496 18.6299c-65.3496 0 -115.72 -38.5898 -126.64 -130.56l77.6602 -9.08984
c6.54004 31.7803 22.0703 40.7002 38.0703 40.7002c13.4697 0 27.54 -7.91992 41.1504 -16.46l31.21 -19.3701c15.46 -9.91992 33.9297 -18.6299 58.8496 -18.6299c65.3496 0 115.72 38.5996 126.649 130.56zM408.01 71.1494l-4.01074 -0.000976562
c-33.4805 -47.1797 -87.1104 -83.6797 -168.83 -83.6797c-104.67 0 -185.93 60.29 -185.93 194.83v347.85h158.78v-309.34c0 -78.0498 32.4102 -106.609 90.2197 -106.609c54.1904 0 103.15 40.9697 103.15 128.63v287.32h158.78v-530.15h-152.16v71.1504z" />
    <glyph glyph-name="v" unicode="v" horiz-adv-x="568" 
d="M378.07 0h-188.819l-190.63 530.15h171.47l113.61 -357.45h4l113.39 357.45h168.46z" />
    <glyph glyph-name="w" unicode="w" horiz-adv-x="883" 
d="M884.11 530.15l-171.54 -530.15h-176.69l-93.9805 348.18h-4l-93.9805 -348.18h-173.29l-172 530.15h174.15l92.9805 -353.67h4l87.29 353.67h174.78l87.2998 -353.67h4l92.9805 353.67h168z" />
    <glyph glyph-name="wacute" unicode="&#x1e83;" horiz-adv-x="883" 
d="M500.94 589h-113.53l85.3701 163.59h162.03zM884.11 530.15l-171.541 -530.15h-176.68l-93.9805 348.18h-4l-93.9805 -348.18h-173.3l-172 530.15h174.15l92.9805 -353.67h4l87.2998 353.67h174.78l87.29 -353.67h4l92.9805 353.67h168z" />
    <glyph glyph-name="wcircumflex" unicode="&#x175;" horiz-adv-x="883" 
d="M446.44 677.68h-3.98926l-65.3203 -88.6797h-142.83l138.29 163.59h143.71l138.29 -163.59h-142.83zM884.111 530.149l-171.541 -530.15h-176.68l-93.9805 348.18h-4l-93.9805 -348.18h-173.3l-172 530.15h174.15l92.9805 -353.67h4l87.2998 353.67h174.78l87.29 -353.67
h4l92.9805 353.67h168z" />
    <glyph glyph-name="wdieresis" unicode="&#x1e85;" horiz-adv-x="883" 
d="M267.59 720.29h138.66v-120.65h-138.66v120.65zM482.62 720.29h138.67v-120.65h-138.67v120.65zM884.1 530.14l-171.541 -530.15h-176.68l-93.9805 348.19h-4l-93.9805 -348.19h-173.3l-172 530.15h174.15l92.9805 -353.66h4l87.2998 353.66h174.78l87.29 -353.66h4
l92.9805 353.66h168z" />
    <glyph glyph-name="wgrave" unicode="&#x1e81;" horiz-adv-x="883" 
d="M415.57 752.59l85.3701 -163.6h-113.53l-133.87 163.6h162.03zM884.11 530.141l-171.54 -530.15h-176.69l-93.9805 348.19h-4l-93.9805 -348.19h-173.29l-172 530.15h174.15l92.9805 -353.66h4l87.29 353.66h174.78l87.2998 -353.66h4l92.9805 353.66h168z" />
    <glyph glyph-name="x" unicode="x" horiz-adv-x="564" 
d="M379.57 0l-97.4395 163.53l-101.91 -163.53h-176.22l179.54 267l-166.63 263.15h175.85l89.7598 -152.78l90.8301 152.78h172.39l-166.7 -260l180.53 -270.15h-180z" />
    <glyph glyph-name="y" unicode="y" horiz-adv-x="568" 
d="M567.7 530.15l-189.87 -530.141c-62.3896 -175.3 -132.89 -196.54 -229.54 -196.54c-37.5898 0 -72.6299 1.54004 -94.6797 4.07031v128.06c16.5898 -1.54004 37.7998 -4 68.8701 -4c44.7998 0 63.7998 14.79 80.4502 56.4004l5.84961 15.2402l-212 526.91h172.68
l119 -343.76h4l105.17 343.76h170.07z" />
    <glyph glyph-name="yacute" unicode="&#xfd;" horiz-adv-x="568" 
d="M340.28 589h-113.54l85.3701 163.59h162.04zM567.71 530.15l-189.871 -530.141c-62.3896 -175.3 -132.89 -196.54 -229.54 -196.54c-37.5996 0 -72.6299 1.54004 -94.6895 4.07031v128.06c16.5996 -1.54004 37.7998 -4 68.8799 -4c44.79 0 63.79 14.79 80.4404 56.4004
l5.84961 15.2402l-212 526.91h172.69l119 -343.76h4l105.16 343.76h170.08z" />
    <glyph glyph-name="ycircumflex" unicode="&#x177;" horiz-adv-x="568" 
d="M285.78 677.68h-4.00098l-65.3096 -88.6797h-142.84l138.3 163.59h143.7l138.3 -163.59h-142.84zM567.709 530.149l-189.871 -530.141c-62.3896 -175.3 -132.89 -196.54 -229.54 -196.54c-37.5996 0 -72.6299 1.54004 -94.6895 4.07031v128.06
c16.5996 -1.54004 37.7998 -4 68.8799 -4c44.79 0 63.79 14.79 80.4404 56.4004l5.84961 15.2402l-212 526.91h172.69l119 -343.76h4l105.16 343.76h170.08z" />
    <glyph glyph-name="ydieresis" unicode="&#xff;" horiz-adv-x="568" 
d="M106.92 720.29h138.67v-120.65h-138.67v120.65zM321.96 720.29h138.66v-120.65h-138.66v120.65zM567.7 530.14l-189.871 -530.141c-62.3896 -175.29 -132.89 -196.53 -229.54 -196.53c-37.5996 0 -72.6299 1.53027 -94.6895 4.07031v128.05
c16.5996 -1.53027 37.7998 -4 68.8799 -4c44.79 0 63.79 14.7998 80.4404 56.4102l5.84961 15.2402l-212 526.9h172.69l119 -343.76h4l105.16 343.76h170.08z" />
    <glyph glyph-name="ygrave" unicode="&#x1ef3;" horiz-adv-x="568" 
d="M254.91 752.59l85.3701 -163.6h-113.54l-133.87 163.6h162.04zM567.7 530.141l-189.87 -530.141c-62.3896 -175.29 -132.89 -196.53 -229.54 -196.53c-37.5898 0 -72.6299 1.53027 -94.6797 4.07031v128.05c16.5898 -1.53027 37.7998 -4 68.8701 -4
c44.7998 0 63.7998 14.7998 80.4502 56.4102l5.84961 15.2402l-212 526.9h172.68l119 -343.76h4l105.17 343.76h170.07z" />
    <glyph glyph-name="z" unicode="z" horiz-adv-x="524" 
d="M30.7803 0l-0.000976562 121.85l259.78 285.61h-245.85v122.68h449.03v-121.85l-260.24 -286.07h260.24v-122.22h-462.96z" />
    <glyph glyph-name="zacute" unicode="&#x17a;" horiz-adv-x="524" 
d="M326.22 589h-113.53l85.3701 163.59h162.03zM30.7793 0l-0.000976562 121.85l259.78 285.61h-245.85v122.68h449.03v-121.85l-260.24 -286.07h260.24v-122.22h-462.96z" />
    <glyph glyph-name="zcaron" unicode="&#x17e;" horiz-adv-x="524" 
d="M479.87 752.59l-138.3 -163.59h-143.71l-138.29 163.59h142.83l65.3203 -88.6797h4l65.3096 88.6797h142.84zM30.7705 0l-0.000976562 121.85l259.78 285.61h-245.85v122.68h449.04v-121.85l-260.24 -286.07h260.24v-122.22h-462.97z" />
    <glyph glyph-name="zdotaccent" unicode="&#x17c;" horiz-adv-x="524" 
d="M190.33 724h158.78v-124.35h-158.78v124.35zM30.7803 0l-0.000976562 121.85l259.78 285.61h-245.85v122.68h449.03v-121.85l-260.24 -286.07h260.24v-122.22h-462.96z" />
    <glyph glyph-name="f_i" horiz-adv-x="643" 
d="M315.72 621.61c-39.5898 0 -63.7607 -12.9102 -63.7607 -55.1699v-36.29h108.02v-102.71h-108.02v-427.44h-158.78v427.44h-82.7002v102.71h82.7002v55.4199c0 121.41 80.9502 150.96 192.58 150.96c28.7002 0 68.6104 -4 88.9004 -6.45996v-111.39
c-16 1.45996 -40.0898 2.92969 -58.9395 2.92969zM434.938 724h158.78v-124.35h-158.78v124.35zM434.938 530.15h158.78v-530.15h-158.78v530.15z" />
    <glyph glyph-name="f_l" horiz-adv-x="646" 
d="M315.72 621.61c-39.5898 0 -63.7607 -12.9102 -63.7607 -55.1699v-36.29h108.02v-102.71h-108.02v-427.44h-158.78v427.44h-82.7002v102.71h82.7002v55.4199c0 121.41 80.9502 150.96 192.58 150.96c28.7002 0 68.6104 -4 88.9004 -6.45996v-111.39
c-16 1.45996 -40.0898 2.92969 -58.9395 2.92969zM436.329 724h158.78v-724h-158.78v724z" />
    <glyph glyph-name="fi" unicode="&#xfb01;" horiz-adv-x="643" 
d="M315.72 621.61c-39.5898 0 -63.7607 -12.9102 -63.7607 -55.1699v-36.29h108.02v-102.71h-108.02v-427.44h-158.78v427.44h-82.7002v102.71h82.7002v55.4199c0 121.41 80.9502 150.96 192.58 150.96c28.7002 0 68.6104 -4 88.9004 -6.45996v-111.39
c-16 1.45996 -40.0898 2.92969 -58.9395 2.92969zM434.938 724h158.78v-124.35h-158.78v124.35zM434.938 530.15h158.78v-530.15h-158.78v530.15z" />
    <glyph glyph-name="fl" unicode="&#xfb02;" horiz-adv-x="646" 
d="M315.72 621.61c-39.5898 0 -63.7607 -12.9102 -63.7607 -55.1699v-36.29h108.02v-102.71h-108.02v-427.44h-158.78v427.44h-82.7002v102.71h82.7002v55.4199c0 121.41 80.9502 150.96 192.58 150.96c28.7002 0 68.6104 -4 88.9004 -6.45996v-111.39
c-16 1.45996 -40.0898 2.92969 -58.9395 2.92969zM436.329 724h158.78v-724h-158.78v724z" />
    <glyph glyph-name="ordfeminine" unicode="&#xaa;" horiz-adv-x="399" 
d="M364.7 379l-110 -0.000976562c-6.07031 7.08008 -9 25.6104 -9.45996 48.6904c-16.2402 -35.9297 -58.3398 -56.6895 -108.78 -56.6895c-57.3203 0 -112 35.8496 -112 98.3896c0 71.3896 49.3096 98.3096 135.09 110c68.6904 9.67969 85.6904 18 85.6904 36.9199
c0 20.6299 -17.3896 32.7295 -47.4297 32.7295c-27.1602 0 -48.1104 -14.9297 -57.4199 -43.4102l-102.93 10.3203c15 67.29 76.7598 105.9 162.819 105.9c103.76 0 155.42 -42.8496 155.42 -113.979v-165.78c0 -32.7803 1 -51.2402 9 -63.0898zM245.24 507.779
l0.000976562 29.0195c-10.46 -5.78027 -31.1104 -8.62988 -58.6699 -14.1699c-30.2402 -6.07031 -49.1104 -19.9199 -49.1104 -44.8701c0 -23.0898 15.71 -37.0195 40.2598 -37.0195c27.7197 0 67.5195 18.2402 67.5195 67.04zM379.801 -0.000976562h-360.48v109.32h360.48
v-109.32z" />
    <glyph glyph-name="ordmasculine" unicode="&#xba;" horiz-adv-x="399" 
d="M199.05 721.85c113.6 0 180.75 -66.3203 180.75 -175.931c0 -109.15 -67.1504 -174.931 -180.75 -174.931c-113.66 0 -179.74 65.7803 -179.74 174.931c0 109.61 66.0801 175.931 179.74 175.931zM199.05 449.569c41.1904 0 67.21 27.6504 67.21 96.3506
c0 69.1699 -26.0195 96.8203 -67.21 96.8203c-40.1797 0 -66.1992 -27.6504 -66.1992 -96.8203c0 -68.7002 26.0195 -96.3506 66.1992 -96.3506zM379.79 -0.0107422h-360.48v109.32h360.48v-109.32z" />
    <glyph glyph-name="zero" unicode="0" horiz-adv-x="654" 
d="M327.05 714.46c175.37 0 289.95 -102.42 289.95 -364.46c0 -261.57 -114.58 -364 -289.95 -364s-289.94 102.43 -289.94 364c0 262.04 114.57 364.46 289.94 364.46zM327.05 106.979c59.2197 0 121.8 30.5195 121.8 243.02c0 212.97 -62.5801 243.489 -121.8 243.489
s-121.79 -30.5195 -121.79 -243.489c0 -212.5 62.5703 -243.02 121.79 -243.02z" />
    <glyph glyph-name="one" unicode="1" horiz-adv-x="399" 
d="M335.29 699.92v-699.919h-161.61v474.39h-141v108.52h21c90.2197 0 134.2 58.3496 146.891 117.01h134.72z" />
    <glyph glyph-name="two" unicode="2" horiz-adv-x="594" 
d="M554.13 133.35l0.00878906 -133.351h-524.19v24.4805c0 174.58 96.04 245.65 199.26 307.301l71.1504 44.21c50.7402 30.8301 91.8506 66.3896 91.8506 120.279c0 58.9004 -31.04 91.9199 -91.5596 91.9199s-100.779 -40.2803 -106.479 -125.46l-160.47 5.62988
c9.62988 164.03 125.689 245.11 266.949 245.11c143.4 0 254.33 -67.3701 254.33 -207.84c0 -146.13 -88.8203 -191.37 -178.67 -244.18l-59.46 -37.0596c-56.7598 -35.2803 -92.5801 -71.3906 -94.5 -91.041h331.78z" />
    <glyph glyph-name="three" unicode="3" horiz-adv-x="613" 
d="M233.28 414.5l63.6133 -0.00878906c63.4297 0 104.46 35.0195 104.46 89.2998c0 54.7402 -41.0303 87.6104 -94.46 87.6104c-53.4199 0 -94.6104 -30.7197 -101.391 -97.8301l-158.39 9.45996c9.62988 138.04 108.84 210.96 259.78 210.96
c150.95 0 254.17 -72.5303 254.17 -202.141c0 -72.2197 -46.1504 -120.46 -106.841 -142.7v-4c68.3896 -19.7803 121.859 -69.7998 121.859 -160.49c0 -157.18 -114.69 -218.13 -269.721 -218.13c-155.04 0 -266.93 67.2402 -279.87 225.67l162.92 9.91992
c7.55957 -84.8896 56.2793 -113 116.939 -113c60.6699 0 105.33 36.3398 105.87 98.2295c0 66.0498 -44.6699 96 -115.33 96h-63.6104v111.15z" />
    <glyph glyph-name="four" unicode="4" horiz-adv-x="619" 
d="M507.05 277.5l82.4805 -0.00976562v-118.98h-82.4805v-158.52h-161.61v158.52h-315.89v132.97l247.85 408.44h229.65v-422.42zM158.011 281.49v-4h187.43v305.45h-4z" />
    <glyph glyph-name="five" unicode="5" horiz-adv-x="601" 
d="M329.96 478.07c106.28 0 233.78 -70.0303 233.78 -245.53c0 -173.97 -127.97 -246.54 -269.1 -246.54s-247.16 66.0898 -270.55 199.979l162.31 16.9102c9.55957 -57.6699 48.7393 -94.2998 108.239 -94.2998s105.24 39.5801 105.24 125.021
c0 84.9805 -45.7402 124.021 -107.09 124.021c-48.2803 0 -81.54 -23.0195 -102.09 -48.0996h-151.32l33.1504 390.39h443.6v-128.66h-314.34l-12.2402 -145.11h4c34.7803 35.3096 76.0205 51.9199 136.41 51.9199z" />
    <glyph glyph-name="six" unicode="6" horiz-adv-x="627" 
d="M355.39 459.13c108.52 0 234.689 -77.3721 234.689 -228.072c0 -175.74 -144.43 -245.061 -265.71 -245.061c-92.2002 0 -167.59 30.0801 -217.59 92.0205c-47.1299 57.7598 -69.6699 150.08 -69.6699 272.98c0 325.48 174.08 362.461 286.8 362.461
c128.09 0 223.46 -65.5195 253.63 -179.279l-154.02 -19.4404c-13.3203 50.0703 -45.6504 84.96 -99.6201 84.96c-59.5 0 -129.55 -37.0195 -129.55 -194.68v-6.92969h4c40.7002 42.1904 97.6504 61.04 157.04 61.04zM319.62 99.7578
c59.7197 0 113.83 41.1816 113.83 124.142c0 82.9697 -54.1104 124.149 -113.83 124.149c-62.7402 0 -118.46 -45.1104 -118.46 -124.141c0 -79.04 55.7197 -124.15 118.46 -124.15z" />
    <glyph glyph-name="seven" unicode="7" horiz-adv-x="562" 
d="M539.98 699.92v-66.1094c0 -192.63 -228.63 -260.16 -228.63 -610.33v-23.9404h-171.91v32.8496c0 246.22 140.41 406.12 227.41 527.88v4h-345.15v135.65h518.28z" />
    <glyph glyph-name="eight" unicode="8" horiz-adv-x="617" 
d="M308.66 -14c149.95 0 275.559 64.6797 275.559 209.46c0 91 -46 148.71 -118.61 177.93v4c62.1504 26 101.15 73.3096 101.15 142.85c0 134.07 -122.76 193.221 -258.1 193.221c-135.33 0 -258.09 -59.1504 -258.09 -193.221c0 -69.54 39 -116.85 101.15 -142.85v-4
c-72.6104 -29.2197 -118.61 -86.9297 -118.61 -177.93c0 -144.78 125.61 -209.46 275.551 -209.46zM308.658 605.07c54.5 0 108.83 -30.1602 108.83 -94.8799c0 -65.2598 -52.7197 -95.4297 -108.83 -95.4297s-108.83 30.1699 -108.83 95.4297
c0 64.7197 54.3301 94.8799 108.83 94.8799zM308.648 316.891c59.3496 0 117.541 -33.4102 117.541 -108.3s-57.04 -108.83 -117.54 -108.83s-117.53 33.9404 -117.53 108.83s58.1797 108.3 117.529 108.3z" />
    <glyph glyph-name="nine" unicode="9" horiz-adv-x="627" 
d="M271.79 240.33c-108.52 0 -234.689 77.3721 -234.689 228.072c0 175.74 144.43 245.061 265.71 245.061c92.2002 0 167.59 -30.0801 217.59 -92.0205c47.1299 -57.7598 69.6699 -150.08 69.6699 -272.98c0 -325.48 -174.08 -362.461 -286.8 -362.461
c-128.09 0 -223.46 65.5195 -253.63 179.279l154.02 19.4404c13.3203 -50.0703 45.6504 -84.96 99.6201 -84.96c59.5 0 129.55 37.0195 129.55 194.68v6.92969h-4c-40.7002 -42.1904 -97.6504 -61.04 -157.04 -61.04zM307.56 599.702
c-59.7197 0 -113.83 -41.1816 -113.83 -124.142c0 -82.9697 54.1104 -124.149 113.83 -124.149c62.7402 0 118.46 45.1104 118.46 124.141c0 79.04 -55.7197 124.15 -118.46 124.15z" />
    <glyph glyph-name="zero.tf" horiz-adv-x="600" 
d="M300.92 714.46c169.61 0 275.28 -102.42 275.28 -364.46c0 -261.57 -105.67 -364 -275.28 -364s-275.271 102.43 -275.271 364c0 262.04 105.66 364.46 275.271 364.46zM300.92 106.979c54.54 0 107.13 27.2998 107.13 243.02c0 216.18 -52.5898 243.479 -107.13 243.479
c-54.5303 0 -107.13 -27.2998 -107.13 -243.479c0 -215.72 52.5996 -243.02 107.13 -243.02z" />
    <glyph glyph-name="one.tf" horiz-adv-x="600" 
d="M565.04 128.27l0.00878906 -128.27h-492.1v128.28h165.24v346.11h-141v108.52h21c90.2197 0 134.2 58.3496 146.891 117.01h134.72v-571.65h165.24z" />
    <glyph glyph-name="two.tf" horiz-adv-x="600" 
d="M564.09 133.35l0.0078125 -133.351h-527.4v24.4805c0 174.58 97.6504 245.65 200.87 307.301l71.1504 44.21c50.7402 30.8301 93.46 66.3896 93.46 120.279c0 58.9004 -32.6504 91.9199 -93.1699 91.9199s-102.39 -40.2803 -108.1 -125.46l-160.46 5.62988
c9.62988 164.03 127.29 245.11 268.55 245.11c143.41 0 255.94 -67.3701 255.94 -207.84c0 -146.13 -90.4199 -191.37 -180.27 -244.18l-59.4697 -37.0596c-56.7598 -35.2803 -94.1797 -71.3906 -96.1094 -91.041h335z" />
    <glyph glyph-name="three.tf" horiz-adv-x="600" 
d="M240.89 414.5l63.6104 -0.00878906c63.4199 0 104.46 35.0195 104.46 89.2998c0 54.7402 -41.04 87.6104 -94.46 87.6104c-53.4297 0 -94.6094 -30.7197 -101.39 -97.8301l-158.39 9.45996c9.62988 138.04 108.83 210.96 259.78 210.96
c150.94 0 254.16 -72.5303 254.16 -202.141c0 -72.2197 -46.1504 -120.46 -106.83 -142.7v-4c68.3896 -19.7803 121.85 -69.7998 121.85 -160.49c0 -157.18 -114.68 -218.13 -269.72 -218.13c-155.03 0 -266.92 67.2402 -279.87 225.67l162.93 9.91992
c7.5498 -84.8896 56.2695 -113 116.939 -113c60.6602 0 105.87 36.3398 105.87 98.2295c0 66.0498 -44.6699 96 -115.33 96h-63.6104v111.15z" />
    <glyph glyph-name="four.tf" horiz-adv-x="600" 
d="M501.39 277.5l82.4805 -0.00976562v-118.98h-82.4805v-158.52h-161.61v158.52h-315.89v132.97l247.85 408.44h229.65v-422.42zM152.351 281.49v-4h187.42v305.45h-4z" />
    <glyph glyph-name="five.tf" horiz-adv-x="600" 
d="M338.4 478.07c106.28 0 233.78 -70.0303 233.78 -245.53c0 -173.97 -127.97 -246.54 -269.1 -246.54s-247.16 66.0898 -270.55 199.979l162.31 16.9102c9.55957 -57.6699 48.7393 -94.2998 108.239 -94.2998s105.24 39.5801 105.24 125.021
c0 84.9805 -45.7402 124.021 -107.09 124.021c-48.2803 0 -81.54 -23.0195 -102.09 -48.0996h-151.32l33.1504 390.39h443.6v-128.66h-314.34l-12.2402 -145.11h4c34.7803 35.3096 76.0205 51.9199 136.41 51.9199z" />
    <glyph glyph-name="six.tf" horiz-adv-x="600" 
d="M343.65 459.13c108.52 0 234.689 -77.3721 234.689 -228.072c0 -175.74 -144.43 -245.061 -265.71 -245.061c-92.2002 0 -167.59 30.0801 -217.59 92.0205c-47.1299 57.7598 -69.6699 150.08 -69.6699 272.98c0 325.48 174.08 362.461 286.8 362.461
c128.09 0 223.46 -65.5195 253.63 -179.279l-154.02 -19.4404c-13.3203 50.0703 -45.6504 84.96 -99.6201 84.96c-59.5 0 -129.55 -37.0195 -129.55 -194.68v-6.92969h4c40.7002 42.1904 97.6504 61.04 157.04 61.04zM307.881 99.7578
c59.7197 0 113.83 41.1816 113.83 124.142c0 82.9697 -54.1104 124.149 -113.83 124.149c-62.7402 0 -118.46 -45.1104 -118.46 -124.141c0 -79.04 55.7197 -124.15 118.46 -124.15z" />
    <glyph glyph-name="seven.tf" horiz-adv-x="600" 
d="M558.87 699.92v-66.1094c0 -192.63 -228.63 -260.16 -228.63 -610.33v-23.9404h-171.91v32.8496c0 246.22 140.41 406.12 227.41 527.88v4h-345.15v135.65h518.28z" />
    <glyph glyph-name="eight.tf" horiz-adv-x="600" 
d="M303.24 -14c149.94 0 275.549 64.6797 275.549 209.46c0 91 -46 148.71 -118.61 177.93v4c62.1504 26 101.15 73.3096 101.15 142.85c0 134.07 -122.76 193.221 -258.09 193.221c-135.34 0 -258.1 -59.1504 -258.1 -193.221c0 -69.54 39 -116.85 101.15 -142.85v-4
c-72.6104 -29.2197 -118.61 -86.9297 -118.61 -177.93c0 -144.78 125.61 -209.46 275.561 -209.46zM303.238 605.07c54.5 0 108.82 -30.1602 108.82 -94.8799c0 -65.2598 -52.7197 -95.4297 -108.83 -95.4297s-108.83 30.1699 -108.83 95.4297
c0 64.7197 54.3398 94.8799 108.84 94.8799zM303.229 316.891c59.3496 0 117.53 -33.4102 117.53 -108.3s-57.0303 -108.83 -117.53 -108.83s-117.54 33.9404 -117.54 108.83s58.1904 108.3 117.54 108.3z" />
    <glyph glyph-name="nine.tf" horiz-adv-x="600" 
d="M257.74 239.87c-108.52 -0.00976562 -234.688 77.3613 -234.688 228.071c0 175.74 144.42 245.05 265.7 245.05c92.21 0 167.6 -30.0703 217.6 -92.0205c47.1299 -57.7598 69.6602 -150.069 69.6602 -272.979c0 -325.48 -174.07 -362.461 -286.79 -362.461
c-128.1 0 -223.47 65.5195 -253.63 179.279l154.02 19.4502c13.3096 -50.0801 45.6494 -84.9697 99.6094 -84.9697c59.5 0 129.56 37.0195 129.56 194.689v6.91992h-4c-40.71 -42.1797 -97.6504 -61.0293 -157.04 -61.0293zM293.512 599.231
c-59.7197 0 -113.83 -41.1709 -113.83 -124.141c0 -82.96 54.1104 -124.15 113.83 -124.15c62.7402 0 118.46 45.1104 118.46 124.15c0 79.0303 -55.7197 124.141 -118.46 124.141z" />
    <glyph glyph-name="zerosuperior" unicode="&#x2070;" horiz-adv-x="449" 
d="M223.98 722c122.87 0 197.96 -65.5195 197.96 -218.47c0 -152.02 -75.0898 -217.539 -197.96 -217.539c-122.95 0 -197.04 65.5195 -197.04 217.539c0 152.95 74.0898 218.47 197.04 218.47zM223.98 369.87c35.1104 0 76.2002 11.1797 76.2002 133.66
c0 122.95 -41.0898 133.601 -76.2002 133.601c-35.6504 0 -75.75 -10.6504 -75.75 -133.601c0 -122.48 40.0996 -133.66 75.75 -133.66z" />
    <glyph glyph-name="onesuperior" unicode="&#xb9;" horiz-adv-x="301" 
d="M231.37 714v-419.999h-115.84v266.85h-97.9199v73.8701h16.7002c62.2998 0 91.5898 40.5195 100.67 79.2793h96.3896z" />
    <glyph glyph-name="twosuperior" unicode="&#xb2;" horiz-adv-x="414" 
d="M22.7695 294l0.00195312 13.2314c0 106.06 62.8701 146.979 133.68 189.279l44 26.3896c39.9805 23.6797 69.54 40.8496 69.54 68.3301c0 27.1104 -20.0996 44.8105 -58.4297 44.8105c-38.8701 0 -66.1104 -23.0195 -69.96 -67.4199l-115.69 2.30957
c5.84961 102.52 88.4492 151.06 188.259 151.06c102.97 0 173.89 -42.6904 173.89 -130.91c0 -74.4004 -57.1104 -107.62 -120.61 -140.311l-40.7002 -22.0898c-27.3496 -15.7197 -53.2598 -31.96 -55.1797 -42.1299h214.57v-92.5498h-363.37z" />
    <glyph glyph-name="threesuperior" unicode="&#xb3;" horiz-adv-x="417" 
d="M157.96 547.05h43.6123c40.5498 0 65.5693 19.2402 65.5693 47.1104c0 27.3301 -26.0898 44.04 -59.5703 44.04c-33.4102 0 -59.6504 -18.8496 -64.5 -52.7197l-113.68 5.45996c5.30957 81.2197 73.7598 131.06 178.18 131.06c103.89 0 174.109 -43.54 174.109 -121.61
c0 -44.0801 -32.1504 -70.3896 -73.3008 -83.3193v-4c47.1504 -10.3896 81.54 -39.2393 82.0801 -93.2393c1.07031 -96.9805 -79.2998 -133.83 -183.43 -133.83c-106.66 0 -183.72 39.8496 -190.96 138.369l117.69 5.92969c3.78027 -45.3398 34.4102 -60.04 73.2803 -60.04
c36.79 0 65.8096 18.1602 65.8096 51.1104c0 33.2598 -26.3301 49.5 -71.2803 49.5h-43.6104v76.1797z" />
    <glyph glyph-name="foursuperior" unicode="&#x2074;" horiz-adv-x="422" 
d="M402.63 465.13v-82.8799h-50.5498v-88.2598h-115.84v88.2598h-214.39v94.0996l175.72 237.65h154.5v-248.87h50.5596zM117.43 465.12h118.81v159.84h-4l-114.81 -155.84v-4z" />
    <glyph glyph-name="fivesuperior" unicode="&#x2075;" horiz-adv-x="407" 
d="M227.85 579.39c68.0098 0 156.602 -37.9502 156.602 -145.4c0 -108.52 -88.5996 -148 -185.58 -148c-95.9805 0 -169.641 37.7803 -185.11 121.761l116.15 12.2197c5.32031 -27.7197 29.9502 -49.6396 68.9697 -49.6396c38.5498 0 67.5 20.5498 67.5 64.7402
c0 44.1797 -28.9502 64.7393 -68.4307 64.7393c-28.4004 0 -51.1807 -14.3896 -63.8906 -28.3193h-109.61l22.6104 242.5h305.32v-87.8701h-212l-7.92969 -77.6602h4c21.4697 20.46 49.9297 30.9297 91.3994 30.9297z" />
    <glyph glyph-name="sixsuperior" unicode="&#x2076;" horiz-adv-x="431" 
d="M247.11 569.68c75.3701 0 157.828 -47.6787 157.828 -134.919c0 -107.37 -98.6699 -148.76 -182.189 -148.76c-65.5195 0 -114.979 14.8496 -148.52 51.0898c-33.9004 35.6104 -47.3701 91.6807 -47.3701 167.9c0 189.89 121.26 217 194.5 217
c87.6504 0 156.73 -40.7598 176.65 -110.37l-112.61 -9.53027c-9.91992 26.3096 -33.1602 41.1797 -66.7197 41.1797c-37.5498 0 -78.2695 -32.2402 -78.2695 -100.53v-4.54004h4c23.9199 20.6299 62.1602 31.4795 102.7 31.4795zM218.139 364.181
c39.71 0 74.2598 20.5596 74.2598 65.9697c0 43.9404 -34.5498 64.96 -74.2598 64.96c-41.5498 0 -76.1094 -21.9404 -76.1094 -64.96c0 -44.0195 34.5596 -65.9697 76.1094 -65.9697z" />
    <glyph glyph-name="sevensuperior" unicode="&#x2077;" horiz-adv-x="383" 
d="M368.15 714v-44.5996c0 -121.89 -154 -155.17 -154 -364.46v-10.9502h-124.98v18.1699c0 156.96 102.65 247.04 147.091 305.82v4h-223.96v92.0195h355.85z" />
    <glyph glyph-name="eightsuperior" unicode="&#x2078;" horiz-adv-x="432" 
d="M215.98 722c96.3496 0 178.109 -35.6104 178.109 -116.69c0 -42 -27 -69.3896 -67.6904 -84.3896v-4c48.1504 -17.6104 79.6904 -50.9199 79.6904 -105.46c0 -86.8496 -83.6904 -125.46 -190.11 -125.46c-106.43 0 -190.109 38.6104 -190.109 125.46
c0 54.54 31.5303 87.8496 79.6807 105.46v4c-40.6797 15 -67.6797 42.3896 -67.6797 84.3896c0 81.0801 81.7598 116.69 178.109 116.69zM215.98 543.68c37.1602 0 70.8691 17.2402 70.8691 52.3398c0 35.0898 -35.3203 52.4102 -70.8701 52.4102
c-35.5596 0 -70.8691 -17.3203 -70.8691 -52.4102c0 -35.0996 33.7002 -52.3398 70.8701 -52.3398zM215.979 364.72c40.6299 0 77.1816 17.7002 77.1816 58.6504c0 39.9404 -37.7002 58.1104 -77.1807 58.1104s-77.1904 -18.1699 -77.1904 -58.1104
c0 -40.9502 36.5596 -58.6504 77.1895 -58.6504z" />
    <glyph glyph-name="ninesuperior" unicode="&#x2079;" horiz-adv-x="431" 
d="M183.7 438.31c-75.3701 0 -157.828 47.6895 -157.828 134.93c0 107.37 98.6699 148.76 182.189 148.76c65.5195 0 114.979 -14.8496 148.52 -51.0898c33.9004 -35.6104 47.3701 -91.6904 47.3701 -167.91c0 -189.89 -121.26 -217 -194.5 -217
c-87.6504 0 -156.73 40.7598 -176.65 110.37l112.61 9.54004c9.91992 -26.3203 33.1602 -41.1904 66.7197 -41.1904c37.5498 0 78.2695 32.2402 78.2695 100.54v4.53027h-4c-23.9199 -20.6299 -62.1602 -31.4795 -102.7 -31.4795zM212.672 643.809
c-39.71 0 -74.2598 -20.5596 -74.2598 -65.96c0 -43.9502 34.5498 -64.9697 74.2598 -64.9697c41.5498 0 76.1094 21.9502 76.1094 64.9697c0 44.0195 -34.5596 65.96 -76.1094 65.96z" />
    <glyph glyph-name="asterisk" unicode="*" horiz-adv-x="446" 
d="M296.83 523.89l108.61 -67.54l-52.3496 -75.1797l-86.9199 66.6104l3.45996 -114h-93.4004l3.45996 114l-86.9199 -66.6104l-52.3496 75.1797l108.61 67.54l-108.61 67.5303l52.3496 75.1904l86.9199 -66.6104l-3.45996 114h93.4004l-3.45996 -114l86.9199 66.6104
l52.3496 -75.1904z" />
    <glyph glyph-name="backslash" unicode="\" horiz-adv-x="422" 
d="M414.13 0h-145.82l-260 714h146.82z" />
    <glyph glyph-name="periodcentered" unicode="&#xb7;" horiz-adv-x="304" 
d="M152.26 211.92c-57.6504 0 -104.08 45.8896 -104.08 103.54c0 57.1904 46.4297 104.08 104.08 104.08c57.1104 0 103.53 -46.8896 103.53 -104.08c0 -57.6504 -46.4199 -103.54 -103.53 -103.54z" />
    <glyph glyph-name="bullet" unicode="&#x2022;" horiz-adv-x="500" 
d="M249.18 155c-110 0 -201 90.46 -201 201.93c0 111.53 91 201.53 201 201.53c112 0 202.47 -90 202.47 -201.53c0 -111.47 -90.4697 -201.93 -202.47 -201.93z" />
    <glyph glyph-name="colon" unicode=":" horiz-adv-x="302" 
d="M63.4004 513.48h175.41v-165.74h-175.41v165.74zM63.4004 165.74h175.41v-165.74h-175.41v165.74z" />
    <glyph glyph-name="comma" unicode="," horiz-adv-x="290" 
d="M232.66 165.74v-117.111c0 -139.13 -47.1299 -207.96 -172.55 -213.8v77.4805c41.8301 3.08008 61.5898 29.6104 61.5898 87.6904h-64.4404v165.74h175.4z" />
    <glyph glyph-name="ellipsis" unicode="&#x2026;" horiz-adv-x="838" 
d="M57.2598 165.74h175.4v-165.74h-175.4v165.74zM331.18 165.74h175.41v-165.74h-175.41v165.74zM605.109 165.74h175.4v-165.74h-175.4v165.74z" />
    <glyph glyph-name="exclam" unicode="!" horiz-adv-x="305" 
d="M93.8496 236.07l-26.1299 313.24v164.69h170v-164.69l-26.1299 -313.24h-117.74zM65.0195 165.74h175.4v-165.74h-175.4v165.74z" />
    <glyph glyph-name="exclamdown" unicode="&#xa1;" horiz-adv-x="304" 
d="M238.57 533.46v-162.96h-173.55v162.96h173.55zM236.79 -15.8496v-164.69h-170v164.69l26.1299 313.24h117.74z" />
    <glyph glyph-name="numbersign" unicode="#" horiz-adv-x="657" 
d="M509.87 413.4l-25.6318 -127.27h104.82l-22.2998 -103.02h-103.28l-36.8896 -183.11h-109.7l37.1504 183.11h-120.28l-37.1504 -183.11h-109.24l37.0303 183.11h-103.03l21.7598 103.02h102.1l25.7402 127.27h-104.6l21.2998 104.02h104.33l36.9102 182.5h109.7
l-37.0195 -182.5h120.27l37.0303 182.5h108.7l-36.7598 -182.5h103.23l-21.7598 -104.02h-102.43zM400.758 413.4h-120.27l-25.8203 -127.27h120.27z" />
    <glyph glyph-name="period" unicode="." horiz-adv-x="290" 
d="M57.2598 165.74h175.4v-165.74h-175.4v165.74z" />
    <glyph glyph-name="question" unicode="?" horiz-adv-x="595" 
d="M185.92 490.48l-155.92 18.7793c19.4805 147.89 120.78 220.739 269.65 220.739c147.66 0 259.01 -73.0703 259.01 -207.04c0 -99.1602 -55.8496 -136.94 -108.29 -167.94c-61 -36.71 -81.9297 -61.4297 -81.9297 -113.56v-5.38965h-145.11v31.0195
c0 85 31.2402 126.48 109.37 174.091c36.1699 22.71 58.7197 45.7998 58.7197 89.6201c0 44.8096 -33.5 74.29 -92.3896 74.29s-100.92 -38.0898 -113.11 -114.609zM207.72 165.74h175.41v-165.74h-175.41v165.74z" />
    <glyph glyph-name="questiondown" unicode="&#xbf;" horiz-adv-x="595" 
d="M387.72 367.72h-175.4v165.74h175.4v-165.74zM409.52 42.9795l155.92 -18.7891c-19.4805 -147.89 -120.771 -220.739 -269.641 -220.739c-147.67 0 -259.02 73.0801 -259.02 207.04c0 99.1699 55.8496 136.95 108.3 167.95c61 36.7002 81.9199 61.4199 81.9199 113.55
v5.38965h145.11v-31.0195c0 -85 -31.7803 -125.4 -109.37 -174.091c-36.1699 -22.7002 -58.7197 -45.7998 -58.7197 -89.6094c0 -44.8203 33.5 -74.3008 92.3896 -74.3008s100.92 38.0996 113.11 114.619z" />
    <glyph glyph-name="quotedbl" unicode="&#x22;" horiz-adv-x="462" 
d="M52.6299 411.33v302.67h139.05v-302.67h-139.05zM270.26 411.33v302.67h139.05v-302.67h-139.05z" />
    <glyph glyph-name="quotesingle" unicode="'" horiz-adv-x="244" 
d="M52.6299 411.33v302.67h139.05v-302.67h-139.05z" />
    <glyph glyph-name="semicolon" unicode=";" horiz-adv-x="302" 
d="M63.4102 513.48h175.4v-165.74h-175.4v165.74zM238.811 165.74v-117.111c0 -139.13 -47.1299 -207.96 -172.55 -213.8v77.4805c41.8301 3.08008 61.5898 29.6104 61.5898 87.6904h-64.4404v165.74h175.4z" />
    <glyph glyph-name="slash" unicode="/" horiz-adv-x="422" 
d="M414.13 714l-260 -714h-145.82l259 714h146.82z" />
    <glyph glyph-name="underscore" unicode="_" horiz-adv-x="512" 
d="M-19 -160v50h548.92v-50h-548.92z" />
    <glyph glyph-name="braceleft" unicode="{" horiz-adv-x="398" 
d="M283.24 576.65v-147.001c0 -71.8096 -32.54 -110.409 -102.56 -122.02v-4c70.0195 -12.1504 102.56 -50.7402 102.56 -122.561v-147c0 -30.6797 3.24023 -57.29 49.0703 -57.29h45.6299v-120.52h-103.68c-99.21 0 -138.74 45.5703 -138.74 123.83v173.56
c0 74.0303 -33.71 89.1807 -82.8398 89.1807v125.06c49.1299 0 82.8398 15.1504 82.8398 89.1807v173.56c0 78.2598 39.5303 123.83 138.74 123.83h103.68v-120.52h-45.6299c-45.8301 0 -49.0703 -26.6104 -49.0703 -57.29z" />
    <glyph glyph-name="braceright" unicode="}" horiz-adv-x="398" 
d="M114.7 429.65v146.989c0 30.6904 -3.24023 57.3008 -49.0703 57.3008h-45.6299v120.52h103.68c99.21 0 138.74 -45.5801 138.74 -123.84v-173.55c0 -74.04 33.71 -89.1904 82.8398 -89.1904v-125.05c-49.1299 0 -82.8398 -15.1504 -82.8398 -89.1904v-173.55
c0 -78.2598 -39.5303 -123.84 -138.74 -123.84h-103.68v120.52h45.6299c45.8301 0 49.0703 26.6104 49.0703 57.3008v147c0 71.8096 32.54 110.409 102.56 122.56v4c-70.0195 11.6104 -102.56 50.2002 -102.56 122.021z" />
    <glyph glyph-name="bracketleft" unicode="[" horiz-adv-x="359" 
d="M221.09 -23.2197l117.67 -0.000976562v-120.52h-268.76v898.2h268.76v-120.52h-117.67v-657.16z" />
    <glyph glyph-name="bracketright" unicode="]" horiz-adv-x="359" 
d="M20 633.94v120.521h268.76v-898.2h-268.76v120.52h117.66v657.16h-117.66z" />
    <glyph glyph-name="parenleft" unicode="(" horiz-adv-x="330" 
d="M201.33 326.22c0 -189.41 57.7998 -313.651 128.52 -406.571l-62.9502 -62.9502c-118.44 97.7803 -224.591 241.061 -224.591 469.511c0 228.44 106.15 371.721 224.591 469.501l62.9502 -62.9404c-70.7197 -92.9297 -128.52 -217.149 -128.52 -406.55z" />
    <glyph glyph-name="parenright" unicode=")" horiz-adv-x="330" 
d="M128.52 326.22c0 189.41 -57.7998 313.642 -128.52 406.571l62.9502 62.9404c118.44 -97.7803 224.591 -241.061 224.591 -469.501c0 -228.45 -106.15 -371.73 -224.591 -469.511l-62.9502 62.9502c70.7197 92.9199 128.52 217.14 128.52 406.55z" />
    <glyph glyph-name="emdash" unicode="&#x2014;" horiz-adv-x="844" 
d="M55.1797 207.05v133.67h733.93v-133.67h-733.93z" />
    <glyph glyph-name="endash" unicode="&#x2013;" horiz-adv-x="647" 
d="M55.1797 207.05v133.67h536.47v-133.67h-536.47z" />
    <glyph glyph-name="hyphen" unicode="-" horiz-adv-x="436" 
d="M62.1602 217.05v133.67h312.13v-133.67h-312.13z" />
    <glyph glyph-name="guillemotleft" unicode="&#xab;" horiz-adv-x="497" 
d="M229.74 512.53v-154.26l-92.8203 -83.8096v-4l92.8203 -83.8203v-155.26l-179 151.1v179.42zM455.03 512.53v-154.26l-92.8096 -83.8096v-4l92.8096 -83.8203v-155.26l-179 151.1v179.42z" />
    <glyph glyph-name="guillemotright" unicode="&#xbb;" horiz-adv-x="497" 
d="M221.15 182.48l-179 -151.09v155.26l92.8096 83.8096v4l-92.8096 83.8203v154.26l179 -150.63v-179.43zM446.44 182.48l-179 -151.1v155.26l92.8203 83.8203v4l-92.8203 83.8096v154.26l179 -150.63v-179.42z" />
    <glyph glyph-name="guilsinglleft" unicode="&#x2039;" horiz-adv-x="272" 
d="M229.74 512.53v-154.26l-92.8203 -83.8096v-4l92.8203 -83.8203v-155.26l-179 151.1v179.42z" />
    <glyph glyph-name="guilsinglright" unicode="&#x203a;" horiz-adv-x="272" 
d="M221.15 182.48l-179 -151.1v155.26l92.8096 83.8203v4l-92.8096 83.8096v154.26l179 -150.63v-179.42z" />
    <glyph glyph-name="quotedblbase" unicode="&#x201e;" horiz-adv-x="490" 
d="M214.07 165.2v-116.571c0 -139.13 -47.1299 -208.5 -159.13 -213.8v77.4805c41.8301 3.08008 61.5898 29.6104 61.5898 87.6904h-63.9004v165.2h161.44zM437.75 165.199v-116.571c0 -139.13 -47.1299 -208.5 -159.13 -213.8v77.4805
c41.8301 3.08008 61.5898 29.6104 61.5898 87.6904h-63.9004v165.2h161.44z" />
    <glyph glyph-name="quotedblleft" unicode="&#x201c;" horiz-adv-x="490" 
d="M52.6299 383.63v116.571c0 139.13 47.1299 208.5 159.13 213.8v-77.4805c-41.8301 -3.08008 -61.5898 -29.6104 -61.5898 -87.6904h63.9004v-165.2h-161.44zM276.32 383.631v116.571c0 139.13 47.1299 208.5 159.13 213.8v-77.4805
c-41.8301 -3.08008 -61.5898 -29.6104 -61.5898 -87.6904h63.9004v-165.2h-161.44z" />
    <glyph glyph-name="quotedblright" unicode="&#x201d;" horiz-adv-x="490" 
d="M214.07 714v-116.581c0 -139.13 -47.1299 -209.03 -159.13 -213.79v77.4805c41.8301 3.07031 61.5898 29.6104 61.5898 87.6807h-63.9004v165.21h161.44zM437.75 713.999v-116.581c0 -139.13 -47.1299 -209.03 -159.13 -213.79v77.4805
c41.8301 3.07031 61.5898 29.6104 61.5898 87.6807h-63.9004v165.21h161.44z" />
    <glyph glyph-name="quoteleft" unicode="&#x2018;" horiz-adv-x="267" 
d="M52.6299 383.63v116.571c0 139.13 47.1299 208.5 159.13 213.8v-77.4805c-41.8301 -3.08008 -61.5898 -29.6104 -61.5898 -87.6904h63.9004v-165.2h-161.44z" />
    <glyph glyph-name="quoteright" unicode="&#x2019;" horiz-adv-x="267" 
d="M214.07 714v-116.581c0 -139.13 -47.1299 -208.5 -159.13 -213.79v77.4805c41.8301 3.07031 61.5898 29.6104 61.5898 87.6807h-63.9004v165.21h161.44z" />
    <glyph glyph-name="quotesinglbase" unicode="&#x201a;" horiz-adv-x="267" 
d="M214.07 165.2v-116.571c0 -139.13 -47.1299 -208.5 -159.13 -213.8v77.4805c41.8301 3.08008 61.5898 29.6104 61.5898 87.6904h-63.9004v165.2h161.44z" />
    <glyph glyph-name="uni2007" unicode="&#x2007;" horiz-adv-x="335" 
 />
    <glyph glyph-name="uni2008" unicode="&#x2008;" horiz-adv-x="274" 
 />
    <glyph glyph-name="space" unicode=" " horiz-adv-x="210" 
 />
    <glyph glyph-name="uni00A0" unicode="&#xa0;" horiz-adv-x="168" 
 />
    <glyph glyph-name="zerowidthspace" unicode="&#x200b;" horiz-adv-x="0" 
 />
    <glyph glyph-name="CR" unicode="&#xd;" horiz-adv-x="168" 
 />
    <glyph glyph-name="cent" unicode="&#xa2;" horiz-adv-x="585" 
d="M405.42 200.33l161.39 -16.5391c-22.0098 -91.8096 -88.1699 -186.529 -242.24 -195.619v-89.25h-49.6797v89.3301c-155.24 9.95996 -247.48 113.49 -247.48 276.28c0 163.3 92.2402 267.35 247.48 277.359v74.1797h49.6797v-74.1201
c153.65 -9.32031 215.73 -105.71 235.461 -174.97l-156.61 -29.3203c-10.4004 35.96 -32.0508 75.8496 -78.8506 86.2197v-318.28c47.8701 10.1797 70.0205 50.5596 80.8506 94.7295zM189.26 264.531c0 -96.4199 32.9697 -147.149 85.6299 -158.77v318.06
c-52.6602 -11.7305 -85.6299 -62.8604 -85.6299 -159.29z" />
    <glyph glyph-name="currency" unicode="&#xa4;" horiz-adv-x="601" 
d="M550.48 368c0 -53.4004 -16.7695 -102.9 -45.3291 -143.53l68.4004 -68.4004l-66.6904 -61.1504l-66.1299 66.1396c-40 -27.1797 -88.29 -43.0596 -140.26 -43.0596s-100.25 15.8799 -140.25 43.0596l-66.1396 -66.1396l-66.6797 61.1504l68.3896 68.4004
c-28.5498 40.6299 -45.3193 90.1299 -45.3193 143.53c0 53.3896 16.7695 102.899 45.3193 143.529l-68.3896 68.3896l66.6797 61.1504l66.1396 -66.1299c40 27.1699 88.2803 43.0596 140.25 43.0596s100.26 -15.8896 140.26 -43.0596l66.1299 66.1299l66.6904 -61.1504
l-68.4004 -68.3896c28.5596 -40.6299 45.3291 -90.1396 45.3291 -143.529zM300.48 225.87c73.79 0 131.59 63.3301 131.59 142.13c0 78.79 -57.7998 142.13 -131.59 142.13c-73.7998 0 -131.59 -63.3398 -131.59 -142.13c0 -78.7998 57.79 -142.13 131.59 -142.13z" />
    <glyph glyph-name="dollar" unicode="$" horiz-adv-x="639" 
d="M607.22 198.51c0 -143.97 -123.139 -209.089 -269.299 -212.379v-101.5h-50.1504v102.77c-150.9 11.2305 -253.9 90.1504 -268.83 230.75l160 16.3701c6.70996 -74.8604 50.4795 -112.061 108.829 -122.971v182.02l-51.29 13.7998
c-94.4297 24.6797 -197.149 58 -197.149 197.28c0 129.54 106.64 201.64 248.449 208.3v79.8799h50.1504v-80.2305c139.43 -8.66992 225.96 -82.6396 248.92 -212.51l-156.63 -10.6797c-8.37012 56.0303 -39.5801 91.1406 -92.2998 101.171v-161.36l53.5898 -13.8896
c104.52 -26.54 215.71 -56.6104 215.71 -216.82zM287.771 442.23l-0.00976562 150.53c-54.0498 -5.32031 -87.6602 -36.9004 -87.6602 -78.0508c0 -43.8896 36.0898 -59.5195 85.1895 -71.8398zM337.911 280.081v-171.771c60.1299 3.04004 103.689 33.1797 103.689 84.5195
c0 54.0801 -38.2598 69.8105 -103.689 87.251z" />
    <glyph glyph-name="Euro" unicode="&#x20ac;" horiz-adv-x="689" 
d="M451.63 117.57c57.1904 0 123.79 19.7305 181.16 77.8809v-162.95c-50.3701 -27.5498 -111.76 -46.5 -184.87 -46.5c-182.29 0 -303.31 100.03 -338.119 262.71h-85.6396l43.5195 73.5195h32.5498c-0.509766 9.58008 -0.769531 19.3301 -0.769531 29.2402
c0 9.03027 0.230469 17.9307 0.69043 26.7002h-76.4502l42.5195 73.6602h43.7803c35.9902 162.08 161.55 261.63 336.87 261.63c96.5303 0 171.05 -29.0898 225.26 -70.0898l-72.8496 -120.98c-40.3203 38.2598 -92.4805 59.96 -151.82 59.96
c-83.8799 0 -143.91 -46.9004 -169.33 -130.521h280.63l-44.5195 -73.6602h-248.82c-0.540039 -8.66016 -0.820312 -17.5703 -0.820312 -26.71c0 -10.0303 0.320312 -19.7803 0.950195 -29.2402h216.3l-42.9805 -73.5195h-160.49
c25.6699 -84.25 86.2197 -131.13 173.25 -131.13z" />
    <glyph glyph-name="florin" unicode="&#x192;" horiz-adv-x="510" 
d="M443.72 620.07c-39.1299 0 -65.8281 -12.8994 -72.7578 -54.2295l-19.8398 -112.06h105.6v-102.7h-123.78l-38 -214.58c-21.2197 -120.55 -107.16 -149.03 -219.79 -149.03c-22.71 0 -53.3896 2.45996 -75.1494 4.45996v113.85
c19.9199 -2.45996 42.5498 -3.92969 66.0195 -3.92969c39.5195 0 65.8291 12.4502 73.2188 54.3203l34.5596 194.9h-89.2197v102.71h107.43l23.25 131.18c20.7598 120.48 107.17 150.04 219.33 150.04c22.71 0 53.3896 -3 75.1494 -5v-113.32
c-19.46 1.92969 -42.5596 3.38965 -66.0195 3.38965z" />
    <glyph glyph-name="franc" unicode="&#x20a3;" horiz-adv-x="747" 
d="M744.28 0h-149.799l-79.2402 142.5h-46.3398v-142.5h-130.2v301.02h-125.74v-301.02h-157.71v699.92h528.58v-128.28h-370.87v-146.57h349.15c104.42 0 169.939 -54.8496 169.939 -142.739c0 -60.2197 -32 -103.689 -85.5303 -125.3zM468.901 232.76l75.3701 0.000976562
c35.8701 0 54.5 19.5596 54.5 47.04c0 27.5498 -18.6299 47.1094 -54.5 47.1094h-75.3701v-94.1504z" />
    <glyph glyph-name="sterling" unicode="&#xa3;" horiz-adv-x="660" 
d="M598.2 180.24l45.0693 -128.57c-25.8701 -48.8301 -79.3701 -65.6699 -124.13 -65.6699c-77.7402 0 -142.67 36.8896 -198.52 76.1699c-30.4102 -50.8701 -86.5098 -76.1602 -150.279 -76.1602c-87.1797 0 -145.699 46.5898 -145.699 127.649
c0 82.9004 59.9805 122.271 128.79 122.271c22.6396 0 43.4492 -5.4502 63.9395 -13.21c-2.94043 23.1104 -12.6504 45.9004 -25.6602 66.6602h-138.46v81.5703h88.2998c-28.6797 39.1699 -51.6494 84.4297 -51.6494 136.779c0 140.82 117.59 205.74 257.22 205.74
c135.98 0 258.78 -64.9199 276.7 -240.939h-154.31c-10.3896 80.4004 -58.04 117.44 -113.78 117.44c-58.1504 0 -96.25 -35.9697 -96.25 -96.0801c0 -44.3604 28.3896 -82.6504 55.1992 -122.95h159.35v-81.5703h-114.61c11.5 -21.29 18.7803 -44.7705 18.7803 -70.1406
c0 -21.5498 -3.09961 -39.0098 -9.25 -53.7598c43.5195 -24.0098 83.5596 -44.75 124.579 -44.75c36.3701 0 72.5205 13.1504 104.671 59.5205zM168.05 70.7295c20.21 0 42.8809 16.499 48.7812 60.7588c-17.8203 12.7695 -34.6904 21.2598 -48.6309 21.2598
c-22.9199 0 -39.2402 -16.4697 -39.2402 -41.7793c0 -24.8496 16.8496 -40.2393 39.0898 -40.2393z" />
    <glyph glyph-name="yen" unicode="&#xa5;" horiz-adv-x="706" 
d="M517.94 405.78h102.871v-81.04h-152.9l-36.0996 -58.4805h189v-80.5703h-189v-185.69h-157.7v185.69h-193.22v80.5703h192.76l-35.9697 58.4805h-156.79v81.04h106.95l-180.9 294.15h172.54l175.55 -299.8l176.1 299.8h168.39z" />
    <glyph glyph-name="Ohm" unicode="&#x2126;" horiz-adv-x="735" 
d="M699.43 125.13l-0.0117188 -125.13h-301.16v194.42c78.9004 26.3896 125.351 104.819 125.351 204.97c0 124.9 -63.8203 196.57 -156.971 196.57c-91.29 0 -156.03 -71.6699 -156.03 -196.57c0 -100.15 46.4404 -179.12 126.28 -204.97v-194.42h-301.63v125.13h198.22
v28.3896c-113.3 36.8496 -191.319 127.59 -191.319 269.38c0 186.78 143.74 307.101 324.48 307.101c182.6 0 325.88 -120.32 325.88 -307.101c0 -143.79 -78.0195 -231.53 -191.319 -268.46v-29.3096h198.23z" />
    <glyph glyph-name="approxequal" unicode="&#x2248;" horiz-adv-x="485" 
d="M352.31 430.74c38 0 77.999 31 104.999 63.9199v-107.89c-35 -33.9199 -68.5303 -49.9199 -105 -49.9199c-23.6797 0 -50.2197 12.0703 -75.3701 22.6104l-75.1602 31.7803c-24.0801 10 -43.4697 20.46 -69.4697 20.46c-38 0 -78 -31 -105 -63.9199v107.89
c35 33.9199 69 49.9199 105 49.9199c23.6904 0 50.2207 -12.0703 75.3711 -22.6104l75.1699 -31.7803c24.0703 -10 43.46 -20.46 69.46 -20.46zM352.309 253.221c38 0 77.999 31 104.999 63.9199v-107.89c-35 -33.9199 -68.5303 -49.9199 -105 -49.9199
c-23.6797 0 -50.2197 12.0703 -75.3701 22.6104l-75.1602 31.7803c-24.0801 10 -43.4697 20.46 -69.4697 20.46c-38 0 -78 -31 -105 -63.9199v107.89c35 33.9199 69 49.9199 105 49.9199c23.6904 0 50.2207 -12.0703 75.3711 -22.6104l75.1699 -31.7803
c24.0703 -10 43.46 -20.46 69.46 -20.46z" />
    <glyph glyph-name="asciitilde" unicode="~" horiz-adv-x="485" 
d="M352.31 333.59c38 0 78 31 105 65v-121.4c-35 -35 -68 -51 -105 -51c-30.3896 0 -55.2197 10.6797 -80 22.5293l-70 33.4697c-23 11 -44 21 -70 21c-38 0 -78 -31 -105 -65v121.4c35 35 69 51 105 51c30.3896 0 55.2197 -10.6797 80 -22.5293l70 -33.4697
c23 -11 44 -21 70 -21z" />
    <glyph glyph-name="bulletoperator" unicode="&#x2219;" horiz-adv-x="312" 
d="M155.96 219.98c-54.4199 0 -98.7002 44.2803 -98.7002 98.7002c0 53.9697 44.2803 98.71 98.7002 98.71c54.4297 0 98.71 -44.7402 98.71 -98.71c0 -54.4199 -44.2803 -98.7002 -98.71 -98.7002z" />
    <glyph glyph-name="divide" unicode="&#xf7;" horiz-adv-x="545" 
d="M272.78 443.29c-43.5195 0 -78.4297 34.9102 -78.4297 78.4297s34.9102 78.4199 78.4297 78.4199s78.4199 -34.9004 78.4199 -78.4199s-34.9004 -78.4297 -78.4199 -78.4297zM517.78 378.66v-106.87h-490.47v106.87h490.47zM272.78 50.3096
c-43.5195 0 -78.4297 34.9102 -78.4297 78.4297s34.9102 78.4199 78.4297 78.4199s78.4199 -34.9004 78.4199 -78.4199s-34.9004 -78.4297 -78.4199 -78.4297z" />
    <glyph glyph-name="emptyset" unicode="&#x2205;" horiz-adv-x="841" 
d="M739.85 722l-72.5107 -96.0596c72.54 -66.6504 117.91 -162.37 117.91 -268.94c0 -202 -163 -365 -365 -365c-70.0498 0 -135.42 19.5996 -190.92 53.6396l-40.4902 -53.6396h-87.6504l72.2803 95.7598c-72.7197 66.6602 -118.22 162.51 -118.22 269.24
c0 202 163 365 365 365c70.21 0 135.71 -19.6904 191.29 -53.8701l40.6602 53.8701h87.6504zM137.599 357c0 -80.79 31.7891 -153.76 83.3594 -206.34l344.18 455.99c-42.2803 25.8496 -91.79 40.6797 -144.89 40.6797c-157.02 0 -282.649 -129.7 -282.649 -290.33z
M420.258 66.6602c157.02 0 282.64 129.701 282.64 290.331c0 80.6299 -31.6504 153.47 -83.04 206.029l-344.12 -455.91c42.2002 -25.7002 91.5703 -40.4502 144.521 -40.4502z" />
    <glyph glyph-name="equal" unicode="=" horiz-adv-x="485" 
d="M27.3096 366.31v106.87h430v-106.87h-430zM27.3096 176.199v107.95h430v-107.95h-430z" />
    <glyph glyph-name="greater" unicode="&#x3e;" horiz-adv-x="526" 
d="M481.85 264.87l-430 -197.87v127.15l283.89 125.85v4l-283.89 125.85v127.15l430 -197.87v-114.26z" />
    <glyph glyph-name="greaterequal" unicode="&#x2265;" horiz-adv-x="526" 
d="M481.85 315.29l-430 -178.92v93.5195l313.2 124.79v4l-313.2 124.34v92.9805l430 -177.47v-83.2402zM51.8496 0v86.9805h420.07v-86.9805h-420.07z" />
    <glyph glyph-name="increment" unicode="&#x2206;" horiz-adv-x="756" 
d="M752.98 0h-750.039l261.6 714h226.85zM525.241 133.89l-149.89 438.29h-4l-148.28 -438.29h302.17z" />
    <glyph glyph-name="infinity" unicode="&#x221e;" horiz-adv-x="760" 
d="M541.42 472.2c100.91 0 161.67 -82.4404 161.67 -164.28c0 -84.9004 -60.7598 -168.66 -161.67 -168.66c-75.7598 0 -130.37 44.0703 -166.521 90.1504c-37.1504 -46.0801 -88.8301 -90.1504 -156.98 -90.1504c-99.9102 0 -160.67 83.7598 -160.67 168.66
c0 81.8398 60.7598 164.28 160.67 164.28c74.7598 0 129.37 -43.1504 165.521 -89.2207c37.1504 46.0703 88.2207 89.2207 157.98 89.2207zM219.92 218.311c48.1504 0 79.1494 30.4707 111.22 80.0811c-34.6797 60.2197 -65.6094 95.2197 -111.22 95.2197
c-53.5303 0 -79.5303 -37.6104 -79.5303 -85.6904c0 -48.0703 27.5303 -89.6104 79.5303 -89.6104zM539.879 218.312c52 0 79.54 41.5293 79.54 89.6094c0 48.0703 -26.4697 85.6807 -79.54 85.6807c-49.6104 0 -80.1504 -29.5303 -112.15 -80.0703
c34.54 -59.2197 66 -95.2197 112.15 -95.2197z" />
    <glyph glyph-name="integral" unicode="&#x222b;" horiz-adv-x="425" 
d="M325.81 744.61c30.3203 0 68.0801 -5 89.4502 -9.54004l-0.540039 -110.85c-16 2.46973 -40.0898 5.46973 -58.9395 5.46973c-39.5996 0 -63.7598 -12.3701 -63.7598 -55.1699v-621.16c0 -120.34 -80.4102 -149.89 -192.57 -149.89
c-30.3203 0 -68.0801 5 -89.4502 9.53027l0.540039 110.85c16 -2.45996 40.0898 -5.45996 58.9395 -5.45996c39.5996 0 63.7598 12.3701 63.7598 55.1602v620.63c0 120.87 80.4102 150.43 192.57 150.43z" />
    <glyph glyph-name="less" unicode="&#x3c;" horiz-adv-x="526" 
d="M44.6299 379.13l430 197.87v-127.15l-283.89 -125.85v-4l283.89 -125.85v-127.15l-430 197.87v114.26z" />
    <glyph glyph-name="lessequal" unicode="&#x2264;" horiz-adv-x="526" 
d="M474.63 576v-92.9805l-313.21 -124.33v-4l313.21 -124.8v-93.5195l-430 178.93v83.2402zM54.5498 86.9795h420.08v-86.9805h-420.08v86.9805z" />
    <glyph glyph-name="logicalnot" unicode="&#xac;" horiz-adv-x="485" 
d="M457.78 138.63h-113.93v172.31h-316.54v106.87h430.47v-279.18z" />
    <glyph glyph-name="minus" unicode="&#x2212;" horiz-adv-x="485" 
d="M457.78 378.66v-106.87h-430.47v106.87h430.47z" />
    <glyph glyph-name="multiply" unicode="&#xd7;" horiz-adv-x="505" 
d="M477.16 465.87l-145.168 -140.41l145.56 -141.33l-81.4102 -75.04l-143.94 139.26l-143.48 -139.26l-80.8701 75.04l145.02 141.33l-144.17 140.41l80.9502 75.0303l142.55 -138.33l142.95 138.33z" />
    <glyph glyph-name="notequal" unicode="&#x2260;" horiz-adv-x="485" 
d="M318.03 378.77l-61.291 -105.171h200.58v-86.5195h-251l-57.4697 -100.85l-68.2197 38.1504l36.4004 62.71h-89.71v86.5195h139.94l61.0596 105.16h-201v86.5195h251.22l58.2402 100.32l68.2197 -37.6104l-36.5498 -62.71h88.8604v-86.5195h-139.28z" />
    <glyph glyph-name="partialdiff" unicode="&#x2202;" horiz-adv-x="622" 
d="M283.24 730c138.09 0 303.22 -75.1514 303.22 -372.541c0 -256.1 -108.15 -370 -292.62 -370c-134.85 0 -258.59 71.7598 -258.59 226.91c0 180.5 130.58 242 247.82 242c43.4404 0 94.1309 -10.0996 133.201 -41.0801c-13.2598 154.08 -79.04 190.97 -149.48 190.97
c-58.4404 0 -114.591 -21.6797 -160.891 -57.0693l-40.8896 112.9c54.8398 43.6104 130.359 67.9102 218.229 67.9102zM292.16 103.679c84.1201 0 117.95 83.7705 125.061 199.79c-24.2803 29 -59.9707 40.9697 -98.5205 40.9697c-62.96 0 -122.67 -37.5 -122.67 -130.07
c0 -70.3496 43.6299 -110.689 96.1299 -110.689z" />
    <glyph glyph-name="percent" unicode="%" horiz-adv-x="965" 
d="M211.53 714.46c113.72 0 176.279 -67.6797 176.279 -203.149c0 -135.92 -62.5596 -204.14 -176.279 -204.14c-114.65 0 -176.28 68.2197 -176.28 204.14c0 135.47 61.6299 203.149 176.28 203.149zM727.46 699.93l-396.319 -699.93h-93.3301l396.31 699.93h93.3398z
M211.53 385.91c38.4297 0 64.5801 25.4199 64.5801 125.4c0 99.4502 -26.1504 124.41 -64.5801 124.41c-38.8896 0 -64.5693 -24.96 -64.5693 -124.41c0 -99.9805 25.6797 -125.4 64.5693 -125.4zM754.271 393.3c114.19 0 175.82 -68.1504 175.82 -203.62
c0 -136 -61.6299 -203.68 -175.82 -203.68c-114.18 0 -175.81 67.6797 -175.81 203.68c0 135.47 61.6299 203.62 175.81 203.62zM754.271 65.2002c38.8896 0 64.5801 24.5 64.5801 124.48c0 99.4502 -25.6904 124.87 -64.5801 124.87
c-38.3496 0 -64.5693 -25.4199 -64.5693 -124.87c0 -99.9805 26.2197 -124.48 64.5693 -124.48z" />
    <glyph glyph-name="perthousand" unicode="&#x2030;" horiz-adv-x="1272" 
d="M199.61 714.46c106.18 0 163.89 -64.1504 163.89 -193.61c0 -129.85 -57.71 -194.069 -163.89 -194.069c-106.11 0 -164.351 64.2197 -164.351 194.069c0 129.46 58.2402 193.61 164.351 193.61zM687.13 699.92l-396.39 -699.92h-93.3301l395.85 699.92h93.8701z
M199.61 399.91c36.5801 0 61.7998 24.5703 61.7998 120.94c0 95.3701 -25.2197 120.48 -61.7998 120.48c-36.5703 0 -62.2607 -25.1104 -62.2607 -120.48c0 -96.3701 25.6904 -120.94 62.2607 -120.94zM684.46 374.22c106.65 0 164.36 -64.1504 164.36 -194.61
c0 -129.39 -57.71 -193.609 -164.36 -193.609c-105.65 0 -163.891 64.2197 -163.891 193.609c0 130.46 58.2402 194.61 163.891 194.61zM1072.17 374.22c106.18 0 164.35 -64.1504 164.35 -194.61c0 -129.39 -58.1699 -193.609 -164.35 -193.609
c-106.11 0 -163.891 64.2197 -163.891 193.609c0 130.46 57.7803 194.61 163.891 194.61zM684.46 59.2002c38.04 0 62.2598 25.04 62.2598 120.41c0 96.3701 -24.2197 121.021 -62.2598 121.021c-36.5703 0 -61.3301 -24.6504 -61.3301 -121.021
c0 -95.3701 24.7598 -120.41 61.3301 -120.41zM1072.17 59.2002c37.1104 0 61.79 25.04 61.79 120.41c0 96.3701 -24.6797 121.021 -61.79 121.021c-37.04 0 -61.7998 -24.6504 -61.7998 -121.021c0 -95.3701 24.7598 -120.41 61.7998 -120.41z" />
    <glyph glyph-name="plus" unicode="+" horiz-adv-x="485" 
d="M457.78 271.79h-159.72v-171.79h-111.02v171.79h-159.72v106.87h159.72v171.34h111.02v-171.34h159.72v-106.87z" />
    <glyph glyph-name="plusminus" unicode="&#xb1;" horiz-adv-x="485" 
d="M457.78 286.29h-159.72v-157.29h-111.02v157.29h-159.72v106.87h159.72v156.84h111.02v-156.84h159.72v-106.87zM457.78 106.87v-106.87h-430.47v106.87h430.47z" />
    <glyph glyph-name="product" unicode="&#x220f;" horiz-adv-x="704" 
d="M486.48 -148l0.000976562 722.16h-269.28v-722.16h-161.94v862h593.16v-862h-161.94z" />
    <glyph glyph-name="radical" unicode="&#x221a;" horiz-adv-x="533" 
d="M315.02 -148l-121.631 -0.00976562l-96 336.39l-64.71 -32.8496l-27.6797 57.8301l161.65 81.5996l94.1602 -326.5h2l183.95 731.46h81.1797z" />
    <glyph glyph-name="summation" unicode="&#x2211;" horiz-adv-x="685" 
d="M648.05 -148h-592.801v114.68l271.56 317.32l-257.56 315.85v114.15h563.87v-140.37h-337.72l223.72 -276.63l-261.72 -305.56h390.65v-139.44z" />
    <glyph glyph-name="lozenge" unicode="&#x25ca;" horiz-adv-x="544" 
d="M541.09 358.46l-219.84 -388h-98.4805l-219.83 388l219.83 388h98.4805zM431.92 358.46l-159.41 291.28l-160.4 -291.28l160.4 -291.28z" />
    <glyph glyph-name="bar" unicode="|" horiz-adv-x="329" 
d="M244.78 -226.47h-160.15v1024.39h160.15v-1024.39z" />
    <glyph glyph-name="brokenbar" unicode="&#xa6;" horiz-adv-x="329" 
d="M244.78 361.46h-160.15v436.47h160.15v-436.47zM244.78 -226.46h-160.15v436.46h160.15v-436.46z" />
    <glyph glyph-name="at" unicode="@" horiz-adv-x="988" 
d="M743.89 -19.5l37.5781 -62.0508c-81.2998 -50.0703 -180.59 -75.0703 -278.149 -75.0703c-259.55 0 -468.069 154.09 -468.069 418.7c0 262.84 208.61 467.37 467.681 467.37c264.32 0 449.761 -171.24 449.761 -370c0 -216.81 -156.03 -303.92 -277.771 -303.92
c-60 0 -100.28 22.2402 -105.04 65.7705h-4c-31.0801 -45.8496 -83.4102 -65.7695 -145.47 -65.7695c-112.22 0 -178.609 87.46 -178.609 185.07c0 127.08 73.3203 270.71 238.63 270.71c48.3203 0 94.9307 -22.4697 116.851 -64.25h4l9 45.71h127.39l-65.6299 -308.69
c-9.15039 -45.9805 16.6992 -54.3701 44.0889 -54.3701c62.1504 0 147.62 76.0801 147.62 219.13c0 172.32 -140.48 304.431 -365.351 304.431c-197.04 0 -374.2 -168.48 -374.2 -396.65c0 -217.79 169.78 -338.59 383.67 -338.59c81.4004 0 166.87 20 236.021 62.4697z
M452.228 154.859c85.96 0 125.979 95.5703 125.449 158.91c-0.540039 61.8701 -28.1699 98.2002 -80.4297 98.2002c-85.96 0 -125.979 -95.5703 -125.449 -158.91c0.540039 -61.8701 28.1699 -98.2002 80.4297 -98.2002z" />
    <glyph glyph-name="ampersand" unicode="&#x26;" horiz-adv-x="779" 
d="M588.92 0l-59.3301 61.5908c-59.1602 -48.9902 -133.37 -75.7305 -212.71 -75.7305c-145.82 0 -281.61 66.9297 -281.61 211.06c0 95.5303 50.9404 152.25 141.79 196.18l23.7598 11.4404c-58.8096 67.4004 -75.0098 107.96 -75.0098 154.72
c0 97.5898 92.0303 170.74 220.53 170.74s220.54 -73.1504 220.54 -170.74c0 -74.0195 -54.0996 -115.189 -120.97 -151.89l-41.3604 -22.7305l108.78 -112.64c9.5498 32.1797 14.4102 66.6201 14.4102 101.05h134.74c0 -79.3301 -17.5303 -148.72 -47.8105 -206
l161.33 -167.05h-187.08zM273.45 553.491c0 -25.5703 15.751 -47.71 53.5312 -88.1396l19.9697 9.62012c45.8701 22.1699 72.2705 42.2598 72.2705 78.5195c0 32.6504 -23.4805 68.6699 -72.8809 68.6699c-49.4102 0 -72.8906 -36.0195 -72.8906 -68.6699zM316.871 104.632
c50.4297 0 92.3008 18.1904 125.091 47.8906l-159.22 165.22l-9.48047 -5.20996c-52.4297 -28.9404 -80.9102 -63.6602 -80.9102 -110.46c0 -58.2002 45.9697 -97.4404 124.52 -97.4404z" />
    <glyph glyph-name="paragraph" unicode="&#xb6;" horiz-adv-x="683" 
d="M627.85 -184h-114.551v799.96h-98.21v-799.96h-114.02v477.66c-181.42 0 -273.66 79.71 -273.66 209.63c0 129.47 92.2402 210.17 273.66 210.17h326.78v-897.46z" />
    <glyph glyph-name="copyright" unicode="&#xa9;" horiz-adv-x="856" 
d="M427.72 -16c-205.47 0 -372.47 167 -372.47 372.92c0 205.54 167 372.54 372.47 372.54c206 0 373 -167 373 -372.54c0 -205.92 -167 -372.92 -373 -372.92zM427.72 57.5195c165.16 0 299.48 133.78 299.48 299.41c0 164.7 -134.32 299.021 -299.48 299.021
c-165.17 0 -298.95 -134.32 -298.95 -299.021c0 -165.63 133.78 -299.41 298.95 -299.41zM501.51 314.76l100.581 -8.46777c-14 -75.4404 -77.8398 -136.29 -173.37 -136.29c-105.15 0 -179.761 67.3896 -179.761 187.46c0 119.15 74.6104 186.54 179.761 186.54
c92.2197 0 153.979 -57.0703 168.979 -119.98l-99.5801 -12c-9.38965 31.3896 -32.2393 55.2393 -69.3994 55.2393c-40.7998 0 -78.7197 -27.9404 -78.7197 -109.79c0 -82.7803 37.9199 -110.73 78.7197 -110.73c39.0195 0 63.8691 26.1699 72.7891 68.0195z" />
    <glyph glyph-name="registered" unicode="&#xae;" horiz-adv-x="856" 
d="M427.72 729.46c206 0 373 -167 373 -372.53c0 -205.93 -167 -372.93 -373 -372.93c-205.47 0 -372.47 167 -372.47 372.93c0 205.53 167 372.53 372.47 372.53zM427.72 57.5195c164.7 0 299.48 134.24 299.48 299.4c0 164.24 -134.78 299.021 -299.48 299.021
c-164.71 0 -298.95 -134.78 -298.95 -299.021c0 -165.16 134.24 -299.4 298.95 -299.4zM592.01 417.239c0 -53.46 -24.3896 -90.9297 -69.1699 -108.54l79.7803 -130.7h-113.18l-66.4805 119.48h-53.6504v-119.48h-98.04v358h184.91c85.6797 0 135.83 -44 135.83 -118.76z
M369.31 372.149h68.1797c35.1699 0 53.4795 17.3896 53.4795 45.0898c0 27.2402 -18.3096 44.0898 -53.4795 44.0898h-68.1797v-89.1797z" />
    <glyph glyph-name="section" unicode="&#xa7;" horiz-adv-x="714" 
d="M658.42 246.72c0 -69.5703 -43.0605 -119.304 -106.501 -144.434c29.2305 -29.1602 47.8105 -66.8105 48.0303 -120.03c0.469727 -136.5 -111.03 -186.35 -242.07 -186.35c-141.2 0 -247.61 64.46 -254.16 194.15l162.15 15.9004
c3.78027 -70.5303 45.3701 -94.6807 91.4805 -94.6807c48.5996 0 78.9297 22.0195 78.4697 67.9092c-0.469727 43.4404 -31.3398 61.4404 -61.4297 74.6807l-166.43 70.8701c-108.74 45.5801 -152.7 87.7305 -152.7 174.131c0 72.7998 46.75 116.39 113.03 138.79
c-27.2305 26.8301 -46.5703 62.9102 -46.5703 114.07c0 123.79 101.35 177.81 229.93 177.81c134.81 0 223.609 -63.0703 233.09 -176.91l-155.32 -9.67969c-5.7002 46.29 -30.5898 72.8301 -78.3096 72.8301c-43.4297 0 -69.6895 -24.0195 -69.6895 -59.9092
c0 -33.4297 26.3398 -48.9795 47.5801 -57.8291l158.31 -69.0195c121.45 -51.2803 171.11 -90.5801 171.11 -182.3zM261.529 249.257l166.85 -72.7109c2.37012 -1.04004 4.73047 -2.08984 7.08008 -3.13965c42.1104 4.86035 58.3506 34.7305 58.3506 60.6201
c0 33.7402 -21.2803 55.8301 -60.4307 71.8301l-152.59 65.0801c-48.1602 -4.15039 -66.8398 -31.9102 -66.8398 -58.9199c0 -30.9697 21.5 -51.7598 47.5801 -62.7598z" />
    <glyph glyph-name="trademark" unicode="&#x2122;" horiz-adv-x="896" 
d="M384.85 633.72h-116.319v-277.72h-97.5v277.72h-115.78v80.2803h329.6v-80.2803zM840.42 714l0.0078125 -358h-90.8896v242.26h-4l-70.8701 -242.26h-68.0596l-71.8701 242.26h-4v-242.26h-88.8896v358h143.95l54.1104 -208.45h4l54.0303 208.45h142.48z" />
    <glyph glyph-name="degree" unicode="&#xb0;" horiz-adv-x="416" 
d="M207.87 418c-82.54 0 -152.61 61.46 -152.61 148c0 87 70.0703 148.46 152.61 148.46c82.5303 0 152.61 -61.46 152.61 -148.46c0 -86.54 -70.0801 -148 -152.61 -148zM207.87 490.52c41.7002 0 71.4805 33.7803 71.4805 75.4805
c0 41.71 -29.7803 75.4902 -71.4805 75.4902c-41.71 0 -71.4902 -33.7803 -71.4902 -75.4902c0 -41.7002 29.7803 -75.4805 71.4902 -75.4805z" />
    <glyph glyph-name="uni2116" unicode="&#x2116;" horiz-adv-x="1146" 
d="M946.29 721.85c113.6 0 180.75 -66.3203 180.75 -175.931c0 -109.15 -67.1504 -174.931 -180.75 -174.931c-113.66 0 -179.74 65.7803 -179.74 174.931c0 109.61 66.0801 175.931 179.74 175.931zM691.98 -0h-189.28l-287.89 488.33h-4v-488.33h-155.55v714h193.74
l283.42 -478.72h4v478.72h155.56v-714zM946.3 449.57c41.1797 0 67.1992 27.6504 67.1992 96.3604c0 69.1602 -26.0195 96.8105 -67.1992 96.8105c-40.1904 0 -66.21 -27.6504 -66.21 -96.8105c0 -68.71 26.0195 -96.3604 66.21 -96.3604zM1127.04 0h-360.48v109.31h360.48
v-109.31z" />
    <glyph glyph-name="asciicircum" unicode="^" horiz-adv-x="562" 
d="M383.96 353l-100.892 219.85h-4l-100.89 -219.85h-122.93l164.78 346.92h122.08l164.78 -346.92h-122.93z" />
    <glyph glyph-name="dagger" unicode="&#x2020;" horiz-adv-x="583" 
d="M555.89 395.85h-184.63v-577.26h-159.32v577.26h-184.63v127.81h184.63v190.34h159.32v-190.34h184.63v-127.81z" />
    <glyph glyph-name="daggerdbl" unicode="&#x2021;" horiz-adv-x="583" 
d="M371.26 395.85v-259.11h184.63v-127.82h-184.63v-190.33h-159.32v190.33h-184.63v127.82h184.63v259.11h-184.63v127.81h184.63v190.34h159.32v-190.34h184.63v-127.81h-184.63z" />
    <glyph glyph-name="acute" unicode="&#xb4;" horiz-adv-x="342" 
d="M162.79 589h-113.53l85.3701 163.59h162.03z" />
    <glyph glyph-name="breve" unicode="&#x2d8;" horiz-adv-x="466" 
d="M316.13 753.66h104.239c-3.83008 -108.13 -90.3496 -167.59 -185.55 -167.59c-95.6699 0 -181.72 59.46 -185.56 167.59h104.24c6.54004 -46.1797 41.0205 -70.79 81.3105 -70.79c39.7598 0 74.7793 24.6104 81.3193 70.79z" />
    <glyph glyph-name="caron" unicode="&#x2c7;" horiz-adv-x="515" 
d="M469.55 752.59l-138.3 -163.59h-143.7l-138.3 163.59h142.84l65.3096 -88.6797h4l65.3203 88.6797h142.83z" />
    <glyph glyph-name="cedilla" unicode="&#xb8;" horiz-adv-x="362" 
d="M49.2598 -206.3l21.2285 65.5898c21.0801 -10.54 54.9805 -22.7598 89.6504 -22.7598c22.29 0 44.0703 11.0801 44.0703 35.3203c0 24.3096 -21.7803 29.3896 -44.0703 29.3896c-14.4697 0 -27.54 -3.54004 -41.6201 -7.54004v64.3701l76 80.4697l92.1104 5.53027
l-41.6104 -44.0703l-30.3896 -33.3896v-5c63.9502 -6.08008 102.48 -34.1504 102.48 -90.7607c0 -68.6104 -54.1504 -102.91 -150.98 -102.91c-40.9697 0 -86.1895 9.15039 -116.869 25.7607z" />
    <glyph glyph-name="circumflex" unicode="&#x2c6;" horiz-adv-x="515" 
d="M261.4 677.68h-3.98926l-65.3203 -88.6797h-142.83l138.29 163.59h143.71l138.29 -163.59h-142.83z" />
    <glyph glyph-name="dieresis" unicode="&#xa8;" horiz-adv-x="448" 
d="M49.2598 720.29h138.66v-120.65h-138.66v120.65zM264.29 720.29h138.67v-120.65h-138.67v120.65z" />
    <glyph glyph-name="dotaccent" unicode="&#x2d9;" horiz-adv-x="253" 
d="M49.2598 724h158.78v-124.35h-158.78v124.35z" />
    <glyph glyph-name="grave" unicode="`" horiz-adv-x="342" 
d="M211.29 752.59l85.3701 -163.59h-113.53l-133.87 163.59h162.03z" />
    <glyph glyph-name="hungarumlaut" unicode="&#x2dd;" horiz-adv-x="477" 
d="M150.11 589h-100.851l57.6104 163.59h138.37zM336.63 589h-100.86l58.1504 163.59h137.84z" />
    <glyph glyph-name="macron" unicode="&#xaf;" horiz-adv-x="410" 
d="M49.2598 625.61v97.3301h315.48v-97.3301h-315.48z" />
    <glyph glyph-name="ogonek" unicode="&#x2db;" horiz-adv-x="316" 
d="M215.5 -142.97c18.8301 0 39.0498 2 55.5195 7.46973v-89.0195c-20.2197 -5.54004 -44.7598 -7.54004 -74.9795 -7.54004c-93.6299 0 -146.78 36.1504 -146.78 103.37c0 55.6904 36.3203 102.61 92.54 129.69h119.37c-70 -38.2402 -96.8398 -76.5605 -96.8398 -106.261
c0 -25.2402 25.54 -37.71 51.1699 -37.71z" />
    <glyph glyph-name="ring" unicode="&#x2da;" horiz-adv-x="335" 
d="M169.78 587c-67.7598 0 -120.52 50.1504 -120.52 116.521s52.7598 116.521 120.52 116.521c66.3701 0 119.59 -50.1504 119.59 -116.521s-53.2197 -116.521 -119.59 -116.521zM169.78 650.98c27.5303 0 49.5303 21 49.5303 52.5303c0 31.54 -22 52.54 -49.5303 52.54
c-28.9297 0 -50.46 -21 -50.46 -52.54c0 -31.5303 21.5303 -52.5303 50.46 -52.5303z" />
    <glyph glyph-name="tilde" unicode="&#x2dc;" horiz-adv-x="468" 
d="M422.85 737.79l-77.6797 9.09961c-6.53027 -31.7803 -22.0703 -40.71 -38.0703 -40.71c-14.5303 0 -27.5303 7.92969 -41.1406 16.46l-31.21 19.3701c-16.46 9.92969 -35 18.6299 -58.8496 18.6299c-65.3496 0 -115.72 -38.5898 -126.64 -130.56l77.6602 -9.08984
c6.54004 31.7803 22.0703 40.7002 38.0703 40.7002c13.4697 0 27.54 -7.91992 41.1504 -16.46l31.21 -19.3701c15.46 -9.91992 33.9297 -18.6299 58.8496 -18.6299c65.3496 0 115.72 38.5996 126.649 130.56z" />
    <glyph glyph-name="caron.alt" horiz-adv-x="254" 
d="M199.16 724l0.00976562 -79.4805c0 -111.93 -44.4502 -171.979 -143.91 -177.279v68.5596c33.6602 2.07031 54.1299 25.6807 54.1299 63.8506h-54.1299v124.35h143.9z" />
    <glyph glyph-name="acute.case" horiz-adv-x="342" 
d="M162.79 768.22h-113.53l85.3701 163.59h162.03z" />
    <glyph glyph-name="breve.case" horiz-adv-x="466" 
d="M316.13 927.52h104.239c-3.83008 -108.13 -90.3496 -167.6 -185.55 -167.6c-95.6699 0 -181.72 59.4697 -185.56 167.6h104.24c6.54004 -46.1904 41.0205 -70.8008 81.3105 -70.8008c39.7598 0 74.7793 24.6104 81.3193 70.8008z" />
    <glyph glyph-name="caron.case" horiz-adv-x="515" 
d="M469.55 926.44l-138.3 -163.59h-143.7l-138.3 163.59h142.84l65.3096 -88.6797h4l65.3203 88.6797h142.83z" />
    <glyph glyph-name="cedilla.case" horiz-adv-x="362" 
d="M49.2598 -206.3l21.2285 65.5898c21.0801 -10.54 54.9805 -22.7598 89.6504 -22.7598c22.29 0 44.0703 11.0801 44.0703 35.3203c0 24.3096 -21.7803 29.3896 -44.0703 29.3896c-14.4697 0 -27.54 -3.54004 -41.6201 -7.54004v64.3701l76 80.4697l92.1104 5.53027
l-41.6104 -44.0703l-30.3896 -33.3896v-5c63.9502 -6.08008 102.48 -34.1504 102.48 -90.7607c0 -68.6104 -54.1504 -102.91 -150.98 -102.91c-40.9697 0 -86.1895 9.15039 -116.869 25.7607z" />
    <glyph glyph-name="circumflex.case" horiz-adv-x="515" 
d="M261.4 850.61h-3.98926l-65.3203 -88.6904h-142.83l138.29 163.6h143.71l138.29 -163.6h-142.83z" />
    <glyph glyph-name="dieresis.case" horiz-adv-x="448" 
d="M49.2598 899.52h138.66v-120.65h-138.66v120.65zM264.29 899.52h138.67v-120.65h-138.67v120.65z" />
    <glyph glyph-name="dotaccent.case" horiz-adv-x="253" 
d="M49.2598 903.22h158.78v-124.35h-158.78v124.35z" />
    <glyph glyph-name="grave.case" horiz-adv-x="342" 
d="M211.29 931.81l85.3701 -163.59h-113.53l-133.87 163.59h162.03z" />
    <glyph glyph-name="hungarumlaut.case" horiz-adv-x="477" 
d="M150.11 768.22h-100.851l57.6104 163.59h138.37zM336.63 768.22h-100.86l58.1504 163.59h137.84z" />
    <glyph glyph-name="macron.case" horiz-adv-x="410" 
d="M49.2598 794.09v97.3398h315.48v-97.3398h-315.48z" />
    <glyph glyph-name="ogonek.case" horiz-adv-x="316" 
d="M215.5 -142.97c18.8301 0 39.0498 2 55.5195 7.46973v-89.0195c-20.2197 -5.54004 -44.7598 -7.54004 -74.9795 -7.54004c-93.6299 0 -146.78 36.1504 -146.78 103.37c0 55.6904 36.3203 102.61 92.54 129.69h119.37c-70 -38.2402 -96.8398 -76.5605 -96.8398 -106.261
c0 -25.2402 25.54 -37.71 51.1699 -37.71z" />
    <glyph glyph-name="ring.case" horiz-adv-x="335" 
d="M169.78 750.85c-67.7598 0 -120.52 50.1504 -120.52 116.521s52.7598 116.521 120.52 116.521c66.3701 0 119.59 -50.1504 119.59 -116.521s-53.2197 -116.521 -119.59 -116.521zM169.78 814.83c27.5303 0 49.5303 21 49.5303 52.5303c0 31.54 -22 52.54 -49.5303 52.54
c-28.9297 0 -50.46 -21 -50.46 -52.54c0 -31.5303 21.5303 -52.5303 50.46 -52.5303z" />
    <glyph glyph-name="tilde.case" horiz-adv-x="468" 
d="M422.85 901.65l-77.6797 9.08984c-6.53027 -31.7803 -22.0703 -40.7002 -38.0703 -40.7002c-14.5303 0 -27.5303 7.91992 -41.1406 16.46l-31.21 19.3701c-16.46 9.91992 -35 18.6299 -58.8496 18.6299c-65.3496 0 -115.72 -38.5996 -126.64 -130.56l77.6602 -9.09961
c6.54004 31.7803 22.0703 40.71 38.0703 40.71c13.4697 0 27.54 -7.92969 41.1504 -16.46l31.21 -19.3701c15.46 -9.92969 33.9297 -18.6299 58.8496 -18.6299c65.3496 0 115.72 38.5898 126.649 130.56z" />
    <glyph glyph-name="uni0326" unicode="&#x326;" horiz-adv-x="0" 
d="M193.16 -58.8496l0.00976562 -79.4805c0 -111.93 -44.4502 -171.979 -143.91 -177.279v68.5596c33.6602 2.07031 54.1299 25.6807 54.1299 63.8506h-54.1299v124.35h143.9z" />
    <glyph glyph-name="uni0326.case" horiz-adv-x="0" 
d="M193.16 -58.8496l0.00976562 -79.4805c0 -111.93 -44.4502 -171.979 -143.91 -177.279v68.5596c33.6602 2.07031 54.1299 25.6807 54.1299 63.8506h-54.1299v124.35h143.9z" />
    <glyph glyph-name="uni02BC" unicode="&#x2bc;" horiz-adv-x="238" 
d="M193.16 724l0.00976562 -79.4805c0 -111.93 -44.4502 -171.979 -143.91 -177.279v68.5596c33.6602 2.07031 54.1299 25.6807 54.1299 63.8506h-54.1299v124.35h143.9z" />
    </font>
</defs>
</svg>
