<?xml version="1.0" standalone="no"?>
<!DOCTYPE svg PUBLIC "-//W3C//DTD SVG 20010904//EN"
 "http://www.w3.org/TR/2001/REC-SVG-20010904/DTD/svg10.dtd">
<svg version="1.0" xmlns="http://www.w3.org/2000/svg"
 width="1280.000000pt" height="1280.000000pt" viewBox="0 0 1280.000000 1280.000000"
 preserveAspectRatio="xMidYMid meet">
<metadata>
Created by potrace 1.11, written by Peter Selinger 2001-2013
</metadata>
<g transform="translate(0.000000,1280.000000) scale(0.100000,-0.100000)"
fill="#000000" stroke="none">
<path d="M2390 12605 l0 -195 -197 -2 -198 -3 -3 -197 -2 -198 -195 0 -195 0
0 -5210 0 -5210 202 0 201 0 -6 -795 -7 -795 4410 0 4410 0 -2 798 -3 797
-4404 3 -4404 2 6 2387 c4 1312 7 3650 7 5194 l0 2809 198 2 197 3 3 198 2
197 3990 0 3990 0 2 -197 3 -198 196 -3 196 -2 6 -5192 c4 -2855 8 -5192 10
-5193 1 -1 91 -5 200 -9 l197 -7 0 5211 0 5210 -195 0 -195 0 -2 198 -3 197
-197 3 -198 2 0 195 0 195 -4010 0 -4010 0 0 -195z m8000 -11805 l0 -380
-3985 0 -3985 0 0 383 0 382 3985 -3 3985 -2 0 -380z"/>
<path d="M3200 11400 l0 -190 -192 -2 -193 -3 -3 -2802 -2 -2803 195 0 195 0
0 -195 0 -195 3200 0 3200 0 0 195 0 195 -3195 0 -3195 0 0 2800 0 2800 3195
0 3195 0 2 -2802 3 -2803 190 0 190 0 3 2803 2 2802 -195 0 -195 0 0 195 0
195 -3200 0 -3200 0 0 -190z"/>
<path d="M4010 9795 l0 -195 189 0 c105 0 192 -4 195 -8 3 -5 2 -93 -1 -195
l-6 -187 -189 0 -188 0 0 -205 0 -205 193 2 192 3 3 198 2 197 74 0 c40 0 128
-3 194 -7 l122 -6 0 -189 0 -188 205 0 205 0 0 190 0 190 -200 0 -200 0 0 200
0 200 195 0 195 0 0 200 0 200 -195 0 -195 0 -2 -192 -3 -193 -192 -3 -193 -2
0 195 0 195 -200 0 -200 0 0 -195z"/>
<path d="M7210 9795 l0 -195 195 0 195 0 0 -58 c0 -33 -3 -120 -7 -195 l-6
-137 -189 0 -188 0 0 -205 0 -205 190 0 190 0 0 200 0 200 198 -2 197 -3 3
-192 2 -193 205 0 205 0 0 190 0 190 -200 0 -200 0 0 200 0 200 195 0 195 0 0
200 0 200 -195 0 -195 0 0 -190 0 -190 -200 0 -200 0 0 190 0 190 -195 0 -195
0 0 -195z"/>
<path d="M5217 8393 c-4 -3 -7 -93 -7 -200 l0 -193 195 0 195 0 0 -195 0 -195
400 0 400 0 0 190 0 190 188 0 c103 0 193 4 200 8 9 7 12 53 10 198 l-3 189
-197 3 -198 2 0 -190 0 -190 -395 0 -395 0 0 189 c0 163 -2 190 -16 195 -21 8
-369 8 -377 -1z"/>
<path d="M5200 7005 l0 -195 -187 0 c-104 0 -194 -4 -201 -8 -9 -7 -12 -53
-10 -198 l3 -189 198 -3 197 -2 0 195 0 195 1000 0 1000 0 2 -197 3 -198 393
-3 392 -2 0 -195 0 -195 200 0 200 0 0 195 0 195 -190 0 -190 0 -2 203 -3 202
-397 3 -398 2 0 189 c0 163 -2 190 -16 195 -9 3 -461 6 -1005 6 l-989 0 0
-195z"/>
<path d="M7202 3398 l3 -193 1195 0 1195 0 3 193 2 192 -1200 0 -1200 0 2
-192z"/>
<path d="M2810 3000 l0 -190 395 0 395 0 0 190 0 190 -395 0 -395 0 0 -190z"/>
</g>
</svg>
